<?xml version="1.0" encoding="UTF-8" standalone="no"?>
<!DOCTYPE svg PUBLIC "-//W3C//DTD SVG 1.1//EN" "http://www.w3.org/Graphics/SVG/1.1/DTD/svg11.dtd">
<!-- Создано Microsoft Visio, экспорт SVG ASW.svg Страница-1 -->
<svg xmlns="http://www.w3.org/2000/svg" xmlns:xlink="http://www.w3.org/1999/xlink" xmlns:ev="http://www.w3.org/2001/xml-events"
		xmlns:v="http://schemas.microsoft.com/visio/2003/SVGExtensions/" width="1.63044in" height="1.17776in"
		viewBox="0 0 117.392 84.7988" xml:space="preserve" color-interpolation-filters="sRGB" class="st5">
	<v:documentProperties v:langID="1049" v:metric="true" v:viewMarkup="false"/>

	<style type="text/css">
	<![CDATA[
		.st1 {fill:#2a3174;stroke:none;stroke-linecap:butt;stroke-width:0.75}
		.st2 {fill:#37468b;stroke:none;stroke-linecap:butt;stroke-width:0.75}
		.st3 {fill:#4f62a5;stroke:none;stroke-linecap:butt;stroke-width:0.75}
		.st4 {fill:#ffffff;stroke:none;stroke-linecap:butt;stroke-width:0.75}
		.st5 {fill:none;fill-rule:evenodd;font-size:12px;overflow:visible;stroke-linecap:square;stroke-miterlimit:3}
	]]>
	</style>

	<g v:mID="0" v:index="1" v:groupContext="foregroundPage">
		<title>Страница-1</title>
		<v:pageProperties v:drawingScale="0.0393701" v:pageScale="0.0393701" v:drawingUnits="24" v:shadowOffsetX="9"
				v:shadowOffsetY="-9"/>
		<g id="group1-1" transform="translate(0.75,-0.75)" v:mID="1" v:groupContext="group">
			<title>Лист.1</title>
			<g id="shape2-2" v:mID="2" v:groupContext="shape" transform="translate(57.948,0)">
				<title>Лист.2</title>
				<path d="M57.94 34.1 L57.94 51.3 L0 84.8 L0 67.9 L57.94 34.1 Z" class="st1"/>
			</g>
			<g id="shape3-4" v:mID="3" v:groupContext="shape">
				<title>Лист.3</title>
				<path d="M57.95 67.9 L57.95 84.8 L0 51.3 L0 34.1 L57.95 67.9 Z" class="st2"/>
			</g>
			<g id="shape4-6" v:mID="4" v:groupContext="shape" transform="translate(0,-16.9012)">
				<title>Лист.4</title>
				<path d="M115.89 51.6 L58.17 84.8 L0 51.6 L57.8 18.4 L115.89 51.6 Z" class="st3"/>
			</g>
			<g id="shape5-8" v:mID="5" v:groupContext="shape" transform="translate(41.0425,-56.7364)">
				<title>Лист.5</title>
				<path d="M12.83 79.51 C12.68 66.76 12.68 66.76 12.68 66.76 C12.68 65.4 14.57 64.27 16.83 64.27 C18.04 64.27 19.09
							 64.58 19.77 65.1 C20.6 65.48 21.05 66.08 21.05 66.76 C21.13 79.52 21.13 79.52 21.13 79.52 C28.82 75.14
							 28.82 75.14 28.82 75.14 C33.8 77.93 33.8 77.93 33.8 77.93 C21.96 84.8 21.96 84.8 21.96 84.8 C20.37 84.42
							 18.64 84.27 16.75 84.27 C14.94 84.27 13.43 84.42 11.85 84.72 C0 77.93 0 77.93 0 77.93 C5.06 75.14 5.06
							 75.14 5.06 75.14 C12.83 79.51 12.83 79.51 12.83 79.51 Z" class="st1"/>
			</g>
			<g id="shape6-10" v:mID="6" v:groupContext="shape" transform="translate(50.7037,-44.6689)">
				<title>Лист.6</title>
				<path d="M14.49 80.57 C14.49 82.91 11.32 84.8 7.32 84.8 C5.28 84.8 3.47 84.35 2.19 83.59 C0.83 82.76 0 81.78 0 80.57
							 C0 78.31 3.24 76.35 7.24 76.35 C9.28 76.35 11.09 76.88 12.37 77.63 C13.73 78.39 14.49 79.44 14.49 80.57
							 Z" class="st1"/>
			</g>
			<g id="shape7-12" v:mID="7" v:groupContext="shape" transform="translate(10.8665,-39.8394)">
				<title>Лист.7</title>
				<path d="M35.01 72.05 C34.1 73.1 33.5 74.39 33.5 75.6 C33.5 76.65 33.87 77.78 34.55 78.61 C23.84 84.8 23.84 84.8
							 23.84 84.8 C18.86 81.93 18.86 81.93 18.86 81.93 C26.48 77.56 26.48 77.56 26.48 77.56 C4.22 77.56 4.22
							 77.56 4.22 77.56 C3.09 77.56 1.96 77.25 1.28 76.88 C0.53 76.42 0 75.82 0 75.22 C0 73.86 1.89 72.8 4.15
							 72.8 C26.48 72.8 26.48 72.8 26.48 72.8 C18.79 68.35 18.79 68.35 18.79 68.35 C23.77 65.48 23.77 65.48
							 23.77 65.48 C35.01 72.05 35.01 72.05 35.01 72.05 Z" class="st1"/>
			</g>
			<g id="shape8-14" v:mID="8" v:groupContext="shape" transform="translate(71.2293,-38.6299)">
				<title>Лист.8</title>
				<path d="M0.22 77.63 C0.68 76.72 0.98 75.82 0.98 74.69 C0.98 73.63 0.68 72.5 0 71.59 C11.62 64.27 11.62 64.27 11.62
							 64.27 C16.52 67.37 16.52 67.37 16.52 67.37 C9.05 72.12 9.05 72.12 9.05 72.12 C31.01 72.12 31.01 72.12
							 31.01 72.12 C32.07 72.12 33.12 72.35 33.88 72.8 C34.55 73.25 35.01 73.86 35.01 74.54 C35.01 76.04 33.2
							 77.1 31.01 77.1 C9.05 77.1 9.05 77.1 9.05 77.1 C16.6 81.78 16.6 81.78 16.6 81.78 C11.77 84.8 11.77 84.8
							 11.77 84.8 C0.22 77.63 0.22 77.63 0.22 77.63 Z" class="st1"/>
			</g>
			<g id="shape9-16" v:mID="9" v:groupContext="shape" transform="translate(42.252,-21.7308)">
				<title>Лист.9</title>
				<path d="M21.05 70.24 C21.13 82.61 21.13 82.61 21.13 82.61 C21.13 83.82 19.31 84.8 17.05 84.8 C15.85 84.8 14.86 84.65
							 14.11 84.2 C13.28 83.82 12.83 83.29 12.83 82.61 C12.83 70.24 12.83 70.24 12.83 70.24 C5.06 74.54 5.06
							 74.54 5.06 74.54 C0 71.75 0 71.75 0 71.75 C10.86 65.79 10.86 65.79 10.86 65.79 C12.45 66.16 14.18 66.39
							 16.07 66.39 C18.33 66.39 20.45 66.09 22.41 65.48 C33.8 71.75 33.8 71.75 33.8 71.75 C28.82 74.54 28.82
							 74.54 28.82 74.54 C21.05 70.24 21.05 70.24 21.05 70.24 Z" class="st1"/>
			</g>
			<g id="shape10-18" v:mID="10" v:groupContext="shape" transform="translate(41.0425,-56.7406)">
				<title>Лист.10</title>
				<path d="M12.83 79.59 C12.68 66.61 12.68 66.61 12.68 66.61 C12.68 65.41 14.57 64.28 16.83 64.28 C18.04 64.28 19.09
							 64.5 19.77 64.95 C20.6 65.41 21.05 65.93 21.05 66.61 C21.13 79.59 21.13 79.59 21.13 79.59 C28.82 75.14
							 28.82 75.14 28.82 75.14 C33.8 78.01 33.8 78.01 33.8 78.01 C21.96 84.8 21.96 84.8 21.96 84.8 C20.37 84.42
							 18.64 84.27 16.75 84.27 C14.94 84.27 13.43 84.42 11.85 84.72 C0 78.01 0 78.01 0 78.01 C5.06 75.14 5.06
							 75.14 5.06 75.14 C12.83 79.59 12.83 79.59 12.83 79.59 Z" class="st4"/>
			</g>
			<g id="shape11-20" v:mID="11" v:groupContext="shape" transform="translate(50.7037,-45.8742)">
				<title>Лист.11</title>
				<path d="M14.49 81.25 C14.49 83.29 11.32 84.8 7.32 84.8 C5.28 84.8 3.47 84.5 2.19 83.82 C0.83 83.14 0 82.23 0 81.25
							 C0 79.21 3.24 77.55 7.24 77.55 C9.28 77.55 11.09 78.01 12.37 78.76 C13.73 79.36 14.49 80.2 14.49 81.25
							 Z" class="st4"/>
			</g>
			<g id="shape12-22" v:mID="12" v:groupContext="shape" transform="translate(10.8665,-39.8394)">
				<title>Лист.12</title>
				<path d="M35.01 71.97 C34.1 73.03 33.5 74.31 33.5 75.67 C33.5 76.73 33.87 77.71 34.55 78.69 C23.84 84.8 23.84 84.8
							 23.84 84.8 C18.86 81.93 18.86 81.93 18.86 81.93 C26.48 77.48 26.48 77.48 26.48 77.48 C4.22 77.48 4.22
							 77.48 4.22 77.48 C3.09 77.48 1.96 77.33 1.28 76.8 C0.53 76.42 0 75.82 0 75.14 C0 73.86 1.89 72.73 4.15
							 72.73 C26.48 72.73 26.48 72.73 26.48 72.73 C18.79 68.43 18.79 68.43 18.79 68.43 C23.77 65.48 23.77 65.48
							 23.77 65.48 C35.01 71.97 35.01 71.97 35.01 71.97 Z" class="st4"/>
			</g>
			<g id="shape13-24" v:mID="13" v:groupContext="shape" transform="translate(71.2293,-39.8394)">
				<title>Лист.13</title>
				<path d="M0.22 78.16 C0.68 77.25 0.98 76.27 0.98 75.29 C0.98 74.24 0.68 73.26 0 72.35 C11.62 65.48 11.62 65.48 11.62
							 65.48 C16.52 68.43 16.52 68.43 16.52 68.43 C9.05 72.8 9.05 72.8 9.05 72.8 C31.01 72.8 31.01 72.8 31.01
							 72.8 C32.07 72.8 33.12 73.1 33.88 73.48 C34.55 73.93 35.01 74.54 35.01 75.22 C35.01 76.5 33.2 77.56
							 31.01 77.56 C9.05 77.56 9.05 77.56 9.05 77.56 C16.6 82.01 16.6 82.01 16.6 82.01 C11.77 84.8 11.77 84.8
							 11.77 84.8 C0.22 78.16 0.22 78.16 0.22 78.16 Z" class="st4"/>
			</g>
			<g id="shape14-26" v:mID="14" v:groupContext="shape" transform="translate(42.252,-21.7308)">
				<title>Лист.14</title>
				<path d="M21.05 69.33 C21.13 82.38 21.13 82.38 21.13 82.38 C21.13 83.74 19.31 84.8 17.05 84.8 C15.85 84.8 14.86 84.57
							 14.11 84.05 C13.28 83.67 12.83 83.07 12.83 82.39 C12.83 69.33 12.83 69.33 12.83 69.33 C5.06 73.79 5.06
							 73.79 5.06 73.79 C0 70.92 0 70.92 0 70.92 C10.86 64.58 10.86 64.58 10.86 64.58 C12.45 65.03 14.18 65.18
							 16.07 65.18 C18.33 65.18 20.45 64.81 22.41 64.28 C33.8 70.92 33.8 70.92 33.8 70.92 C28.82 73.79 28.82
							 73.79 28.82 73.79 C21.05 69.33 21.05 69.33 21.05 69.33 Z" class="st4"/>
			</g>
		</g>
	</g>
</svg>
