<?xml version="1.0" encoding="UTF-8" standalone="no"?>
<!DOCTYPE svg PUBLIC "-//W3C//DTD SVG 1.1//EN" "http://www.w3.org/Graphics/SVG/1.1/DTD/svg11.dtd">
<!-- Создано Microsoft Visio, экспорт SVG BFD-MAD.svg Page-1 -->
<svg xmlns="http://www.w3.org/2000/svg" xmlns:xlink="http://www.w3.org/1999/xlink" xmlns:ev="http://www.w3.org/2001/xml-events"
		xmlns:v="http://schemas.microsoft.com/visio/2003/SVGExtensions/" width="10.2362in" height="9.68504in"
		viewBox="0 0 737.008 697.323" xml:space="preserve" color-interpolation-filters="sRGB" class="st12">
	<v:documentProperties v:langID="1049" v:metric="true" v:viewMarkup="false">
		<v:userDefs>
			<v:ud v:nameU="msvNoAutoConnect" v:val="VT0(1):26"/>
		</v:userDefs>
	</v:documentProperties>

	<style type="text/css">
	<![CDATA[
		.st1 {fill:#2a3174;stroke:none;stroke-linecap:butt;stroke-width:0.75}
		.st2 {fill:#37468b;stroke:none;stroke-linecap:butt;stroke-width:0.75}
		.st3 {fill:#4f62a5;stroke:none;stroke-linecap:butt;stroke-width:0.75}
		.st4 {fill:#ffffff;stroke:none;stroke-linecap:butt;stroke-width:0.75}
		.st5 {stroke:#000000;stroke-linecap:round;stroke-linejoin:round;stroke-width:2.25}
		.st6 {fill:none;stroke:none;stroke-linecap:round;stroke-linejoin:round;stroke-width:2.25}
		.st7 {fill:#000000;font-family:Calibri;font-size:1.16666em}
		.st8 {fill:#000000;font-family:Calibri;font-size:1.99999em;font-weight:bold}
		.st9 {fill:#3b4687;stroke:none;stroke-linecap:butt;stroke-width:0.75}
		.st10 {stroke:#000000;stroke-dasharray:6.75,6.75;stroke-linecap:round;stroke-linejoin:round;stroke-width:2.25}
		.st11 {fill:none;stroke:#000000;stroke-dasharray:19.25,13.75;stroke-linecap:round;stroke-linejoin:round;stroke-width:2.75}
		.st12 {fill:none;fill-rule:evenodd;font-size:12px;overflow:visible;stroke-linecap:square;stroke-miterlimit:3}
	]]>
	</style>

	<g v:mID="0" v:index="1" v:groupContext="foregroundPage">
		<title>Страница-1</title>
		<v:pageProperties v:drawingScale="0.0393701" v:pageScale="0.0393701" v:drawingUnits="24" v:shadowOffsetX="9"
				v:shadowOffsetY="-9"/>
		<g id="group334-1" transform="translate(26.5785,-105.821)" v:mID="334" v:groupContext="group">
			<title>Лист.334</title>
			<g id="shape335-2" v:mID="335" v:groupContext="shape" transform="translate(57.948,0)">
				<title>Лист.335</title>
				<path d="M57.94 646.62 L57.79 663.75 L0 697.32 L0 680.04 L57.94 646.62 Z" class="st1"/>
			</g>
			<g id="shape336-4" v:mID="336" v:groupContext="shape">
				<title>Лист.336</title>
				<path d="M57.95 680.04 L57.95 697.32 L0 663.75 L0.23 646.62 L57.95 680.04 Z" class="st2"/>
			</g>
			<g id="shape337-6" v:mID="337" v:groupContext="shape" transform="translate(0,-18.1086)">
				<title>Лист.337</title>
				<path d="M115.89 664.12 L58.1 697.32 L0 664.12 L57.65 630.93 L115.89 664.12 Z" class="st3"/>
			</g>
			<g id="shape338-8" v:mID="338" v:groupContext="shape" transform="translate(15.6939,-26.5603)">
				<title>Лист.338</title>
				<path d="M51.23 686.68 C55.53 689.1 55.53 689.1 55.53 689.1 C41.42 697.32 41.42 697.32 41.42 697.32 C27.09 689.1
							 27.09 689.1 27.09 689.1 C31.31 686.68 31.31 686.68 31.31 686.68 C37.88 690.46 37.88 690.46 37.88 690.46
							 C37.8 682.23 37.8 682.23 37.8 682.23 C35.16 681.7 32.59 680.95 30.4 679.74 C28.29 678.53 26.86 677.03
							 26.25 675.37 C12.07 675.37 12.07 675.37 12.07 675.37 C18.56 679.21 18.56 679.21 18.56 679.21 C14.33
							 681.63 14.33 681.63 14.33 681.63 C0 673.41 0 673.41 0 673.41 C14.26 665.18 14.26 665.18 14.26 665.18
							 C18.56 667.6 18.56 667.6 18.56 667.6 C12.07 671.44 12.07 671.44 12.07 671.44 C25.96 671.44 25.96 671.44
							 25.96 671.44 C26.49 669.63 27.92 667.9 30.41 666.47 C32.9 665.11 35.99 664.2 39.24 663.9 C39.24 655.98
							 39.24 655.98 39.24 655.98 C32.75 659.75 32.75 659.75 32.75 659.75 C28.52 657.33 28.52 657.33 28.52 657.33
							 C42.63 649.04 42.63 649.04 42.63 649.04 C56.97 657.33 56.97 657.33 56.97 657.33 C52.67 659.75 52.67
							 659.75 52.67 659.75 C46.25 655.98 46.25 655.98 46.25 655.98 C46.25 658.24 46.25 661.48 46.25 664.13
							 C48.82 664.5 51.23 665.33 53.27 666.47 C55.38 667.75 56.67 669.18 57.42 670.69 C71.3 670.69 71.3 670.69
							 71.3 670.69 C64.81 666.84 64.81 666.84 64.81 666.84 C69.04 664.43 69.04 664.43 69.04 664.43 C83.3 672.65
							 83.3 672.65 83.3 672.65 C69.11 680.88 69.11 680.88 69.11 680.88 C64.96 678.39 64.96 678.39 64.96 678.39
							 C71.38 674.61 71.38 674.61 71.38 674.61 C67.6 674.61 62.4 674.61 57.8 674.61 C57.34 676.5 55.83 678.31
							 53.34 679.74 C50.85 681.18 47.91 682.01 44.82 682.31 C44.82 690.46 44.82 690.46 44.82 690.46 C51.23
							 686.68 51.23 686.68 51.23 686.68 ZM35.91 676.5 C39.23 678.39 44.52 678.39 47.84 676.5 C51.08 674.61
							 51.08 671.6 47.76 669.71 C44.44 667.82 39.16 667.82 35.91 669.71 C32.6 671.6 32.67 674.61 35.91 676.5
							 Z" class="st1"/>
			</g>
			<g id="shape339-10" v:mID="339" v:groupContext="shape" transform="translate(15.6939,-27.7656)">
				<title>Лист.339</title>
				<path d="M51.23 686.68 C55.53 689.1 55.53 689.1 55.53 689.1 C41.42 697.32 41.42 697.32 41.42 697.32 C27.09 689.1
							 27.09 689.1 27.09 689.1 C31.31 686.68 31.31 686.68 31.31 686.68 C37.88 690.46 37.88 690.46 37.88 690.46
							 C37.8 682.23 37.8 682.23 37.8 682.23 C35.16 681.85 32.59 680.95 30.4 679.74 C28.29 678.53 26.86 677.03
							 26.25 675.52 C12.07 675.52 12.07 675.52 12.07 675.52 C18.56 679.21 18.56 679.21 18.56 679.21 C14.33
							 681.63 14.33 681.63 14.33 681.63 C0 673.41 0 673.41 0 673.41 C14.26 665.26 14.26 665.26 14.26 665.26
							 C18.56 667.6 18.56 667.6 18.56 667.6 C12.07 671.44 12.07 671.44 12.07 671.44 C25.96 671.44 25.96 671.44
							 25.96 671.44 C26.49 669.63 27.92 667.9 30.41 666.47 C32.9 665.11 35.99 664.2 39.24 663.9 C39.24 656.05
							 39.24 656.05 39.24 656.05 C32.75 659.75 32.75 659.75 32.75 659.75 C28.52 657.33 28.52 657.33 28.52 657.33
							 C42.63 649.03 42.63 649.03 42.63 649.03 C56.97 657.33 56.97 657.33 56.97 657.33 C52.66 659.75 52.66
							 659.75 52.66 659.75 C46.25 656.05 46.25 656.05 46.25 656.05 C46.25 658.24 46.25 661.48 46.25 664.13
							 C48.82 664.58 51.23 665.33 53.27 666.47 C55.38 667.75 56.67 669.18 57.42 670.69 C71.3 670.69 71.3 670.69
							 71.3 670.69 C64.81 666.84 64.81 666.84 64.81 666.84 C69.04 664.5 69.04 664.5 69.04 664.5 C83.3 672.65
							 83.3 672.65 83.3 672.65 C69.11 680.88 69.11 680.88 69.11 680.88 C64.96 678.39 64.96 678.39 64.96 678.39
							 C71.38 674.77 71.38 674.77 71.38 674.77 C67.6 674.77 62.4 674.77 57.8 674.77 C57.34 676.5 55.83 678.31
							 53.34 679.74 C50.85 681.18 47.91 682.01 44.82 682.38 C44.82 690.46 44.82 690.46 44.82 690.46 C51.23
							 686.68 51.23 686.68 51.23 686.68 ZM35.91 676.65 C39.23 678.53 44.52 678.53 47.84 676.65 C51.08 674.76
							 51.08 671.59 47.76 669.71 C44.44 667.82 39.16 667.82 35.91 669.71 C32.6 671.59 32.67 674.76 35.91 676.65
							 Z" class="st4"/>
			</g>
		</g>
		<g id="group340-12" transform="translate(26.5785,-491.004)" v:mID="340" v:groupContext="group">
			<title>Лист.340</title>
			<g id="shape341-13" v:mID="341" v:groupContext="shape" transform="translate(57.948,0)">
				<title>Лист.341</title>
				<path d="M57.94 646.62 L57.79 663.75 L0 697.32 L0 680.04 L57.94 646.62 Z" class="st1"/>
			</g>
			<g id="shape342-15" v:mID="342" v:groupContext="shape">
				<title>Лист.342</title>
				<path d="M57.95 680.04 L57.95 697.32 L0 663.75 L0.23 646.62 L57.95 680.04 Z" class="st2"/>
			</g>
			<g id="shape343-17" v:mID="343" v:groupContext="shape" transform="translate(0,-18.1086)">
				<title>Лист.343</title>
				<path d="M115.89 664.12 L58.1 697.32 L0 664.12 L57.65 630.93 L115.89 664.12 Z" class="st3"/>
			</g>
			<g id="shape344-19" v:mID="344" v:groupContext="shape" transform="translate(15.6939,-26.5603)">
				<title>Лист.344</title>
				<path d="M51.23 686.68 C55.53 689.1 55.53 689.1 55.53 689.1 C41.42 697.32 41.42 697.32 41.42 697.32 C27.09 689.1
							 27.09 689.1 27.09 689.1 C31.31 686.68 31.31 686.68 31.31 686.68 C37.88 690.46 37.88 690.46 37.88 690.46
							 C37.8 682.23 37.8 682.23 37.8 682.23 C35.16 681.7 32.59 680.95 30.4 679.74 C28.29 678.53 26.86 677.03
							 26.25 675.37 C12.07 675.37 12.07 675.37 12.07 675.37 C18.56 679.21 18.56 679.21 18.56 679.21 C14.33
							 681.63 14.33 681.63 14.33 681.63 C0 673.41 0 673.41 0 673.41 C14.26 665.18 14.26 665.18 14.26 665.18
							 C18.56 667.6 18.56 667.6 18.56 667.6 C12.07 671.44 12.07 671.44 12.07 671.44 C25.96 671.44 25.96 671.44
							 25.96 671.44 C26.49 669.63 27.92 667.9 30.41 666.47 C32.9 665.11 35.99 664.2 39.24 663.9 C39.24 655.98
							 39.24 655.98 39.24 655.98 C32.75 659.75 32.75 659.75 32.75 659.75 C28.52 657.33 28.52 657.33 28.52 657.33
							 C42.63 649.04 42.63 649.04 42.63 649.04 C56.97 657.33 56.97 657.33 56.97 657.33 C52.67 659.75 52.67
							 659.75 52.67 659.75 C46.25 655.98 46.25 655.98 46.25 655.98 C46.25 658.24 46.25 661.48 46.25 664.13
							 C48.82 664.5 51.23 665.33 53.27 666.47 C55.38 667.75 56.67 669.18 57.42 670.69 C71.3 670.69 71.3 670.69
							 71.3 670.69 C64.81 666.84 64.81 666.84 64.81 666.84 C69.04 664.43 69.04 664.43 69.04 664.43 C83.3 672.65
							 83.3 672.65 83.3 672.65 C69.11 680.88 69.11 680.88 69.11 680.88 C64.96 678.39 64.96 678.39 64.96 678.39
							 C71.38 674.61 71.38 674.61 71.38 674.61 C67.6 674.61 62.4 674.61 57.8 674.61 C57.34 676.5 55.83 678.31
							 53.34 679.74 C50.85 681.18 47.91 682.01 44.82 682.31 C44.82 690.46 44.82 690.46 44.82 690.46 C51.23
							 686.68 51.23 686.68 51.23 686.68 ZM35.91 676.5 C39.23 678.39 44.52 678.39 47.84 676.5 C51.08 674.61
							 51.08 671.6 47.76 669.71 C44.44 667.82 39.16 667.82 35.91 669.71 C32.6 671.6 32.67 674.61 35.91 676.5
							 Z" class="st1"/>
			</g>
			<g id="shape345-21" v:mID="345" v:groupContext="shape" transform="translate(15.6939,-27.7656)">
				<title>Лист.345</title>
				<path d="M51.23 686.68 C55.53 689.1 55.53 689.1 55.53 689.1 C41.42 697.32 41.42 697.32 41.42 697.32 C27.09 689.1
							 27.09 689.1 27.09 689.1 C31.31 686.68 31.31 686.68 31.31 686.68 C37.88 690.46 37.88 690.46 37.88 690.46
							 C37.8 682.23 37.8 682.23 37.8 682.23 C35.16 681.85 32.59 680.95 30.4 679.74 C28.29 678.53 26.86 677.03
							 26.25 675.52 C12.07 675.52 12.07 675.52 12.07 675.52 C18.56 679.21 18.56 679.21 18.56 679.21 C14.33
							 681.63 14.33 681.63 14.33 681.63 C0 673.41 0 673.41 0 673.41 C14.26 665.26 14.26 665.26 14.26 665.26
							 C18.56 667.6 18.56 667.6 18.56 667.6 C12.07 671.44 12.07 671.44 12.07 671.44 C25.96 671.44 25.96 671.44
							 25.96 671.44 C26.49 669.63 27.92 667.9 30.41 666.47 C32.9 665.11 35.99 664.2 39.24 663.9 C39.24 656.05
							 39.24 656.05 39.24 656.05 C32.75 659.75 32.75 659.75 32.75 659.75 C28.52 657.33 28.52 657.33 28.52 657.33
							 C42.63 649.03 42.63 649.03 42.63 649.03 C56.97 657.33 56.97 657.33 56.97 657.33 C52.66 659.75 52.66
							 659.75 52.66 659.75 C46.25 656.05 46.25 656.05 46.25 656.05 C46.25 658.24 46.25 661.48 46.25 664.13
							 C48.82 664.58 51.23 665.33 53.27 666.47 C55.38 667.75 56.67 669.18 57.42 670.69 C71.3 670.69 71.3 670.69
							 71.3 670.69 C64.81 666.84 64.81 666.84 64.81 666.84 C69.04 664.5 69.04 664.5 69.04 664.5 C83.3 672.65
							 83.3 672.65 83.3 672.65 C69.11 680.88 69.11 680.88 69.11 680.88 C64.96 678.39 64.96 678.39 64.96 678.39
							 C71.38 674.77 71.38 674.77 71.38 674.77 C67.6 674.77 62.4 674.77 57.8 674.77 C57.34 676.5 55.83 678.31
							 53.34 679.74 C50.85 681.18 47.91 682.01 44.82 682.38 C44.82 690.46 44.82 690.46 44.82 690.46 C51.23
							 686.68 51.23 686.68 51.23 686.68 ZM35.91 676.65 C39.23 678.53 44.52 678.53 47.84 676.65 C51.08 674.76
							 51.08 671.59 47.76 669.71 C44.44 667.82 39.16 667.82 35.91 669.71 C32.6 671.59 32.67 674.76 35.91 676.65
							 Z" class="st4"/>
			</g>
		</g>
		<g id="shape408-23" v:mID="408" v:groupContext="shape" transform="translate(785.061,204.453) rotate(90)">
			<title>Лист.408</title>
			<path d="M0 697.32 L304.55 697.32" class="st5"/>
		</g>
		<g id="shape409-26" v:mID="409" v:groupContext="shape" transform="translate(767.349,196.1) rotate(89.8375)">
			<title>Лист.409</title>
			<path d="M0 697.32 L317.23 697.32" class="st5"/>
		</g>
		<g id="shape417-29" v:mID="417" v:groupContext="shape" transform="translate(-614.593,492.445) rotate(-90)">
			<title>Лист.417</title>
			<desc>FGE1/0/53</desc>
			<v:textBlock v:margins="rect(4,4,4,4)" v:tabSpace="42.5197"/>
			<v:textRect cx="40.5499" cy="693.917" width="81.1" height="6.81102"/>
			<rect x="0" y="690.512" width="81.0998" height="6.81102" class="st6"/>
			<text x="9.9" y="698.12" class="st7" v:langID="1033"><v:paragraph v:horizAlign="1"/><v:tabList/>FGE1/0/53</text>		</g>
		<g id="shape418-32" v:mID="418" v:groupContext="shape" transform="translate(-632.904,492.445) rotate(-90)">
			<title>Лист.418</title>
			<desc>FGE1/0/54</desc>
			<v:textBlock v:margins="rect(4,4,4,4)" v:tabSpace="42.5197"/>
			<v:textRect cx="40.5499" cy="693.917" width="81.1" height="6.81102"/>
			<rect x="0" y="690.512" width="81.0998" height="6.81102" class="st6"/>
			<text x="9.9" y="698.12" class="st7" v:langID="1033"><v:paragraph v:horizAlign="1"/><v:tabList/>FGE1/0/54</text>		</g>
		<g id="shape419-35" v:mID="419" v:groupContext="shape" transform="translate(-615.05,288.585) rotate(-90)">
			<title>Лист.419</title>
			<desc>FGE1/0/53</desc>
			<v:textBlock v:margins="rect(4,4,4,4)" v:tabSpace="42.5197"/>
			<v:textRect cx="40.5499" cy="693.917" width="81.1" height="6.81102"/>
			<rect x="0" y="690.512" width="81.0998" height="6.81102" class="st6"/>
			<text x="9.9" y="698.12" class="st7" v:langID="1033"><v:paragraph v:horizAlign="1"/><v:tabList/>FGE1/0/53</text>		</g>
		<g id="shape420-38" v:mID="420" v:groupContext="shape" transform="translate(-632.881,289.386) rotate(-90)">
			<title>Лист.420</title>
			<desc>FGE1/0/54</desc>
			<v:textBlock v:margins="rect(4,4,4,4)" v:tabSpace="42.5197"/>
			<v:textRect cx="40.5499" cy="693.917" width="81.1" height="6.81102"/>
			<rect x="0" y="690.512" width="81.0998" height="6.81102" class="st6"/>
			<text x="9.9" y="698.12" class="st7" v:langID="1033"><v:paragraph v:horizAlign="1"/><v:tabList/>FGE1/0/54</text>		</g>
		<g id="shape422-41" v:mID="422" v:groupContext="shape" transform="translate(-449.072,578.898) rotate(55.3946) scale(1,-1)">
			<title>Лист.422</title>
			<path d="M0 697.32 L427.66 697.32" class="st5"/>
		</g>
		<g id="shape426-44" v:mID="426" v:groupContext="shape" transform="translate(18,-604.687)">
			<title>Лист.426</title>
			<desc>DSW2</desc>
			<v:textBlock v:margins="rect(4,4,4,4)" v:tabSpace="42.5197"/>
			<v:textRect cx="66.5244" cy="676.127" width="133.05" height="42.3919"/>
			<rect x="0" y="654.931" width="133.049" height="42.3919" class="st6"/>
			<text x="36.33" y="683.33" class="st8" v:langID="1033"><v:paragraph v:horizAlign="1"/><v:tabList/>DSW2</text>		</g>
		<g id="shape461-47" v:mID="461" v:groupContext="shape" transform="translate(131.499,-124.154)">
			<title>Лист.461</title>
			<desc>XGE1/0/50</desc>
			<v:textBlock v:margins="rect(4,4,4,4)" v:tabSpace="42.5197"/>
			<v:textRect cx="40.5499" cy="693.917" width="81.1" height="6.81102"/>
			<rect x="0" y="690.512" width="81.0998" height="6.81102" class="st6"/>
			<text x="9.48" y="698.12" class="st7" v:langID="1033"><v:paragraph v:horizAlign="1"/><v:tabList/>XGE1/0/50</text>		</g>
		<g id="group462-50" transform="translate(351.962,-103.275)" v:mID="462" v:groupContext="group">
			<title>Лист.462</title>
			<g id="shape463-51" v:mID="463" v:groupContext="shape" transform="translate(57.948,0)">
				<title>Лист.463</title>
				<path d="M57.94 646.62 L57.94 663.82 L0 697.32 L0 680.42 L57.94 646.62 Z" class="st1"/>
			</g>
			<g id="shape464-53" v:mID="464" v:groupContext="shape">
				<title>Лист.464</title>
				<path d="M57.95 680.42 L57.95 697.32 L0 663.82 L0 646.62 L57.95 680.42 Z" class="st2"/>
			</g>
			<g id="shape465-55" v:mID="465" v:groupContext="shape" transform="translate(0,-16.9012)">
				<title>Лист.465</title>
				<path d="M115.89 664.12 L58.17 697.32 L0 664.12 L57.8 630.93 L115.89 664.12 Z" class="st3"/>
			</g>
			<g id="shape466-57" v:mID="466" v:groupContext="shape" transform="translate(41.0425,-56.7364)">
				<title>Лист.466</title>
				<path d="M12.83 692.04 C12.68 679.29 12.68 679.29 12.68 679.29 C12.68 677.93 14.57 676.8 16.83 676.8 C18.04 676.8
							 19.09 677.1 19.77 677.63 C20.6 678 21.05 678.61 21.05 679.29 C21.13 692.04 21.13 692.04 21.13 692.04
							 C28.82 687.66 28.82 687.66 28.82 687.66 C33.8 690.46 33.8 690.46 33.8 690.46 C21.96 697.32 21.96 697.32
							 21.96 697.32 C20.37 696.95 18.64 696.79 16.75 696.79 C14.94 696.79 13.43 696.95 11.85 697.25 C0 690.46
							 0 690.46 0 690.46 C5.06 687.66 5.06 687.66 5.06 687.66 C12.83 692.04 12.83 692.04 12.83 692.04 Z"
						class="st1"/>
			</g>
			<g id="shape467-59" v:mID="467" v:groupContext="shape" transform="translate(50.7037,-44.6689)">
				<title>Лист.467</title>
				<path d="M14.49 693.1 C14.49 695.44 11.32 697.32 7.32 697.32 C5.28 697.32 3.47 696.87 2.19 696.12 C0.83 695.28 0
							 694.3 0 693.1 C0 690.83 3.24 688.87 7.24 688.87 C9.28 688.87 11.09 689.4 12.37 690.16 C13.73 690.91
							 14.49 691.97 14.49 693.1 Z" class="st1"/>
			</g>
			<g id="shape468-61" v:mID="468" v:groupContext="shape" transform="translate(10.8665,-39.8394)">
				<title>Лист.468</title>
				<path d="M35.01 684.57 C34.1 685.63 33.5 686.91 33.5 688.12 C33.5 689.18 33.87 690.31 34.55 691.14 C23.84 697.32
							 23.84 697.32 23.84 697.32 C18.86 694.46 18.86 694.46 18.86 694.46 C26.48 690.08 26.48 690.08 26.48 690.08
							 C4.22 690.08 4.22 690.08 4.22 690.08 C3.09 690.08 1.96 689.78 1.28 689.4 C0.53 688.95 0 688.35 0 687.74
							 C0 686.38 1.89 685.33 4.15 685.33 C26.48 685.33 26.48 685.33 26.48 685.33 C18.79 680.87 18.79 680.87
							 18.79 680.87 C23.77 678.01 23.77 678.01 23.77 678.01 C35.01 684.57 35.01 684.57 35.01 684.57 Z"
						class="st1"/>
			</g>
			<g id="shape469-63" v:mID="469" v:groupContext="shape" transform="translate(71.2293,-38.6299)">
				<title>Лист.469</title>
				<path d="M0.22 690.15 C0.68 689.25 0.98 688.34 0.98 687.21 C0.98 686.15 0.68 685.02 0 684.12 C11.62 676.8 11.62 676.8
							 11.62 676.8 C16.52 679.89 16.52 679.89 16.52 679.89 C9.05 684.64 9.05 684.64 9.05 684.64 C31.01 684.64
							 31.01 684.64 31.01 684.64 C32.07 684.64 33.12 684.87 33.88 685.32 C34.55 685.77 35.01 686.38 35.01 687.06
							 C35.01 688.57 33.2 689.62 31.01 689.62 C9.05 689.62 9.05 689.62 9.05 689.62 C16.6 694.3 16.6 694.3 16.6
							 694.3 C11.77 697.32 11.77 697.32 11.77 697.32 C0.22 690.15 0.22 690.15 0.22 690.15 Z" class="st1"/>
			</g>
			<g id="shape470-65" v:mID="470" v:groupContext="shape" transform="translate(42.252,-21.7308)">
				<title>Лист.470</title>
				<path d="M21.05 682.76 C21.13 695.14 21.13 695.14 21.13 695.14 C21.13 696.34 19.31 697.32 17.05 697.32 C15.85 697.32
							 14.86 697.17 14.11 696.72 C13.28 696.34 12.83 695.81 12.83 695.14 C12.83 682.76 12.83 682.76 12.83 682.76
							 C5.06 687.06 5.06 687.06 5.06 687.06 C0 684.27 0 684.27 0 684.27 C10.86 678.31 10.86 678.31 10.86 678.31
							 C12.45 678.69 14.18 678.91 16.07 678.91 C18.33 678.91 20.45 678.61 22.41 678.01 C33.8 684.27 33.8 684.27
							 33.8 684.27 C28.82 687.07 28.82 687.07 28.82 687.07 C21.05 682.76 21.05 682.76 21.05 682.76 Z"
						class="st1"/>
			</g>
			<g id="shape471-67" v:mID="471" v:groupContext="shape" transform="translate(41.0425,-56.7406)">
				<title>Лист.471</title>
				<path d="M12.83 692.12 C12.68 679.14 12.68 679.14 12.68 679.14 C12.68 677.93 14.57 676.8 16.83 676.8 C18.04 676.8
							 19.09 677.03 19.77 677.48 C20.6 677.93 21.05 678.46 21.05 679.14 C21.13 692.12 21.13 692.12 21.13 692.12
							 C28.82 687.66 28.82 687.66 28.82 687.66 C33.8 690.53 33.8 690.53 33.8 690.53 C21.96 697.32 21.96 697.32
							 21.96 697.32 C20.37 696.95 18.64 696.79 16.75 696.79 C14.94 696.79 13.43 696.95 11.85 697.25 C0 690.53
							 0 690.53 0 690.53 C5.06 687.66 5.06 687.66 5.06 687.66 C12.83 692.12 12.83 692.12 12.83 692.12 Z"
						class="st4"/>
			</g>
			<g id="shape472-69" v:mID="472" v:groupContext="shape" transform="translate(50.7037,-45.8742)">
				<title>Лист.472</title>
				<path d="M14.49 693.78 C14.49 695.81 11.32 697.32 7.32 697.32 C5.28 697.32 3.47 697.02 2.19 696.34 C0.83 695.66 0
							 694.76 0 693.78 C0 691.74 3.24 690.08 7.24 690.08 C9.28 690.08 11.09 690.53 12.37 691.29 C13.73 691.89
							 14.49 692.72 14.49 693.78 Z" class="st4"/>
			</g>
			<g id="shape473-71" v:mID="473" v:groupContext="shape" transform="translate(10.8665,-39.8394)">
				<title>Лист.473</title>
				<path d="M35.01 684.5 C34.1 685.55 33.5 686.84 33.5 688.19 C33.5 689.25 33.87 690.23 34.55 691.21 C23.84 697.32 23.84
							 697.32 23.84 697.32 C18.86 694.46 18.86 694.46 18.86 694.46 C26.48 690 26.48 690 26.48 690 C4.22 690
							 4.22 690 4.22 690 C3.09 690 1.96 689.85 1.28 689.32 C0.53 688.95 0 688.35 0 687.67 C0 686.38 1.89 685.25
							 4.15 685.25 C26.48 685.25 26.48 685.25 26.48 685.25 C18.79 680.95 18.79 680.95 18.79 680.95 C23.77 678.01
							 23.77 678.01 23.77 678.01 C35.01 684.5 35.01 684.5 35.01 684.5 Z" class="st4"/>
			</g>
			<g id="shape474-73" v:mID="474" v:groupContext="shape" transform="translate(71.2293,-39.8394)">
				<title>Лист.474</title>
				<path d="M0.22 690.68 C0.68 689.78 0.98 688.8 0.98 687.82 C0.98 686.76 0.68 685.78 0 684.87 C11.62 678.01 11.62 678.01
							 11.62 678.01 C16.52 680.95 16.52 680.95 16.52 680.95 C9.05 685.33 9.05 685.33 9.05 685.33 C31.01 685.33
							 31.01 685.33 31.01 685.33 C32.07 685.33 33.12 685.63 33.88 686 C34.55 686.46 35.01 687.06 35.01 687.74
							 C35.01 689.02 33.2 690.08 31.01 690.08 C9.05 690.08 9.05 690.08 9.05 690.08 C16.6 694.53 16.6 694.53
							 16.6 694.53 C11.77 697.32 11.77 697.32 11.77 697.32 C0.22 690.68 0.22 690.68 0.22 690.68 Z"
						class="st4"/>
			</g>
			<g id="shape475-75" v:mID="475" v:groupContext="shape" transform="translate(42.252,-21.7308)">
				<title>Лист.475</title>
				<path d="M21.05 681.85 C21.13 694.91 21.13 694.91 21.13 694.91 C21.13 696.27 19.31 697.32 17.05 697.32 C15.85 697.32
							 14.86 697.1 14.11 696.57 C13.28 696.19 12.83 695.59 12.83 694.91 C12.83 681.86 12.83 681.86 12.83 681.86
							 C5.06 686.31 5.06 686.31 5.06 686.31 C0 683.44 0 683.44 0 683.44 C10.86 677.1 10.86 677.1 10.86 677.1
							 C12.45 677.56 14.18 677.71 16.07 677.71 C18.33 677.71 20.45 677.33 22.41 676.8 C33.8 683.44 33.8 683.44
							 33.8 683.44 C28.82 686.31 28.82 686.31 28.82 686.31 C21.05 681.85 21.05 681.85 21.05 681.85 Z"
						class="st4"/>
			</g>
		</g>
		<g id="group476-77" transform="translate(351.962,-491.318)" v:mID="476" v:groupContext="group">
			<title>Лист.476</title>
			<g id="shape477-78" v:mID="477" v:groupContext="shape" transform="translate(57.948,0)">
				<title>Лист.477</title>
				<path d="M57.94 646.62 L57.94 663.82 L0 697.32 L0 680.42 L57.94 646.62 Z" class="st1"/>
			</g>
			<g id="shape478-80" v:mID="478" v:groupContext="shape">
				<title>Лист.478</title>
				<path d="M57.95 680.42 L57.95 697.32 L0 663.82 L0 646.62 L57.95 680.42 Z" class="st2"/>
			</g>
			<g id="shape479-82" v:mID="479" v:groupContext="shape" transform="translate(0,-16.9012)">
				<title>Лист.479</title>
				<path d="M115.89 664.12 L58.17 697.32 L0 664.12 L57.8 630.93 L115.89 664.12 Z" class="st3"/>
			</g>
			<g id="shape480-84" v:mID="480" v:groupContext="shape" transform="translate(41.0425,-56.7364)">
				<title>Лист.480</title>
				<path d="M12.83 692.04 C12.68 679.29 12.68 679.29 12.68 679.29 C12.68 677.93 14.57 676.8 16.83 676.8 C18.04 676.8
							 19.09 677.1 19.77 677.63 C20.6 678 21.05 678.61 21.05 679.29 C21.13 692.04 21.13 692.04 21.13 692.04
							 C28.82 687.66 28.82 687.66 28.82 687.66 C33.8 690.46 33.8 690.46 33.8 690.46 C21.96 697.32 21.96 697.32
							 21.96 697.32 C20.37 696.95 18.64 696.79 16.75 696.79 C14.94 696.79 13.43 696.95 11.85 697.25 C0 690.46
							 0 690.46 0 690.46 C5.06 687.66 5.06 687.66 5.06 687.66 C12.83 692.04 12.83 692.04 12.83 692.04 Z"
						class="st1"/>
			</g>
			<g id="shape481-86" v:mID="481" v:groupContext="shape" transform="translate(50.7037,-44.6689)">
				<title>Лист.481</title>
				<path d="M14.49 693.1 C14.49 695.44 11.32 697.32 7.32 697.32 C5.28 697.32 3.47 696.87 2.19 696.12 C0.83 695.28 0
							 694.3 0 693.1 C0 690.83 3.24 688.87 7.24 688.87 C9.28 688.87 11.09 689.4 12.37 690.16 C13.73 690.91
							 14.49 691.97 14.49 693.1 Z" class="st1"/>
			</g>
			<g id="shape482-88" v:mID="482" v:groupContext="shape" transform="translate(10.8665,-39.8394)">
				<title>Лист.482</title>
				<path d="M35.01 684.57 C34.1 685.63 33.5 686.91 33.5 688.12 C33.5 689.18 33.87 690.31 34.55 691.14 C23.84 697.32
							 23.84 697.32 23.84 697.32 C18.86 694.46 18.86 694.46 18.86 694.46 C26.48 690.08 26.48 690.08 26.48 690.08
							 C4.22 690.08 4.22 690.08 4.22 690.08 C3.09 690.08 1.96 689.78 1.28 689.4 C0.53 688.95 0 688.35 0 687.74
							 C0 686.38 1.89 685.33 4.15 685.33 C26.48 685.33 26.48 685.33 26.48 685.33 C18.79 680.87 18.79 680.87
							 18.79 680.87 C23.77 678.01 23.77 678.01 23.77 678.01 C35.01 684.57 35.01 684.57 35.01 684.57 Z"
						class="st1"/>
			</g>
			<g id="shape483-90" v:mID="483" v:groupContext="shape" transform="translate(71.2293,-38.6299)">
				<title>Лист.483</title>
				<path d="M0.22 690.15 C0.68 689.25 0.98 688.34 0.98 687.21 C0.98 686.15 0.68 685.02 0 684.12 C11.62 676.8 11.62 676.8
							 11.62 676.8 C16.52 679.89 16.52 679.89 16.52 679.89 C9.05 684.64 9.05 684.64 9.05 684.64 C31.01 684.64
							 31.01 684.64 31.01 684.64 C32.07 684.64 33.12 684.87 33.88 685.32 C34.55 685.77 35.01 686.38 35.01 687.06
							 C35.01 688.57 33.2 689.62 31.01 689.62 C9.05 689.62 9.05 689.62 9.05 689.62 C16.6 694.3 16.6 694.3 16.6
							 694.3 C11.77 697.32 11.77 697.32 11.77 697.32 C0.22 690.15 0.22 690.15 0.22 690.15 Z" class="st1"/>
			</g>
			<g id="shape484-92" v:mID="484" v:groupContext="shape" transform="translate(42.252,-21.7308)">
				<title>Лист.484</title>
				<path d="M21.05 682.76 C21.13 695.14 21.13 695.14 21.13 695.14 C21.13 696.34 19.31 697.32 17.05 697.32 C15.85 697.32
							 14.86 697.17 14.11 696.72 C13.28 696.34 12.83 695.81 12.83 695.14 C12.83 682.76 12.83 682.76 12.83 682.76
							 C5.06 687.06 5.06 687.06 5.06 687.06 C0 684.27 0 684.27 0 684.27 C10.86 678.31 10.86 678.31 10.86 678.31
							 C12.45 678.69 14.18 678.91 16.07 678.91 C18.33 678.91 20.45 678.61 22.41 678.01 C33.8 684.27 33.8 684.27
							 33.8 684.27 C28.82 687.07 28.82 687.07 28.82 687.07 C21.05 682.76 21.05 682.76 21.05 682.76 Z"
						class="st1"/>
			</g>
			<g id="shape485-94" v:mID="485" v:groupContext="shape" transform="translate(41.0425,-56.7406)">
				<title>Лист.485</title>
				<path d="M12.83 692.12 C12.68 679.14 12.68 679.14 12.68 679.14 C12.68 677.93 14.57 676.8 16.83 676.8 C18.04 676.8
							 19.09 677.03 19.77 677.48 C20.6 677.93 21.05 678.46 21.05 679.14 C21.13 692.12 21.13 692.12 21.13 692.12
							 C28.82 687.66 28.82 687.66 28.82 687.66 C33.8 690.53 33.8 690.53 33.8 690.53 C21.96 697.32 21.96 697.32
							 21.96 697.32 C20.37 696.95 18.64 696.79 16.75 696.79 C14.94 696.79 13.43 696.95 11.85 697.25 C0 690.53
							 0 690.53 0 690.53 C5.06 687.66 5.06 687.66 5.06 687.66 C12.83 692.12 12.83 692.12 12.83 692.12 Z"
						class="st4"/>
			</g>
			<g id="shape486-96" v:mID="486" v:groupContext="shape" transform="translate(50.7037,-45.8742)">
				<title>Лист.486</title>
				<path d="M14.49 693.78 C14.49 695.81 11.32 697.32 7.32 697.32 C5.28 697.32 3.47 697.02 2.19 696.34 C0.83 695.66 0
							 694.76 0 693.78 C0 691.74 3.24 690.08 7.24 690.08 C9.28 690.08 11.09 690.53 12.37 691.29 C13.73 691.89
							 14.49 692.72 14.49 693.78 Z" class="st4"/>
			</g>
			<g id="shape487-98" v:mID="487" v:groupContext="shape" transform="translate(10.8665,-39.8394)">
				<title>Лист.487</title>
				<path d="M35.01 684.5 C34.1 685.55 33.5 686.84 33.5 688.19 C33.5 689.25 33.87 690.23 34.55 691.21 C23.84 697.32 23.84
							 697.32 23.84 697.32 C18.86 694.46 18.86 694.46 18.86 694.46 C26.48 690 26.48 690 26.48 690 C4.22 690
							 4.22 690 4.22 690 C3.09 690 1.96 689.85 1.28 689.32 C0.53 688.95 0 688.35 0 687.67 C0 686.38 1.89 685.25
							 4.15 685.25 C26.48 685.25 26.48 685.25 26.48 685.25 C18.79 680.95 18.79 680.95 18.79 680.95 C23.77 678.01
							 23.77 678.01 23.77 678.01 C35.01 684.5 35.01 684.5 35.01 684.5 Z" class="st4"/>
			</g>
			<g id="shape488-100" v:mID="488" v:groupContext="shape" transform="translate(71.2293,-39.8394)">
				<title>Лист.488</title>
				<path d="M0.22 690.68 C0.68 689.78 0.98 688.8 0.98 687.82 C0.98 686.76 0.68 685.78 0 684.87 C11.62 678.01 11.62 678.01
							 11.62 678.01 C16.52 680.95 16.52 680.95 16.52 680.95 C9.05 685.33 9.05 685.33 9.05 685.33 C31.01 685.33
							 31.01 685.33 31.01 685.33 C32.07 685.33 33.12 685.63 33.88 686 C34.55 686.46 35.01 687.06 35.01 687.74
							 C35.01 689.02 33.2 690.08 31.01 690.08 C9.05 690.08 9.05 690.08 9.05 690.08 C16.6 694.53 16.6 694.53
							 16.6 694.53 C11.77 697.32 11.77 697.32 11.77 697.32 C0.22 690.68 0.22 690.68 0.22 690.68 Z"
						class="st4"/>
			</g>
			<g id="shape489-102" v:mID="489" v:groupContext="shape" transform="translate(42.252,-21.7308)">
				<title>Лист.489</title>
				<path d="M21.05 681.85 C21.13 694.91 21.13 694.91 21.13 694.91 C21.13 696.27 19.31 697.32 17.05 697.32 C15.85 697.32
							 14.86 697.1 14.11 696.57 C13.28 696.19 12.83 695.59 12.83 694.91 C12.83 681.86 12.83 681.86 12.83 681.86
							 C5.06 686.31 5.06 686.31 5.06 686.31 C0 683.44 0 683.44 0 683.44 C10.86 677.1 10.86 677.1 10.86 677.1
							 C12.45 677.56 14.18 677.71 16.07 677.71 C18.33 677.71 20.45 677.33 22.41 676.8 C33.8 683.44 33.8 683.44
							 33.8 683.44 C28.82 686.31 28.82 686.31 28.82 686.31 C21.05 681.85 21.05 681.85 21.05 681.85 Z"
						class="st4"/>
			</g>
		</g>
		<g id="group496-104" transform="translate(637.034,-483.003)" v:mID="496" v:groupContext="group">
			<title>Лист.496</title>
			<g id="shape497-105" v:mID="497" v:groupContext="shape" transform="translate(22.1779,-2.20087)">
				<title>Лист.497</title>
				<path d="M0.13 643.18 L38.3 619.71 L38.18 673.86 L0 697.32 L0.13 643.18 Z" class="st1"/>
			</g>
			<g id="shape498-107" v:mID="498" v:groupContext="shape" transform="translate(2.81317,-56.3437)">
				<title>Лист.498</title>
				<path d="M0 685.45 L38.25 662.05 L57.67 673.85 L19.49 697.32 L0 685.45 Z" class="st3"/>
			</g>
			<g id="shape499-109" v:mID="499" v:groupContext="shape" transform="translate(2.68779,-2.20087)">
				<title>Лист.499</title>
				<path d="M19.62 643.18 L19.49 697.32 L0 685.45 L0.13 631.3 L19.62 643.18 Z" class="st9"/>
			</g>
			<g id="shape500-111" v:mID="500" v:groupContext="shape" transform="translate(5.02256,-11.9551)">
				<title>Лист.500</title>
				<path d="M0 696.13 L1.95 694.92 L1.95 696.2 L0 697.32 L0 696.13 Z" class="st1"/>
			</g>
			<g id="shape501-113" v:mID="501" v:groupContext="shape" transform="translate(5.02256,-14.2886)">
				<title>Лист.501</title>
				<path d="M0 696.13 L1.95 694.92 L1.95 696.2 L0 697.32 L0 696.13 Z" class="st1"/>
			</g>
			<g id="shape502-115" v:mID="502" v:groupContext="shape" transform="translate(5.02256,-16.6209)">
				<title>Лист.502</title>
				<path d="M0.08 696.13 L1.95 694.92 L1.95 696.2 L0 697.32 L0.08 696.13 Z" class="st1"/>
			</g>
			<g id="shape503-117" v:mID="503" v:groupContext="shape" transform="translate(5.09925,-18.9533)">
				<title>Лист.503</title>
				<path d="M0 696.13 L1.87 694.92 L1.87 696.2 L0 697.32 L0 696.13 Z" class="st1"/>
			</g>
			<g id="shape504-119" v:mID="504" v:groupContext="shape" transform="translate(5.09925,-21.2856)">
				<title>Лист.504</title>
				<path d="M0 696.13 L1.87 694.92 L1.87 696.2 L0 697.32 L0 696.13 Z" class="st1"/>
			</g>
			<g id="shape505-121" v:mID="505" v:groupContext="shape" transform="translate(5.09925,-23.6192)">
				<title>Лист.505</title>
				<path d="M0 696.13 L1.87 694.92 L1.87 696.2 L0 697.32 L0 696.13 Z" class="st1"/>
			</g>
			<g id="shape506-123" v:mID="506" v:groupContext="shape" transform="translate(19.4913,0)">
				<title>Лист.506</title>
				<path d="M0 694.21 L1.88 693 L1.88 696.18 L0 697.32 L0 694.21 Z" class="st1"/>
			</g>
			<g id="shape507-125" v:mID="507" v:groupContext="shape" transform="translate(5.02256,-3.11506)">
				<title>Лист.507</title>
				<path d="M0 688.48 L1.95 687.36 L16.35 696.12 L14.47 697.32 L0 688.48 Z" class="st3"/>
			</g>
			<g id="shape508-127" v:mID="508" v:groupContext="shape" transform="translate(5.02256,-5.44739)">
				<title>Лист.508</title>
				<path d="M0 688.48 L1.95 687.36 L16.35 696.12 L14.47 697.32 L0 688.48 Z" class="st3"/>
			</g>
			<g id="shape509-129" v:mID="509" v:groupContext="shape" transform="translate(19.4913,-4.38835)">
				<title>Лист.509</title>
				<path d="M0 696.26 L1.88 695.06 L1.88 696.12 L0 697.32 L0 696.26 Z" class="st1"/>
			</g>
			<g id="shape510-131" v:mID="510" v:groupContext="shape" transform="translate(5.02256,-7.77973)">
				<title>Лист.510</title>
				<path d="M0 688.48 L1.95 687.36 L16.35 696.12 L14.47 697.32 L0 688.48 Z" class="st3"/>
			</g>
			<g id="shape511-133" v:mID="511" v:groupContext="shape" transform="translate(19.4913,-6.72068)">
				<title>Лист.511</title>
				<path d="M0 696.26 L1.88 695.06 L1.88 696.12 L0 697.32 L0 696.26 Z" class="st1"/>
			</g>
			<g id="shape512-135" v:mID="512" v:groupContext="shape" transform="translate(19.4913,-9.05302)">
				<title>Лист.512</title>
				<path d="M0 696.26 L1.95 695.06 L1.88 696.12 L0 697.32 L0 696.26 Z" class="st1"/>
			</g>
			<g id="shape513-137" v:mID="513" v:groupContext="shape" transform="translate(5.09925,-10.1133)">
				<title>Лист.513</title>
				<path d="M0 688.48 L1.87 687.36 L16.34 696.12 L14.39 697.32 L0 688.48 Z" class="st3"/>
			</g>
			<g id="shape514-139" v:mID="514" v:groupContext="shape" transform="translate(19.4913,-11.3866)">
				<title>Лист.514</title>
				<path d="M0 696.26 L1.95 695.06 L1.95 696.12 L0 697.32 L0 696.26 Z" class="st1"/>
			</g>
			<g id="shape515-141" v:mID="515" v:groupContext="shape" transform="translate(5.09925,-12.4456)">
				<title>Лист.515</title>
				<path d="M0 688.48 L1.87 687.36 L16.34 696.12 L14.39 697.32 L0 688.48 Z" class="st3"/>
			</g>
			<g id="shape516-143" v:mID="516" v:groupContext="shape" transform="translate(19.4913,-13.7189)">
				<title>Лист.516</title>
				<path d="M0 696.26 L1.95 695.06 L1.95 696.12 L0 697.32 L0 696.26 Z" class="st1"/>
			</g>
			<g id="shape517-145" v:mID="517" v:groupContext="shape" transform="translate(5.09925,-14.778)">
				<title>Лист.517</title>
				<path d="M0 688.48 L1.87 687.36 L16.34 696.12 L14.39 697.32 L0 688.48 Z" class="st3"/>
			</g>
			<g id="shape518-147" v:mID="518" v:groupContext="shape" transform="translate(2.68779,-55.1374)">
				<title>Лист.518</title>
				<path d="M0 695.27 L1.87 694.14 L1.87 696.12 L0 697.32 L0 695.27 Z" class="st1"/>
			</g>
			<g id="shape519-149" v:mID="519" v:groupContext="shape" transform="translate(2.68779,-46.3765)">
				<title>Лист.519</title>
				<path d="M0 688.56 L1.87 687.36 L16.28 696.12 L14.39 697.32 L0 688.56 Z" class="st3"/>
			</g>
			<g id="shape520-151" v:mID="520" v:groupContext="shape" transform="translate(19.4913,-16.0512)">
				<title>Лист.520</title>
				<path d="M0.14 665.3 L2.01 664.17 L1.95 696.2 L0 697.32 L0.14 665.3 Z" class="st1"/>
			</g>
			<g id="shape521-153" v:mID="521" v:groupContext="shape" transform="translate(0.138772,-48.0722)">
				<title>Лист.521</title>
				<path d="M0 685.51 L1.95 684.32 L21.36 696.2 L19.49 697.32 L0 685.51 Z" class="st3"/>
			</g>
			<g id="shape522-155" v:mID="522" v:groupContext="shape">
				<title>Лист.522</title>
				<path d="M19.49 681.27 L5.1 672.51 L5.1 673.7 L19.49 682.54 L19.49 683.6 L5.1 674.84 L5.1 676.04 L19.49 684.88 L19.49
							 685.94 L5.1 677.18 L5.1 678.37 L19.49 687.21 L19.49 688.27 L5.1 679.51 L5.02 680.7 L19.49 689.54 L19.49
							 690.6 L5.02 681.84 L5.02 683.03 L19.49 691.88 L19.49 692.93 L5.02 684.17 L5.02 685.37 L19.49 694.21
							 L19.49 697.32 L0 685.51 L0.14 637.44 L19.63 649.25 L19.49 681.27 ZM2.69 642.19 L17.08 650.95 L17.08
							 648.97 L2.69 640.13 L2.69 642.19 Z" class="st2"/>
			</g>
			<g id="shape523-157" v:mID="523" v:groupContext="shape" transform="translate(19.5668,-48.7088)">
				<title>Лист.523</title>
				<path d="M0 691.24 L1.87 690.05 L1.87 696.2 L0 697.32 L0 691.24 Z" class="st1"/>
			</g>
			<g id="shape524-159" v:mID="524" v:groupContext="shape" transform="translate(0.200854,-54.7941)">
				<title>Лист.524</title>
				<path d="M0 685.53 L1.95 684.39 L21.24 696.13 L19.37 697.32 L0 685.53 Z" class="st3"/>
			</g>
			<g id="shape525-161" v:mID="525" v:groupContext="shape" transform="translate(0.200854,-48.7088)">
				<title>Лист.525</title>
				<path d="M19.37 691.24 L19.37 697.32 L0 685.59 L0 679.44 L19.37 691.24 Z" class="st2"/>
			</g>
		</g>
		<g id="group526-163" transform="translate(637.034,-99.1176)" v:mID="526" v:groupContext="group">
			<title>Лист.526</title>
			<g id="shape527-164" v:mID="527" v:groupContext="shape" transform="translate(22.1779,-2.20087)">
				<title>Лист.527</title>
				<path d="M0.13 643.18 L38.3 619.71 L38.18 673.86 L0 697.32 L0.13 643.18 Z" class="st1"/>
			</g>
			<g id="shape528-166" v:mID="528" v:groupContext="shape" transform="translate(2.81317,-56.3437)">
				<title>Лист.528</title>
				<path d="M0 685.45 L38.25 662.05 L57.67 673.85 L19.49 697.32 L0 685.45 Z" class="st3"/>
			</g>
			<g id="shape529-168" v:mID="529" v:groupContext="shape" transform="translate(2.68779,-2.20087)">
				<title>Лист.529</title>
				<path d="M19.62 643.18 L19.49 697.32 L0 685.45 L0.13 631.3 L19.62 643.18 Z" class="st9"/>
			</g>
			<g id="shape530-170" v:mID="530" v:groupContext="shape" transform="translate(5.02256,-11.9551)">
				<title>Лист.530</title>
				<path d="M0 696.13 L1.95 694.92 L1.95 696.2 L0 697.32 L0 696.13 Z" class="st1"/>
			</g>
			<g id="shape531-172" v:mID="531" v:groupContext="shape" transform="translate(5.02256,-14.2886)">
				<title>Лист.531</title>
				<path d="M0 696.13 L1.95 694.92 L1.95 696.2 L0 697.32 L0 696.13 Z" class="st1"/>
			</g>
			<g id="shape532-174" v:mID="532" v:groupContext="shape" transform="translate(5.02256,-16.6209)">
				<title>Лист.532</title>
				<path d="M0.08 696.13 L1.95 694.92 L1.95 696.2 L0 697.32 L0.08 696.13 Z" class="st1"/>
			</g>
			<g id="shape533-176" v:mID="533" v:groupContext="shape" transform="translate(5.09925,-18.9533)">
				<title>Лист.533</title>
				<path d="M0 696.13 L1.87 694.92 L1.87 696.2 L0 697.32 L0 696.13 Z" class="st1"/>
			</g>
			<g id="shape534-178" v:mID="534" v:groupContext="shape" transform="translate(5.09925,-21.2856)">
				<title>Лист.534</title>
				<path d="M0 696.13 L1.87 694.92 L1.87 696.2 L0 697.32 L0 696.13 Z" class="st1"/>
			</g>
			<g id="shape535-180" v:mID="535" v:groupContext="shape" transform="translate(5.09925,-23.6192)">
				<title>Лист.535</title>
				<path d="M0 696.13 L1.87 694.92 L1.87 696.2 L0 697.32 L0 696.13 Z" class="st1"/>
			</g>
			<g id="shape536-182" v:mID="536" v:groupContext="shape" transform="translate(19.4913,0)">
				<title>Лист.536</title>
				<path d="M0 694.21 L1.88 693 L1.88 696.18 L0 697.32 L0 694.21 Z" class="st1"/>
			</g>
			<g id="shape537-184" v:mID="537" v:groupContext="shape" transform="translate(5.02256,-3.11506)">
				<title>Лист.537</title>
				<path d="M0 688.48 L1.95 687.36 L16.35 696.12 L14.47 697.32 L0 688.48 Z" class="st3"/>
			</g>
			<g id="shape538-186" v:mID="538" v:groupContext="shape" transform="translate(5.02256,-5.44739)">
				<title>Лист.538</title>
				<path d="M0 688.48 L1.95 687.36 L16.35 696.12 L14.47 697.32 L0 688.48 Z" class="st3"/>
			</g>
			<g id="shape539-188" v:mID="539" v:groupContext="shape" transform="translate(19.4913,-4.38835)">
				<title>Лист.539</title>
				<path d="M0 696.26 L1.88 695.06 L1.88 696.12 L0 697.32 L0 696.26 Z" class="st1"/>
			</g>
			<g id="shape540-190" v:mID="540" v:groupContext="shape" transform="translate(5.02256,-7.77973)">
				<title>Лист.540</title>
				<path d="M0 688.48 L1.95 687.36 L16.35 696.12 L14.47 697.32 L0 688.48 Z" class="st3"/>
			</g>
			<g id="shape541-192" v:mID="541" v:groupContext="shape" transform="translate(19.4913,-6.72068)">
				<title>Лист.541</title>
				<path d="M0 696.26 L1.88 695.06 L1.88 696.12 L0 697.32 L0 696.26 Z" class="st1"/>
			</g>
			<g id="shape542-194" v:mID="542" v:groupContext="shape" transform="translate(19.4913,-9.05302)">
				<title>Лист.542</title>
				<path d="M0 696.26 L1.95 695.06 L1.88 696.12 L0 697.32 L0 696.26 Z" class="st1"/>
			</g>
			<g id="shape543-196" v:mID="543" v:groupContext="shape" transform="translate(5.09925,-10.1133)">
				<title>Лист.543</title>
				<path d="M0 688.48 L1.87 687.36 L16.34 696.12 L14.39 697.32 L0 688.48 Z" class="st3"/>
			</g>
			<g id="shape544-198" v:mID="544" v:groupContext="shape" transform="translate(19.4913,-11.3866)">
				<title>Лист.544</title>
				<path d="M0 696.26 L1.95 695.06 L1.95 696.12 L0 697.32 L0 696.26 Z" class="st1"/>
			</g>
			<g id="shape545-200" v:mID="545" v:groupContext="shape" transform="translate(5.09925,-12.4456)">
				<title>Лист.545</title>
				<path d="M0 688.48 L1.87 687.36 L16.34 696.12 L14.39 697.32 L0 688.48 Z" class="st3"/>
			</g>
			<g id="shape546-202" v:mID="546" v:groupContext="shape" transform="translate(19.4913,-13.7189)">
				<title>Лист.546</title>
				<path d="M0 696.26 L1.95 695.06 L1.95 696.12 L0 697.32 L0 696.26 Z" class="st1"/>
			</g>
			<g id="shape547-204" v:mID="547" v:groupContext="shape" transform="translate(5.09925,-14.778)">
				<title>Лист.547</title>
				<path d="M0 688.48 L1.87 687.36 L16.34 696.12 L14.39 697.32 L0 688.48 Z" class="st3"/>
			</g>
			<g id="shape548-206" v:mID="548" v:groupContext="shape" transform="translate(2.68779,-55.1374)">
				<title>Лист.548</title>
				<path d="M0 695.27 L1.87 694.14 L1.87 696.12 L0 697.32 L0 695.27 Z" class="st1"/>
			</g>
			<g id="shape549-208" v:mID="549" v:groupContext="shape" transform="translate(2.68779,-46.3765)">
				<title>Лист.549</title>
				<path d="M0 688.56 L1.87 687.36 L16.28 696.12 L14.39 697.32 L0 688.56 Z" class="st3"/>
			</g>
			<g id="shape550-210" v:mID="550" v:groupContext="shape" transform="translate(19.4913,-16.0512)">
				<title>Лист.550</title>
				<path d="M0.14 665.3 L2.01 664.17 L1.95 696.2 L0 697.32 L0.14 665.3 Z" class="st1"/>
			</g>
			<g id="shape551-212" v:mID="551" v:groupContext="shape" transform="translate(0.138772,-48.0722)">
				<title>Лист.551</title>
				<path d="M0 685.51 L1.95 684.32 L21.36 696.2 L19.49 697.32 L0 685.51 Z" class="st3"/>
			</g>
			<g id="shape552-214" v:mID="552" v:groupContext="shape">
				<title>Лист.552</title>
				<path d="M19.49 681.27 L5.1 672.51 L5.1 673.7 L19.49 682.54 L19.49 683.6 L5.1 674.84 L5.1 676.04 L19.49 684.88 L19.49
							 685.94 L5.1 677.18 L5.1 678.37 L19.49 687.21 L19.49 688.27 L5.1 679.51 L5.02 680.7 L19.49 689.54 L19.49
							 690.6 L5.02 681.84 L5.02 683.03 L19.49 691.88 L19.49 692.93 L5.02 684.17 L5.02 685.37 L19.49 694.21
							 L19.49 697.32 L0 685.51 L0.14 637.44 L19.63 649.25 L19.49 681.27 ZM2.69 642.19 L17.08 650.95 L17.08
							 648.97 L2.69 640.13 L2.69 642.19 Z" class="st2"/>
			</g>
			<g id="shape553-216" v:mID="553" v:groupContext="shape" transform="translate(19.5668,-48.7088)">
				<title>Лист.553</title>
				<path d="M0 691.24 L1.87 690.05 L1.87 696.2 L0 697.32 L0 691.24 Z" class="st1"/>
			</g>
			<g id="shape554-218" v:mID="554" v:groupContext="shape" transform="translate(0.200854,-54.7941)">
				<title>Лист.554</title>
				<path d="M0 685.53 L1.95 684.39 L21.24 696.13 L19.37 697.32 L0 685.53 Z" class="st3"/>
			</g>
			<g id="shape555-220" v:mID="555" v:groupContext="shape" transform="translate(0.200854,-48.7088)">
				<title>Лист.555</title>
				<path d="M19.37 691.24 L19.37 697.32 L0 685.59 L0 679.44 L19.37 691.24 Z" class="st2"/>
			</g>
		</g>
		<g id="shape560-222" v:mID="560" v:groupContext="shape" transform="translate(467.379,-533.4) rotate(-0.040651)">
			<title>Лист.560</title>
			<path d="M0 697.32 L169.27 697.32" class="st5"/>
		</g>
		<g id="shape561-225" v:mID="561" v:groupContext="shape" transform="translate(470.263,-144.081) rotate(0.197277)">
			<title>Лист.561</title>
			<path d="M0 697.32 L169.27 697.32" class="st5"/>
		</g>
		<g id="shape565-228" v:mID="565" v:groupContext="shape" transform="translate(453.916,871.083) scale(1,-1)">
			<title>Лист.565</title>
			<desc>GE1/0/1</desc>
			<v:textBlock v:margins="rect(4,4,4,4)" v:tabSpace="42.5197"/>
			<v:textRect cx="40.5499" cy="693.917" width="81.1" height="6.81102"/>
			<rect x="0" y="690.512" width="81.0998" height="6.81102" class="st6"/>
			<text x="16.67" y="-689.72" transform="scale(1,-1)" class="st7" v:langID="1033"><v:paragraph v:horizAlign="1"/><v:tabList/>GE1/0/1</text>		</g>
		<g id="shape566-231" v:mID="566" v:groupContext="shape" transform="translate(568.899,871.083) scale(1,-1)">
			<title>Лист.566</title>
			<desc>GE0/0/1</desc>
			<v:textBlock v:margins="rect(4,4,4,4)" v:tabSpace="42.5197"/>
			<v:textRect cx="40.5499" cy="693.917" width="81.1" height="6.81102"/>
			<rect x="0" y="690.512" width="81.0998" height="6.81102" class="st6"/>
			<text x="16.67" y="-689.72" transform="scale(1,-1)" class="st7" v:langID="1033"><v:paragraph v:horizAlign="1"/><v:tabList/>GE0/0/1</text>		</g>
		<g id="shape567-234" v:mID="567" v:groupContext="shape" transform="translate(455.886,1261.41) scale(1,-1)">
			<title>Лист.567</title>
			<desc>GE1/0/1</desc>
			<v:textBlock v:margins="rect(4,4,4,4)" v:tabSpace="42.5197"/>
			<v:textRect cx="40.5499" cy="693.917" width="81.1" height="6.81102"/>
			<rect x="0" y="690.512" width="81.0998" height="6.81102" class="st6"/>
			<text x="16.67" y="-689.72" transform="scale(1,-1)" class="st7" v:langID="1033"><v:paragraph v:horizAlign="1"/><v:tabList/>GE1/0/1</text>		</g>
		<g id="shape568-237" v:mID="568" v:groupContext="shape" transform="translate(566.929,1261.41) scale(1,-1)">
			<title>Лист.568</title>
			<desc>GE0/0/1</desc>
			<v:textBlock v:margins="rect(4,4,4,4)" v:tabSpace="42.5197"/>
			<v:textRect cx="40.5499" cy="693.917" width="81.1" height="6.81102"/>
			<rect x="0" y="690.512" width="81.0998" height="6.81102" class="st6"/>
			<text x="16.67" y="-689.72" transform="scale(1,-1)" class="st7" v:langID="1033"><v:paragraph v:horizAlign="1"/><v:tabList/>GE0/0/1</text>		</g>
		<g id="shape569-240" v:mID="569" v:groupContext="shape" transform="translate(340.157,-65.2622)">
			<title>Лист.569</title>
			<desc>ASW2-2</desc>
			<v:textBlock v:margins="rect(4,4,4,4)" v:tabSpace="42.5197"/>
			<v:textRect cx="66.5244" cy="676.127" width="133.05" height="42.3919"/>
			<rect x="0" y="654.931" width="133.049" height="42.3919" class="st6"/>
			<text x="26.87" y="683.33" class="st8" v:langID="1033"><v:paragraph v:horizAlign="1"/><v:tabList/>ASW2-2</text>		</g>
		<g id="shape570-243" v:mID="570" v:groupContext="shape" transform="translate(351.962,-456.378)">
			<title>Лист.570</title>
			<desc>ASW2-1</desc>
			<v:textBlock v:margins="rect(4,4,4,4)" v:tabSpace="42.5197"/>
			<v:textRect cx="66.5244" cy="676.127" width="133.05" height="42.3919"/>
			<rect x="0" y="654.931" width="133.049" height="42.3919" class="st6"/>
			<text x="26.87" y="683.33" class="st8" v:langID="1033"><v:paragraph v:horizAlign="1"/><v:tabList/>ASW2-1</text>		</g>
		<g id="shape587-246" v:mID="587" v:groupContext="shape" transform="translate(600.75,-58.9606)">
			<title>Лист.587</title>
			<desc>VPC2-2</desc>
			<v:textBlock v:margins="rect(4,4,4,4)" v:tabSpace="42.5197"/>
			<v:textRect cx="66.5244" cy="676.127" width="133.05" height="42.3919"/>
			<rect x="0" y="654.931" width="133.049" height="42.3919" class="st6"/>
			<text x="30.85" y="683.33" class="st8" v:langID="1033"><v:paragraph v:horizAlign="1"/><v:tabList/>VPC2-2</text>		</g>
		<g id="shape588-249" v:mID="588" v:groupContext="shape" transform="translate(600.75,-442.205)">
			<title>Лист.588</title>
			<desc>VPC2-1</desc>
			<v:textBlock v:margins="rect(4,4,4,4)" v:tabSpace="42.5197"/>
			<v:textRect cx="66.5244" cy="676.127" width="133.05" height="42.3919"/>
			<rect x="0" y="654.931" width="133.049" height="42.3919" class="st6"/>
			<text x="30.85" y="683.33" class="st8" v:langID="1033"><v:paragraph v:horizAlign="1"/><v:tabList/>VPC2-1</text>		</g>
		<g id="shape592-252" v:mID="592" v:groupContext="shape" transform="translate(939.452,572.905) rotate(124.605)">
			<title>Лист.592</title>
			<path d="M0 697.32 L427.66 697.32" class="st5"/>
		</g>
		<g id="shape593-255" v:mID="593" v:groupContext="shape" transform="translate(141.898,-533.386) rotate(-0.040651)">
			<title>Лист.593</title>
			<path d="M0 697.32 L209.57 697.32" class="st5"/>
		</g>
		<g id="shape594-258" v:mID="594" v:groupContext="shape" transform="translate(141.827,-143.719) rotate(-0.040651)">
			<title>Лист.594</title>
			<path d="M0 697.32 L209.57 697.32" class="st5"/>
		</g>
		<g id="shape595-261" v:mID="595" v:groupContext="shape" transform="translate(283.465,-120.748)">
			<title>Лист.595</title>
			<desc>XGE1/0/50</desc>
			<v:textBlock v:margins="rect(4,4,4,4)" v:tabSpace="42.5197"/>
			<v:textRect cx="40.5499" cy="693.917" width="81.1" height="6.81102"/>
			<rect x="0" y="690.512" width="81.0998" height="6.81102" class="st6"/>
			<text x="9.48" y="698.12" class="st7" v:langID="1033"><v:paragraph v:horizAlign="1"/><v:tabList/>XGE1/0/50</text>		</g>
		<g id="shape596-264" v:mID="596" v:groupContext="shape" transform="translate(131.499,-541.441)">
			<title>Лист.596</title>
			<desc>XGE1/0/49</desc>
			<v:textBlock v:margins="rect(4,4,4,4)" v:tabSpace="42.5197"/>
			<v:textRect cx="40.5499" cy="693.917" width="81.1" height="6.81102"/>
			<rect x="0" y="690.512" width="81.0998" height="6.81102" class="st6"/>
			<text x="9.48" y="698.12" class="st7" v:langID="1033"><v:paragraph v:horizAlign="1"/><v:tabList/>XGE1/0/49</text>		</g>
		<g id="shape597-267" v:mID="597" v:groupContext="shape" transform="translate(278.243,-545.945)">
			<title>Лист.597</title>
			<desc>XGE1/0/49</desc>
			<v:textBlock v:margins="rect(4,4,4,4)" v:tabSpace="42.5197"/>
			<v:textRect cx="40.5499" cy="693.917" width="81.1" height="6.81102"/>
			<rect x="0" y="690.512" width="81.0998" height="6.81102" class="st6"/>
			<text x="9.48" y="698.12" class="st7" v:langID="1033"><v:paragraph v:horizAlign="1"/><v:tabList/>XGE1/0/49</text>		</g>
		<g id="shape598-270" v:mID="598" v:groupContext="shape" transform="translate(-295.241,-102.384) rotate(-60)">
			<title>Лист.598</title>
			<desc>XGE1/0/50</desc>
			<v:textBlock v:margins="rect(4,4,4,4)" v:tabSpace="42.5197"/>
			<v:textRect cx="40.5499" cy="693.917" width="81.1" height="6.81102"/>
			<rect x="0" y="690.512" width="81.0998" height="6.81102" class="st6"/>
			<text x="9.48" y="698.12" class="st7" v:langID="1033"><v:paragraph v:horizAlign="1"/><v:tabList/>XGE1/0/50</text>		</g>
		<g id="shape599-273" v:mID="599" v:groupContext="shape" transform="translate(-484.615,178.583) rotate(-60)">
			<title>Лист.599</title>
			<desc>XGE1/0/49</desc>
			<v:textBlock v:margins="rect(4,4,4,4)" v:tabSpace="42.5197"/>
			<v:textRect cx="40.5499" cy="693.917" width="81.1" height="6.81102"/>
			<rect x="0" y="690.512" width="81.0998" height="6.81102" class="st6"/>
			<text x="9.48" y="698.12" class="st7" v:langID="1033"><v:paragraph v:horizAlign="1"/><v:tabList/>XGE1/0/49</text>		</g>
		<g id="shape600-276" v:mID="600" v:groupContext="shape" transform="translate(741.703,-168.114) rotate(60)">
			<title>Лист.600</title>
			<desc>XGE1/0/50</desc>
			<v:textBlock v:margins="rect(4,4,4,4)" v:tabSpace="42.5197"/>
			<v:textRect cx="40.5499" cy="693.917" width="81.1" height="6.81102"/>
			<rect x="0" y="690.512" width="81.0998" height="6.81102" class="st6"/>
			<text x="9.48" y="698.12" class="st7" v:langID="1033"><v:paragraph v:horizAlign="1"/><v:tabList/>XGE1/0/50</text>		</g>
		<g id="shape601-279" v:mID="601" v:groupContext="shape" transform="translate(935.006,111.122) rotate(60)">
			<title>Лист.601</title>
			<desc>XGE1/0/49</desc>
			<v:textBlock v:margins="rect(4,4,4,4)" v:tabSpace="42.5197"/>
			<v:textRect cx="40.5499" cy="693.917" width="81.1" height="6.81102"/>
			<rect x="0" y="690.512" width="81.0998" height="6.81102" class="st6"/>
			<text x="9.48" y="698.12" class="st7" v:langID="1033"><v:paragraph v:horizAlign="1"/><v:tabList/>XGE1/0/49</text>		</g>
		<g id="shape613-282" v:mID="613" v:groupContext="shape" transform="translate(802.694,192.23) rotate(89.8375)">
			<title>Лист.613</title>
			<path d="M0 697.32 L326.12 697.32" class="st10"/>
		</g>
		<g id="shape614-285" v:mID="614" v:groupContext="shape" transform="translate(-597.219,289.446) rotate(-90)">
			<title>Лист.614</title>
			<desc>GE1/0/48</desc>
			<v:textBlock v:margins="rect(4,4,4,4)" v:tabSpace="42.5197"/>
			<v:textRect cx="40.5499" cy="693.917" width="81.1" height="6.81102"/>
			<rect x="0" y="690.512" width="81.0998" height="6.81102" class="st6"/>
			<text x="13.12" y="698.12" class="st7" v:langID="1033"><v:paragraph v:horizAlign="1"/><v:tabList/>GE1/0/48</text>		</g>
		<g id="shape615-288" v:mID="615" v:groupContext="shape" transform="translate(-596.281,491.811) rotate(-90)">
			<title>Лист.615</title>
			<desc>GE1/0/48</desc>
			<v:textBlock v:margins="rect(4,4,4,4)" v:tabSpace="42.5197"/>
			<v:textRect cx="40.5499" cy="693.917" width="81.1" height="6.81102"/>
			<rect x="0" y="690.512" width="81.0998" height="6.81102" class="st6"/>
			<text x="13.12" y="698.12" class="st7" v:langID="1033"><v:paragraph v:horizAlign="1"/><v:tabList/>GE1/0/48</text>		</g>
		<g id="shape616-291" v:mID="616" v:groupContext="shape" transform="translate(17.0079,-70.8661)">
			<title>Лист.616</title>
			<path d="M0 697.32 L133.05 697.32 L133.05 164.41 L0 164.41 L0 697.32 Z" class="st11"/>
		</g>
	</g>
</svg>
