<?xml version="1.0" encoding="UTF-8" standalone="no"?>
<!DOCTYPE svg PUBLIC "-//W3C//DTD SVG 1.1//EN" "http://www.w3.org/Graphics/SVG/1.1/DTD/svg11.dtd">
<!-- Создано Microsoft Visio, экспорт SVG DSW.svg Страница-1 -->
<svg xmlns="http://www.w3.org/2000/svg" xmlns:xlink="http://www.w3.org/1999/xlink" xmlns:ev="http://www.w3.org/2001/xml-events"
		xmlns:v="http://schemas.microsoft.com/visio/2003/SVGExtensions/" width="1.63044in" height="1.19453in"
		viewBox="0 0 117.392 86.0062" xml:space="preserve" color-interpolation-filters="sRGB" class="st5">
	<v:documentProperties v:langID="1049" v:metric="true" v:viewMarkup="false"/>

	<style type="text/css">
	<![CDATA[
		.st1 {fill:#2a3174;stroke:none;stroke-linecap:butt;stroke-width:0.75}
		.st2 {fill:#37468b;stroke:none;stroke-linecap:butt;stroke-width:0.75}
		.st3 {fill:#4f62a5;stroke:none;stroke-linecap:butt;stroke-width:0.75}
		.st4 {fill:#ffffff;stroke:none;stroke-linecap:butt;stroke-width:0.75}
		.st5 {fill:none;fill-rule:evenodd;font-size:12px;overflow:visible;stroke-linecap:square;stroke-miterlimit:3}
	]]>
	</style>

	<g v:mID="0" v:index="1" v:groupContext="foregroundPage">
		<title>Страница-1</title>
		<v:pageProperties v:drawingScale="0.0393701" v:pageScale="0.0393701" v:drawingUnits="24" v:shadowOffsetX="9"
				v:shadowOffsetY="-9"/>
		<g id="group18-1" transform="translate(0.75,-0.75)" v:mID="18" v:groupContext="group">
			<title>Лист.18</title>
			<g id="shape19-2" v:mID="19" v:groupContext="shape" transform="translate(57.948,0)">
				<title>Лист.19</title>
				<path d="M57.94 35.3 L57.79 52.43 L0 86.01 L0 68.73 L57.94 35.3 Z" class="st1"/>
			</g>
			<g id="shape20-4" v:mID="20" v:groupContext="shape">
				<title>Лист.20</title>
				<path d="M57.95 68.73 L57.95 86.01 L0 52.43 L0.23 35.3 L57.95 68.73 Z" class="st2"/>
			</g>
			<g id="shape21-6" v:mID="21" v:groupContext="shape" transform="translate(0,-18.1086)">
				<title>Лист.21</title>
				<path d="M115.89 52.81 L58.1 86.01 L0 52.81 L57.65 19.61 L115.89 52.81 Z" class="st3"/>
			</g>
			<g id="shape22-8" v:mID="22" v:groupContext="shape" transform="translate(15.6939,-26.5603)">
				<title>Лист.22</title>
				<path d="M51.23 75.37 C55.53 77.78 55.53 77.78 55.53 77.78 C41.42 86.01 41.42 86.01 41.42 86.01 C27.09 77.78 27.09
							 77.78 27.09 77.78 C31.31 75.37 31.31 75.37 31.31 75.37 C37.88 79.14 37.88 79.14 37.88 79.14 C37.8 70.91
							 37.8 70.91 37.8 70.91 C35.16 70.39 32.59 69.63 30.4 68.43 C28.29 67.22 26.86 65.71 26.25 64.05 C12.07
							 64.05 12.07 64.05 12.07 64.05 C18.56 67.9 18.56 67.9 18.56 67.9 C14.33 70.31 14.33 70.31 14.33 70.31
							 C0 62.09 0 62.09 0 62.09 C14.26 53.86 14.26 53.86 14.26 53.86 C18.56 56.28 18.56 56.28 18.56 56.28 C12.07
							 60.13 12.07 60.13 12.07 60.13 C25.96 60.13 25.96 60.13 25.96 60.13 C26.49 58.32 27.92 56.58 30.41 55.15
							 C32.9 53.79 35.99 52.89 39.24 52.58 C39.24 44.66 39.24 44.66 39.24 44.66 C32.75 48.43 32.75 48.43 32.75
							 48.43 C28.52 46.02 28.52 46.02 28.52 46.02 C42.63 37.72 42.63 37.72 42.63 37.72 C56.97 46.02 56.97 46.02
							 56.97 46.02 C52.67 48.43 52.67 48.43 52.67 48.43 C46.25 44.66 46.25 44.66 46.25 44.66 C46.25 46.92 46.25
							 50.17 46.25 52.81 C48.82 53.19 51.23 54.02 53.27 55.15 C55.38 56.43 56.67 57.86 57.42 59.37 C71.3 59.37
							 71.3 59.37 71.3 59.37 C64.81 55.53 64.81 55.53 64.81 55.53 C69.04 53.11 69.04 53.11 69.04 53.11 C83.3
							 61.33 83.3 61.33 83.3 61.33 C69.11 69.56 69.11 69.56 69.11 69.56 C64.96 67.07 64.96 67.07 64.96 67.07
							 C71.38 63.3 71.38 63.3 71.38 63.3 C67.6 63.3 62.4 63.3 57.8 63.3 C57.34 65.18 55.83 66.99 53.34 68.43
							 C50.85 69.86 47.91 70.69 44.82 70.99 C44.82 79.14 44.82 79.14 44.82 79.14 C51.23 75.37 51.23 75.37 51.23
							 75.37 ZM35.91 65.18 C39.23 67.07 44.52 67.07 47.84 65.18 C51.08 63.3 51.08 60.28 47.76 58.39 C44.44
							 56.51 39.16 56.51 35.91 58.39 C32.6 60.28 32.67 63.3 35.91 65.18 Z" class="st1"/>
			</g>
			<g id="shape23-10" v:mID="23" v:groupContext="shape" transform="translate(15.6939,-27.7656)">
				<title>Лист.23</title>
				<path d="M51.23 75.37 C55.53 77.78 55.53 77.78 55.53 77.78 C41.42 86.01 41.42 86.01 41.42 86.01 C27.09 77.78 27.09
							 77.78 27.09 77.78 C31.31 75.37 31.31 75.37 31.31 75.37 C37.88 79.14 37.88 79.14 37.88 79.14 C37.8 70.91
							 37.8 70.91 37.8 70.91 C35.16 70.54 32.59 69.63 30.4 68.43 C28.29 67.22 26.86 65.71 26.25 64.2 C12.07
							 64.2 12.07 64.2 12.07 64.2 C18.56 67.9 18.56 67.9 18.56 67.9 C14.33 70.31 14.33 70.31 14.33 70.31 C0
							 62.09 0 62.09 0 62.09 C14.26 53.94 14.26 53.94 14.26 53.94 C18.56 56.28 18.56 56.28 18.56 56.28 C12.07
							 60.13 12.07 60.13 12.07 60.13 C25.96 60.13 25.96 60.13 25.96 60.13 C26.49 58.32 27.92 56.58 30.41 55.15
							 C32.9 53.79 35.99 52.89 39.24 52.58 C39.24 44.74 39.24 44.74 39.24 44.74 C32.75 48.43 32.75 48.43 32.75
							 48.43 C28.52 46.02 28.52 46.02 28.52 46.02 C42.63 37.72 42.63 37.72 42.63 37.72 C56.97 46.02 56.97 46.02
							 56.97 46.02 C52.66 48.43 52.66 48.43 52.66 48.43 C46.25 44.73 46.25 44.73 46.25 44.73 C46.25 46.92 46.25
							 50.17 46.25 52.81 C48.82 53.26 51.23 54.02 53.27 55.15 C55.38 56.43 56.67 57.86 57.42 59.37 C71.3 59.37
							 71.3 59.37 71.3 59.37 C64.81 55.53 64.81 55.53 64.81 55.53 C69.04 53.19 69.04 53.19 69.04 53.19 C83.3
							 61.34 83.3 61.34 83.3 61.34 C69.11 69.56 69.11 69.56 69.11 69.56 C64.96 67.07 64.96 67.07 64.96 67.07
							 C71.38 63.45 71.38 63.45 71.38 63.45 C67.6 63.45 62.4 63.45 57.8 63.45 C57.34 65.18 55.83 66.99 53.34
							 68.43 C50.85 69.86 47.91 70.69 44.82 71.07 C44.82 79.14 44.82 79.14 44.82 79.14 C51.23 75.37 51.23 75.37
							 51.23 75.37 ZM35.91 65.33 C39.23 67.22 44.52 67.22 47.84 65.33 C51.08 63.44 51.08 60.28 47.76 58.39
							 C44.44 56.5 39.16 56.5 35.91 58.39 C32.6 60.28 32.67 63.44 35.91 65.33 Z" class="st4"/>
			</g>
		</g>
	</g>
</svg>
