<?xml version="1.0" encoding="UTF-8" standalone="yes"?>
<svg xmlns="http://www.w3.org/2000/svg" xmlns:v="http://schemas.microsoft.com/visio/2003/SVGExtensions/" xml:space="preserve" xmlns:xlink="http://www.w3.org/1999/xlink" width="16.035433in" height="11.692913in" viewBox="0 0 1154.5511 841.8898">
 <v:documentProperties>
  <v:userDefs>
   <v:ud v:nameU="msvNoAutoConnect" v:val="1"/>
  </v:userDefs>
 </v:documentProperties>
 <g id="SFixTitle"/>
 <g id="SContent">
  <g>
   <g transform="matrix(1,0,0,-1,0,841.8898)">
    <g transform="matrix(1,0,0,1,39.77481,147.40155)" v:mID="320">
     <title>Sheet.320</title>
     <g transform="matrix(1,0,0,1,154.86116,602.57043)" v:mID="70">
      <title>Sheet.70</title>
      <g transform="matrix(1,0,0,1,0,0)">
       <text x="13.117289" y="8.4" class="TextStyle0" fill="#000000" opacity="1" transform="matrix(1,0,0,-1,0,7.605512)">GE1/0/48</text>
      </g>
     </g>
     <g transform="matrix(1,0,0,1,443.44257,602.57043)" v:mID="72">
      <title>Sheet.72</title>
      <g transform="matrix(1,0,0,1,0,0)">
       <text x="18.204956" y="8.4" class="TextStyle0" fill="#000000" opacity="1" transform="matrix(1,0,0,-1,0,7.605512)">GE1/0/48</text>
      </g>
     </g>
     <g transform="matrix(1,0,0,1,192.29318,579.5531)" v:mID="73">
      <title>Sheet.73</title>
      <g transform="matrix(1,0,0,1,0,0)">
       <text x="14.988645" y="8.4" class="TextStyle0" fill="#000000" opacity="1" transform="matrix(1,0,0,-1,0,7.605512)">FGE1/0/53</text>
      </g>
     </g>
     <g transform="matrix(1,0,0,1,403.29483,579.5531)" v:mID="74">
      <title>Sheet.74</title>
      <g transform="matrix(1,0,0,1,0,0)">
       <text x="14.988645" y="8.4" class="TextStyle0" fill="#000000" opacity="1" transform="matrix(1,0,0,-1,0,7.605512)">FGE1/0/53</text>
      </g>
     </g>
     <g transform="matrix(1,0,0,1,197.38084,547.58966)" v:mID="75">
      <title>Sheet.75</title>
      <g transform="matrix(1,0,0,1,0,0)">
       <text x="9.900979" y="8.4" class="TextStyle0" fill="#000000" opacity="1" transform="matrix(1,0,0,-1,0,7.605512)">FGE1/0/54</text>
      </g>
     </g>
     <g transform="matrix(1,0,0,1,408.3825,547.63837)" v:mID="76">
      <title>Sheet.76</title>
      <g transform="matrix(1,0,0,1,0,0)">
       <text x="9.900979" y="8.4" class="TextStyle0" fill="#000000" opacity="1" transform="matrix(1,0,0,-1,0,7.605512)">FGE1/0/54</text>
      </g>
     </g>
     <g transform="matrix(1,0,0,1,70.08989,354.55817)" v:mID="83">
      <title>Sheet.83</title>
      <g transform="matrix(1,0,0,1,0,0)">
       <text x="9.483988" y="8.4" class="TextStyle0" fill="#000000" opacity="1" transform="matrix(1,0,0,-1,0,7.605512)">XGE1/0/49</text>
      </g>
     </g>
     <g transform="matrix(1,0,0,1,188.32445,328.1802)" v:mID="84">
      <title>Sheet.84</title>
      <g transform="matrix(1,0,0,1,0,0)">
       <text x="9.483988" y="8.4" class="TextStyle0" fill="#000000" opacity="1" transform="matrix(1,0,0,-1,0,7.605512)">XGE1/0/50</text>
      </g>
     </g>
     <g transform="matrix(1,0,0,1,544.3568,349.16446)" v:mID="85">
      <title>Sheet.85</title>
      <g transform="matrix(1,0,0,1,0,0)">
       <text x="9.483988" y="8.4" class="TextStyle0" fill="#000000" opacity="1" transform="matrix(1,0,0,-1,0,7.605512)">XGE1/0/49</text>
      </g>
     </g>
     <g transform="matrix(1,0,0,1,400.92288,331.58572)" v:mID="86">
      <title>Sheet.86</title>
      <g transform="matrix(1,0,0,1,0,0)">
       <text x="14.571653" y="8.4" class="TextStyle0" fill="#000000" opacity="1" transform="matrix(1,0,0,-1,0,7.605512)">XGE1/0/50</text>
      </g>
     </g>
     <g transform="matrix(1,0,0,1,53.678787,523.88947)" v:mID="87">
      <title>Sheet.87</title>
      <g transform="matrix(1,0,0,1,0,0)">
       <text x="14.571653" y="8.4" class="TextStyle0" fill="#000000" opacity="1" transform="matrix(1,0,0,-1,0,4.2)">XGE1/0/49</text>
      </g>
     </g>
     <g transform="matrix(1,0,0,1,223.75752,515.8377)" v:mID="88">
      <title>Sheet.88</title>
      <g transform="matrix(1,0,0,1,0,0)">
       <text x="9.483988" y="8.4" class="TextStyle0" fill="#000000" opacity="1" transform="matrix(1,0,0,-1,0,7.605512)">XGE1/0/50</text>
      </g>
     </g>
     <g transform="matrix(1,0,0,1,378.8122,515.8377)" v:mID="89">
      <title>Sheet.89</title>
      <g transform="matrix(1,0,0,1,0,0)">
       <text x="14.571653" y="8.4" class="TextStyle0" fill="#000000" opacity="1" transform="matrix(1,0,0,-1,0,7.605512)">XGE1/0/49</text>
      </g>
     </g>
     <g transform="matrix(1,0,0,1,542.65515,517.0785)" v:mID="90">
      <title>Sheet.90</title>
      <g transform="matrix(1,0,0,1,0,0)">
       <text x="9.483988" y="8.4" class="TextStyle0" fill="#000000" opacity="1" transform="matrix(1,0,0,-1,0,7.605512)">XGE1/0/50</text>
      </g>
     </g>
     <g transform="matrix(1,0,0,1,442.59174,257.03848)" v:mID="181">
      <title>Sheet.181</title>
      <g transform="matrix(1,0,0,1,0,0)">
       <text x="21.752806" y="8.4" class="TextStyle0" fill="#000000" opacity="1" transform="matrix(1,0,0,-1,0,7.605512)">GE1/0/1</text>
      </g>
     </g>
     <g transform="matrix(1,0,0,1,93.69249,524.87524)" v:mID="183">
      <title>Sheet.183</title>
      <g transform="matrix(1,0,0,1,57.94803,0)" v:mID="184">
       <title>Sheet.184</title>
       <path d="M57.943775177,50.703727722 L57.794715881,33.576766968 L57.794715881,33.576766968 L0,0 L0,0 L0,17.278150558 L0,17.278150558 L57.943775177,50.703727722 L57.943775177,50.703727722 L57.943775177,50.703727722 L57.943775177,50.703727722 L57.943775177,50.703727722 L57.943775177,50.703727722 L57.943775177,50.703727722 L57.943775177,50.703727722 L57.943775177,50.703727722 L57.943775177,50.703727722 L57.943775177,50.703727722 " stroke="none" stroke-width="0" fill="#2A3174"  fill-rule="evenodd"/>
      </g>
      <g transform="matrix(1,0,0,1,0,0)" v:mID="185">
       <title>Sheet.185</title>
       <path d="M57.948032379,17.278150558 L57.948032379,0 L57.948032379,0 L0,33.576766968 L0,33.576766968 L0.225719005,50.703727722 L0.225719005,50.703727722 L57.948032379,17.278150558 L57.948032379,17.278150558 L57.948032379,17.278150558 L57.948032379,17.278150558 L57.948032379,17.278150558 L57.948032379,17.278150558 L57.948032379,17.278150558 L57.948032379,17.278150558 L57.948032379,17.278150558 L57.948032379,17.278150558 L57.948032379,17.278150558 " stroke="none" stroke-width="0" fill="#37468B"  fill-rule="evenodd"/>
      </g>
      <g transform="matrix(1,0,0,1,0,18.108627)" v:mID="186">
       <title>Sheet.186</title>
       <path d="M115.891807556,33.199859619 L58.099220276,0 L58.099220276,0 L0,33.199859619 L0,33.199859619 L57.645652771,66.397590637 L57.645652771,66.397590637 L115.891807556,33.199859619 L115.891807556,33.199859619 L115.891807556,33.199859619 L115.891807556,33.199859619 L115.891807556,33.199859619 L115.891807556,33.199859619 L115.891807556,33.199859619 L115.891807556,33.199859619 L115.891807556,33.199859619 L115.891807556,33.199859619 L115.891807556,33.199859619 " stroke="none" stroke-width="0" fill="#4F62A5"  fill-rule="evenodd"/>
      </g>
      <g transform="matrix(1,0,0,1,15.693863,26.560312)" v:mID="187">
       <title>Sheet.187</title>
       <path d="M51.229694366,10.638604164 C55.53326416,8.223836899 55.53326416,8.223836899 55.53326416,8.223836899 L55.53326416,8.223836899 C41.421562195,0 41.421562195,0 41.421562195,0 L41.421562195,0 C27.086278915,8.223836899 27.086278915,8.223836899 27.086278915,8.223836899 L27.086278915,8.223836899 C31.311058044,10.638604164 31.311058044,10.638604164 31.311058044,10.638604164 L31.311058044,10.638604164 C37.876075745,6.86739397 37.876075745,6.86739397 37.876075745,6.86739397 L37.876075745,6.86739397 C37.799415588,15.091231346 37.799415588,15.091231346 37.799415588,15.091231346 L37.799415588,15.091231346 C35.158927917,15.619329453 32.592971802,16.375274658 30.403923035,17.580530167 L30.403923035,17.580530167 C28.291534424,18.787912369 26.858430862,20.295545578 26.253673553,21.956497192 L26.253673553,21.956497192 C12.069578171,21.956497192 12.069578171,21.956497192 12.069578171,21.956497192 L12.069578171,21.956497192 C18.557933807,18.108625412 18.557933807,18.108625412 18.557933807,18.108625412 L18.557933807,18.108625412 C14.333156586,15.6938591 14.333156586,15.6938591 14.333156586,15.6938591 L14.333156586,15.6938591 C0,23.917695999 0,23.917695999 0,23.917695999 L0,23.917695999 C14.260755539,32.141532898 14.260755539,32.141532898 14.260755539,32.141532898 L14.260755539,32.141532898 C18.562192917,29.726766586 18.562192917,29.726766586 18.562192917,29.726766586 L18.562192917,29.726766586 C12.07383728,25.878896713 12.07383728,25.878896713 12.07383728,25.878896713 L12.07383728,25.878896713 C25.957685471,25.878896713 25.957685471,25.878896713 25.957685471,25.878896713 L25.957685471,25.878896713 C26.485782623,27.691036224 27.918886185,29.426517487 30.408182144,30.85749054 L30.408182144,30.85749054 C32.897480011,32.216064453 35.991531372,33.121070862 39.236778259,33.423446655 L39.236778259,33.423446655 C39.236778259,41.344905853 39.236778259,41.344905853 39.236778259,41.344905853 L39.236778259,41.344905853 C32.748420715,37.573696136 32.748420715,37.573696136 32.748420715,37.573696136 L32.748420715,37.573696136 C28.523639679,39.988460541 28.523639679,39.988460541 28.523639679,39.988460541 L28.523639679,39.988460541 C42.633209229,48.286830902 42.633209229,48.286830902 42.633209229,48.286830902 L42.633209229,48.286830902 C56.968494415,39.988460541 56.968494415,39.988460541 56.968494415,39.988460541 L56.968494415,39.988460541 C52.667057037,37.573696136 52.667057037,37.573696136 52.667057037,37.573696136 L52.667057037,37.573696136 C46.251102448,41.347038269 46.251102448,41.347038269 46.251102448,41.347038269 L46.251102448,41.347038269 C46.251102448,39.083457947 46.251102448,35.840343475 46.251102448,33.197727203 L46.251102448,33.197727203 C48.817058563,32.820819855 51.229694366,31.990345001 53.267555237,30.85749054 L53.267555237,30.85749054 C55.379943848,29.575576782 56.666114807,28.142475128 57.417804718,26.632713318 L57.417804718,26.632713318 C71.301651001,26.632713318 71.301651001,26.632713318 71.301651001,26.632713318 L71.301651001,26.632713318 C64.813293457,30.480583191 64.813293457,30.480583191 64.813293457,30.480583191 L64.813293457,30.480583191 C69.038070679,32.895347595 69.038070679,32.895347595 69.038070679,32.895347595 L69.038070679,32.895347595 C83.298828125,24.671512604 83.298828125,24.671512604 83.298828125,24.671512604 L83.298828125,24.671512604 C69.112602234,16.447673798 69.112602234,16.447673798 69.112602234,16.447673798 L69.112602234,16.447673798 C64.962356567,18.936973572 64.962356567,18.936973572 64.962356567,18.936973572 L64.962356567,18.936973572 C71.376182556,22.708183289 71.376182556,22.708183289 71.376182556,22.708183289 L71.376182556,22.708183289 C67.604972839,22.708183289 62.396396637,22.708183289 57.796840668,22.708183289 L57.796840668,22.708183289 C57.343273163,20.821512222 55.833511353,19.011501312 53.342086792,17.578399658 L53.342086792,17.578399658 C50.854919434,16.145296097 47.909923553,15.314821243 44.818000793,15.012442589 L44.818000793,15.012442589 C44.818000793,6.865264893 44.818000793,6.865264893 44.818000793,6.865264893 L44.818000793,6.865264893 C51.229694366,10.638604164 51.229694366,10.638604164 51.229694366,10.638604164 L51.229694366,10.638604164 L51.229694366,10.638604164 L51.229694366,10.638604164 L51.229694366,10.638604164 L51.229694366,10.638604164 L51.229694366,10.638604164 L51.229694366,10.638604164 L51.229694366,10.638604164 M35.914875031,20.823642731 C39.234645844,18.936973572 44.515617371,18.936973572 47.835391998,20.823642731 L47.835391998,20.823642731 C51.07850647,22.710313797 51.07850647,25.727708817 47.760864258,27.614377975 L47.760864258,27.614377975 C44.441093445,29.501049042 39.157985687,29.501049042 35.914875031,27.614377975 L35.914875031,27.614377975 C32.595100403,25.727708817 32.671760559,22.710313797 35.914875031,20.823642731 " stroke="none" stroke-width="0" fill="#2A3174"  fill-rule="evenodd"/>
      </g>
      <g transform="matrix(1,0,0,1,15.693863,27.765568)" v:mID="188">
       <title>Sheet.188</title>
       <path d="M51.229694366,10.638605118 C55.53326416,8.223837852 55.53326416,8.223837852 55.53326416,8.223837852 L55.53326416,8.223837852 C41.421562195,0 41.421562195,0 41.421562195,0 L41.421562195,0 C27.086278915,8.223837852 27.086278915,8.223837852 27.086278915,8.223837852 L27.086278915,8.223837852 C31.311058044,10.638605118 31.311058044,10.638605118 31.311058044,10.638605118 L31.311058044,10.638605118 C37.876075745,6.867394447 37.876075745,6.867394447 37.876075745,6.867394447 L37.876075745,6.867394447 C37.799415588,15.0912323 37.799415588,15.0912323 37.799415588,15.0912323 L37.799415588,15.0912323 C35.158927917,15.468140602 32.592971802,16.375274658 30.403923035,17.580530167 L30.403923035,17.580530167 C28.291534424,18.787912369 26.858430862,20.295545578 26.253673553,21.805307388 L26.253673553,21.805307388 C12.069578171,21.805307388 12.069578171,21.805307388 12.069578171,21.805307388 L12.069578171,21.805307388 C18.557933807,18.108627319 18.557933807,18.108627319 18.557933807,18.108627319 L18.557933807,18.108627319 C14.333156586,15.693860054 14.333156586,15.693860054 14.333156586,15.693860054 L14.333156586,15.693860054 C0,23.917697906 0,23.917697906 0,23.917697906 L0,23.917697906 C14.260755539,32.067005157 14.260755539,32.067005157 14.260755539,32.067005157 L14.260755539,32.067005157 C18.562192917,29.726768494 18.562192917,29.726768494 18.562192917,29.726768494 L18.562192917,29.726768494 C12.07383728,25.878898621 12.07383728,25.878898621 12.07383728,25.878898621 L12.07383728,25.878898621 C25.957685471,25.878898621 25.957685471,25.878898621 25.957685471,25.878898621 L25.957685471,25.878898621 C26.485782623,27.691038132 27.918886185,29.426519394 30.408182144,30.857492447 L30.408182144,30.857492447 C32.897480011,32.216064453 35.991531372,33.121070862 39.236778259,33.42345047 L39.236778259,33.42345047 C39.236778259,41.270378113 39.236778259,41.270378113 39.236778259,41.270378113 L39.236778259,41.270378113 C32.7462883,37.575824738 32.7462883,37.575824738 32.7462883,37.575824738 L32.7462883,37.575824738 C28.521511078,39.990592957 28.521511078,39.990592957 28.521511078,39.990592957 L28.521511078,39.990592957 C42.631076813,48.288963318 42.631076813,48.288963318 42.631076813,48.288963318 L42.631076813,48.288963318 C56.966365814,39.990592957 56.966365814,39.990592957 56.966365814,39.990592957 L56.966365814,39.990592957 C52.664928436,37.575824738 52.664928436,37.575824738 52.664928436,37.575824738 L52.664928436,37.575824738 C46.251102448,41.272510529 46.251102448,41.272510529 46.251102448,41.272510529 L46.251102448,41.272510529 C46.251102448,39.083457947 46.251102448,35.84034729 46.251102448,33.197731018 L46.251102448,33.197731018 C48.817058563,32.746292114 51.229694366,31.990346909 53.267555237,30.857492447 L53.267555237,30.857492447 C55.379943848,29.57557869 56.666114807,28.142477036 57.417804718,26.632713318 L57.417804718,26.632713318 C71.301651001,26.632713318 71.301651001,26.632713318 71.301651001,26.632713318 L71.301651001,26.632713318 C64.813293457,30.480585098 64.813293457,30.480585098 64.813293457,30.480585098 L64.813293457,30.480585098 C69.038070679,32.818695068 69.038070679,32.818695068 69.038070679,32.818695068 L69.038070679,32.818695068 C83.298828125,24.66938591 83.298828125,24.66938591 83.298828125,24.66938591 L83.298828125,24.66938591 C69.112602234,16.445547104 69.112602234,16.445547104 69.112602234,16.445547104 L69.112602234,16.445547104 C64.962356567,18.934844971 64.962356567,18.934844971 64.962356567,18.934844971 L64.962356567,18.934844971 C71.376182556,22.556995392 71.376182556,22.556995392 71.376182556,22.556995392 L71.376182556,22.556995392 C67.604972839,22.556995392 62.396396637,22.556995392 57.796840668,22.556995392 L57.796840668,22.556995392 C57.343273163,20.82151413 55.833511353,19.01150322 53.342086792,17.578401566 L53.342086792,17.578401566 C50.854919434,16.145298004 47.909923553,15.314822197 44.818000793,14.937913895 L44.818000793,14.937913895 C44.818000793,6.863135338 44.818000793,6.863135338 44.818000793,6.863135338 L44.818000793,6.863135338 C51.229694366,10.638605118 51.229694366,10.638605118 51.229694366,10.638605118 L51.229694366,10.638605118 L51.229694366,10.638605118 L51.229694366,10.638605118 L51.229694366,10.638605118 L51.229694366,10.638605118 L51.229694366,10.638605118 L51.229694366,10.638605118 L51.229694366,10.638605118 M35.914875031,20.674585342 C39.234645844,18.787912369 44.515617371,18.787912369 47.835391998,20.674585342 L47.835391998,20.674585342 C51.07850647,22.561254501 51.07850647,25.729839325 47.760864258,27.616508484 L47.760864258,27.616508484 C44.441093445,29.50317955 39.157985687,29.50317955 35.914875031,27.616508484 L35.914875031,27.616508484 C32.595100403,25.729839325 32.671760559,22.561254501 35.914875031,20.674585342 " stroke="none" stroke-width="0" fill="#FFFFFF"  fill-rule="evenodd"/>
      </g>
     </g>
     <g transform="matrix(1,0,0,1,478.87564,524.87524)" v:mID="189">
      <title>Sheet.189</title>
      <g transform="matrix(1,0,0,1,57.94803,0)" v:mID="190">
       <title>Sheet.190</title>
       <path d="M57.943775177,50.703727722 L57.794715881,33.576766968 L57.794715881,33.576766968 L0,0 L0,0 L0,17.278150558 L0,17.278150558 L57.943775177,50.703727722 L57.943775177,50.703727722 L57.943775177,50.703727722 L57.943775177,50.703727722 L57.943775177,50.703727722 L57.943775177,50.703727722 L57.943775177,50.703727722 L57.943775177,50.703727722 L57.943775177,50.703727722 L57.943775177,50.703727722 L57.943775177,50.703727722 " stroke="none" stroke-width="0" fill="#2A3174"  fill-rule="evenodd"/>
      </g>
      <g transform="matrix(1,0,0,1,0,0)" v:mID="191">
       <title>Sheet.191</title>
       <path d="M57.948032379,17.278150558 L57.948032379,0 L57.948032379,0 L0,33.576766968 L0,33.576766968 L0.225719005,50.703727722 L0.225719005,50.703727722 L57.948032379,17.278150558 L57.948032379,17.278150558 L57.948032379,17.278150558 L57.948032379,17.278150558 L57.948032379,17.278150558 L57.948032379,17.278150558 L57.948032379,17.278150558 L57.948032379,17.278150558 L57.948032379,17.278150558 L57.948032379,17.278150558 L57.948032379,17.278150558 " stroke="none" stroke-width="0" fill="#37468B"  fill-rule="evenodd"/>
      </g>
      <g transform="matrix(1,0,0,1,0,18.108627)" v:mID="192">
       <title>Sheet.192</title>
       <path d="M115.891807556,33.199859619 L58.099220276,0 L58.099220276,0 L0,33.199859619 L0,33.199859619 L57.645652771,66.397590637 L57.645652771,66.397590637 L115.891807556,33.199859619 L115.891807556,33.199859619 L115.891807556,33.199859619 L115.891807556,33.199859619 L115.891807556,33.199859619 L115.891807556,33.199859619 L115.891807556,33.199859619 L115.891807556,33.199859619 L115.891807556,33.199859619 L115.891807556,33.199859619 L115.891807556,33.199859619 " stroke="none" stroke-width="0" fill="#4F62A5"  fill-rule="evenodd"/>
      </g>
      <g transform="matrix(1,0,0,1,15.693863,26.560312)" v:mID="193">
       <title>Sheet.193</title>
       <path d="M51.229694366,10.638604164 C55.53326416,8.223836899 55.53326416,8.223836899 55.53326416,8.223836899 L55.53326416,8.223836899 C41.421562195,0 41.421562195,0 41.421562195,0 L41.421562195,0 C27.086278915,8.223836899 27.086278915,8.223836899 27.086278915,8.223836899 L27.086278915,8.223836899 C31.311058044,10.638604164 31.311058044,10.638604164 31.311058044,10.638604164 L31.311058044,10.638604164 C37.876075745,6.86739397 37.876075745,6.86739397 37.876075745,6.86739397 L37.876075745,6.86739397 C37.799415588,15.091231346 37.799415588,15.091231346 37.799415588,15.091231346 L37.799415588,15.091231346 C35.158927917,15.619329453 32.592971802,16.375274658 30.403923035,17.580530167 L30.403923035,17.580530167 C28.291534424,18.787912369 26.858430862,20.295545578 26.253673553,21.956497192 L26.253673553,21.956497192 C12.069578171,21.956497192 12.069578171,21.956497192 12.069578171,21.956497192 L12.069578171,21.956497192 C18.557933807,18.108625412 18.557933807,18.108625412 18.557933807,18.108625412 L18.557933807,18.108625412 C14.333156586,15.6938591 14.333156586,15.6938591 14.333156586,15.6938591 L14.333156586,15.6938591 C0,23.917695999 0,23.917695999 0,23.917695999 L0,23.917695999 C14.260755539,32.141532898 14.260755539,32.141532898 14.260755539,32.141532898 L14.260755539,32.141532898 C18.562192917,29.726766586 18.562192917,29.726766586 18.562192917,29.726766586 L18.562192917,29.726766586 C12.07383728,25.878896713 12.07383728,25.878896713 12.07383728,25.878896713 L12.07383728,25.878896713 C25.957685471,25.878896713 25.957685471,25.878896713 25.957685471,25.878896713 L25.957685471,25.878896713 C26.485782623,27.691036224 27.918886185,29.426517487 30.408182144,30.85749054 L30.408182144,30.85749054 C32.897480011,32.216064453 35.991531372,33.121070862 39.236778259,33.423446655 L39.236778259,33.423446655 C39.236778259,41.344905853 39.236778259,41.344905853 39.236778259,41.344905853 L39.236778259,41.344905853 C32.748420715,37.573696136 32.748420715,37.573696136 32.748420715,37.573696136 L32.748420715,37.573696136 C28.523639679,39.988460541 28.523639679,39.988460541 28.523639679,39.988460541 L28.523639679,39.988460541 C42.633209229,48.286830902 42.633209229,48.286830902 42.633209229,48.286830902 L42.633209229,48.286830902 C56.968494415,39.988460541 56.968494415,39.988460541 56.968494415,39.988460541 L56.968494415,39.988460541 C52.667057037,37.573696136 52.667057037,37.573696136 52.667057037,37.573696136 L52.667057037,37.573696136 C46.251102448,41.347038269 46.251102448,41.347038269 46.251102448,41.347038269 L46.251102448,41.347038269 C46.251102448,39.083457947 46.251102448,35.840343475 46.251102448,33.197727203 L46.251102448,33.197727203 C48.817058563,32.820819855 51.229694366,31.990345001 53.267555237,30.85749054 L53.267555237,30.85749054 C55.379943848,29.575576782 56.666114807,28.142475128 57.417804718,26.632713318 L57.417804718,26.632713318 C71.301651001,26.632713318 71.301651001,26.632713318 71.301651001,26.632713318 L71.301651001,26.632713318 C64.813293457,30.480583191 64.813293457,30.480583191 64.813293457,30.480583191 L64.813293457,30.480583191 C69.038070679,32.895347595 69.038070679,32.895347595 69.038070679,32.895347595 L69.038070679,32.895347595 C83.298828125,24.671512604 83.298828125,24.671512604 83.298828125,24.671512604 L83.298828125,24.671512604 C69.112602234,16.447673798 69.112602234,16.447673798 69.112602234,16.447673798 L69.112602234,16.447673798 C64.962356567,18.936973572 64.962356567,18.936973572 64.962356567,18.936973572 L64.962356567,18.936973572 C71.376182556,22.708183289 71.376182556,22.708183289 71.376182556,22.708183289 L71.376182556,22.708183289 C67.604972839,22.708183289 62.396396637,22.708183289 57.796840668,22.708183289 L57.796840668,22.708183289 C57.343273163,20.821512222 55.833511353,19.011501312 53.342086792,17.578399658 L53.342086792,17.578399658 C50.854919434,16.145296097 47.909923553,15.314821243 44.818000793,15.012442589 L44.818000793,15.012442589 C44.818000793,6.865264893 44.818000793,6.865264893 44.818000793,6.865264893 L44.818000793,6.865264893 C51.229694366,10.638604164 51.229694366,10.638604164 51.229694366,10.638604164 L51.229694366,10.638604164 L51.229694366,10.638604164 L51.229694366,10.638604164 L51.229694366,10.638604164 L51.229694366,10.638604164 L51.229694366,10.638604164 L51.229694366,10.638604164 L51.229694366,10.638604164 M35.914875031,20.823642731 C39.234645844,18.936973572 44.515617371,18.936973572 47.835391998,20.823642731 L47.835391998,20.823642731 C51.07850647,22.710313797 51.07850647,25.727708817 47.760864258,27.614377975 L47.760864258,27.614377975 C44.441093445,29.501049042 39.157985687,29.501049042 35.914875031,27.614377975 L35.914875031,27.614377975 C32.595100403,25.727708817 32.671760559,22.710313797 35.914875031,20.823642731 " stroke="none" stroke-width="0" fill="#2A3174"  fill-rule="evenodd"/>
      </g>
      <g transform="matrix(1,0,0,1,15.693863,27.765568)" v:mID="194">
       <title>Sheet.194</title>
       <path d="M51.229694366,10.638605118 C55.53326416,8.223837852 55.53326416,8.223837852 55.53326416,8.223837852 L55.53326416,8.223837852 C41.421562195,0 41.421562195,0 41.421562195,0 L41.421562195,0 C27.086278915,8.223837852 27.086278915,8.223837852 27.086278915,8.223837852 L27.086278915,8.223837852 C31.311058044,10.638605118 31.311058044,10.638605118 31.311058044,10.638605118 L31.311058044,10.638605118 C37.876075745,6.867394447 37.876075745,6.867394447 37.876075745,6.867394447 L37.876075745,6.867394447 C37.799415588,15.0912323 37.799415588,15.0912323 37.799415588,15.0912323 L37.799415588,15.0912323 C35.158927917,15.468140602 32.592971802,16.375274658 30.403923035,17.580530167 L30.403923035,17.580530167 C28.291534424,18.787912369 26.858430862,20.295545578 26.253673553,21.805307388 L26.253673553,21.805307388 C12.069578171,21.805307388 12.069578171,21.805307388 12.069578171,21.805307388 L12.069578171,21.805307388 C18.557933807,18.108627319 18.557933807,18.108627319 18.557933807,18.108627319 L18.557933807,18.108627319 C14.333156586,15.693860054 14.333156586,15.693860054 14.333156586,15.693860054 L14.333156586,15.693860054 C0,23.917697906 0,23.917697906 0,23.917697906 L0,23.917697906 C14.260755539,32.067005157 14.260755539,32.067005157 14.260755539,32.067005157 L14.260755539,32.067005157 C18.562192917,29.726768494 18.562192917,29.726768494 18.562192917,29.726768494 L18.562192917,29.726768494 C12.07383728,25.878898621 12.07383728,25.878898621 12.07383728,25.878898621 L12.07383728,25.878898621 C25.957685471,25.878898621 25.957685471,25.878898621 25.957685471,25.878898621 L25.957685471,25.878898621 C26.485782623,27.691038132 27.918886185,29.426519394 30.408182144,30.857492447 L30.408182144,30.857492447 C32.897480011,32.216064453 35.991531372,33.121070862 39.236778259,33.42345047 L39.236778259,33.42345047 C39.236778259,41.270378113 39.236778259,41.270378113 39.236778259,41.270378113 L39.236778259,41.270378113 C32.7462883,37.575824738 32.7462883,37.575824738 32.7462883,37.575824738 L32.7462883,37.575824738 C28.521511078,39.990592957 28.521511078,39.990592957 28.521511078,39.990592957 L28.521511078,39.990592957 C42.631076813,48.288963318 42.631076813,48.288963318 42.631076813,48.288963318 L42.631076813,48.288963318 C56.966365814,39.990592957 56.966365814,39.990592957 56.966365814,39.990592957 L56.966365814,39.990592957 C52.664928436,37.575824738 52.664928436,37.575824738 52.664928436,37.575824738 L52.664928436,37.575824738 C46.251102448,41.272510529 46.251102448,41.272510529 46.251102448,41.272510529 L46.251102448,41.272510529 C46.251102448,39.083457947 46.251102448,35.84034729 46.251102448,33.197731018 L46.251102448,33.197731018 C48.817058563,32.746292114 51.229694366,31.990346909 53.267555237,30.857492447 L53.267555237,30.857492447 C55.379943848,29.57557869 56.666114807,28.142477036 57.417804718,26.632713318 L57.417804718,26.632713318 C71.301651001,26.632713318 71.301651001,26.632713318 71.301651001,26.632713318 L71.301651001,26.632713318 C64.813293457,30.480585098 64.813293457,30.480585098 64.813293457,30.480585098 L64.813293457,30.480585098 C69.038070679,32.818695068 69.038070679,32.818695068 69.038070679,32.818695068 L69.038070679,32.818695068 C83.298828125,24.66938591 83.298828125,24.66938591 83.298828125,24.66938591 L83.298828125,24.66938591 C69.112602234,16.445547104 69.112602234,16.445547104 69.112602234,16.445547104 L69.112602234,16.445547104 C64.962356567,18.934844971 64.962356567,18.934844971 64.962356567,18.934844971 L64.962356567,18.934844971 C71.376182556,22.556995392 71.376182556,22.556995392 71.376182556,22.556995392 L71.376182556,22.556995392 C67.604972839,22.556995392 62.396396637,22.556995392 57.796840668,22.556995392 L57.796840668,22.556995392 C57.343273163,20.82151413 55.833511353,19.01150322 53.342086792,17.578401566 L53.342086792,17.578401566 C50.854919434,16.145298004 47.909923553,15.314822197 44.818000793,14.937913895 L44.818000793,14.937913895 C44.818000793,6.863135338 44.818000793,6.863135338 44.818000793,6.863135338 L44.818000793,6.863135338 C51.229694366,10.638605118 51.229694366,10.638605118 51.229694366,10.638605118 L51.229694366,10.638605118 L51.229694366,10.638605118 L51.229694366,10.638605118 L51.229694366,10.638605118 L51.229694366,10.638605118 L51.229694366,10.638605118 L51.229694366,10.638605118 L51.229694366,10.638605118 M35.914875031,20.674585342 C39.234645844,18.787912369 44.515617371,18.787912369 47.835391998,20.674585342 L47.835391998,20.674585342 C51.07850647,22.561254501 51.07850647,25.729839325 47.760864258,27.616508484 L47.760864258,27.616508484 C44.441093445,29.50317955 39.157985687,29.50317955 35.914875031,27.616508484 L35.914875031,27.616508484 C32.595100403,25.729839325 32.671760559,22.561254501 35.914875031,20.674585342 " stroke="none" stroke-width="0" fill="#FFFFFF"  fill-rule="evenodd"/>
      </g>
     </g>
     <g transform="matrix(1,0,0,1,93.69249,264.44833)" v:mID="195">
      <title>Sheet.195</title>
      <g transform="matrix(1,0,0,1,57.94803,0)" v:mID="196">
       <title>Sheet.196</title>
       <path d="M57.943775177,50.703727722 L57.943775177,33.500106812 L57.943775177,33.500106812 L0,0 L0,0 L0,16.90124321 L0,16.90124321 L57.943775177,50.703727722 L57.943775177,50.703727722 L57.943775177,50.703727722 L57.943775177,50.703727722 L57.943775177,50.703727722 L57.943775177,50.703727722 L57.943775177,50.703727722 L57.943775177,50.703727722 L57.943775177,50.703727722 " stroke="none" stroke-width="0" fill="#2A3174"  fill-rule="evenodd"/>
      </g>
      <g transform="matrix(1,0,0,1,0,0)" v:mID="197">
       <title>Sheet.197</title>
       <path d="M57.948032379,16.90124321 L57.948032379,0 L57.948032379,0 L0,33.500106812 L0,33.500106812 L0,50.703727722 L0,50.703727722 L57.948032379,16.90124321 L57.948032379,16.90124321 L57.948032379,16.90124321 L57.948032379,16.90124321 L57.948032379,16.90124321 L57.948032379,16.90124321 L57.948032379,16.90124321 L57.948032379,16.90124321 L57.948032379,16.90124321 " stroke="none" stroke-width="0" fill="#37468B"  fill-rule="evenodd"/>
      </g>
      <g transform="matrix(1,0,0,1,0,16.901241)" v:mID="198">
       <title>Sheet.198</title>
       <path d="M115.891807556,33.199859619 L58.173751831,0 L58.173751831,0 L0,33.199859619 L0,33.199859619 L57.796844482,66.397590637 L57.796844482,66.397590637 L115.891807556,33.199859619 L115.891807556,33.199859619 L115.891807556,33.199859619 L115.891807556,33.199859619 L115.891807556,33.199859619 L115.891807556,33.199859619 L115.891807556,33.199859619 L115.891807556,33.199859619 L115.891807556,33.199859619 " stroke="none" stroke-width="0" fill="#4F62A5"  fill-rule="evenodd"/>
      </g>
      <g transform="matrix(1,0,0,1,41.042534,56.736393)" v:mID="199">
       <title>Sheet.199</title>
       <path d="M12.829782486,5.28523159 C12.678593636,18.036224365 12.678593636,18.036224365 12.678593636,18.036224365 L12.678593636,18.036224365 C12.678593636,19.394798279 14.565263748,20.525522232 16.828842163,20.525522232 L16.828842163,20.525522232 C18.036226273,20.525522232 19.092420578,20.223146439 19.771705627,19.695047379 L19.771705627,19.695047379 C20.602182388,19.318138123 21.051490784,18.715513229 21.051490784,18.034095764 L21.051490784,18.034095764 C21.130279541,5.283102036 21.130279541,5.283102036 21.130279541,5.283102036 L21.130279541,5.283102036 C28.823890686,9.659069061 28.823890686,9.659069061 28.823890686,9.659069061 L28.823890686,9.659069061 C33.80248642,6.865264893 33.80248642,6.865264893 33.80248642,6.865264893 L33.80248642,6.865264893 C21.956497192,0 21.956497192,0 21.956497192,0 L21.956497192,0 C20.372205734,0.376908123 18.636724472,0.528097272 16.750053406,0.528097272 L16.750053406,0.528097272 C14.940042496,0.528097272 13.430280685,0.376908123 11.845989227,0.076659285 L11.845989227,0.076659285 C0,6.865264893 0,6.865264893 0,6.865264893 L0,6.865264893 C5.055253983,9.659069061 5.055253983,9.659069061 5.055253983,9.659069061 L5.055253983,9.659069061 C12.829782486,5.28523159 12.829782486,5.28523159 12.829782486,5.28523159 L12.829782486,5.28523159 L12.829782486,5.28523159 L12.829782486,5.28523159 L12.829782486,5.28523159 " stroke="none" stroke-width="0" fill="#2A3174"  fill-rule="evenodd"/>
      </g>
      <g transform="matrix(1,0,0,1,50.70373,44.66894)" v:mID="200">
       <title>Sheet.200</title>
       <path d="M14.486475945,4.224778652 C14.486475945,1.884540796 11.317892075,0 7.318832397,0 L7.318832397,0 C5.280972958,0 3.470962286,0.453567445 2.189048529,1.207383752 L2.189048529,1.207383752 C0.830475628,2.03785944 0,3.019524097 0,4.224778652 L0,4.224778652 C0,6.488357067 3.243113518,8.449557304 7.24430275,8.449557304 L7.24430275,8.449557304 C9.280032158,8.449557304 11.092172623,7.921459675 12.374087334,7.165513992 L12.374087334,7.165513992 C13.73265934,6.411697865 14.486475945,5.355503082 14.486475945,4.224778652 L14.486475945,4.224778652 L14.486475945,4.224778652 L14.486475945,4.224778652 L14.486475945,4.224778652 " stroke="none" stroke-width="0" fill="#2A3174"  fill-rule="evenodd"/>
      </g>
      <g transform="matrix(1,0,0,1,10.866453,39.83941)" v:mID="201">
       <title>Sheet.201</title>
       <path d="M35.007740021,12.750993729 C34.102737427,11.694799423 33.49797821,10.410756111 33.49797821,9.203372955 L33.49797821,9.203372955 C33.49797821,8.14717865 33.874889374,7.016453743 34.554172516,6.185977936 L34.554172516,6.185977936 C23.84103775,-0 23.84103775,-0 23.84103775,-0 L23.84103775,-0 C18.862443924,2.866205215 18.862443924,2.866205215 18.862443924,2.866205215 L18.862443924,2.866205215 C26.48365593,7.242173195 26.48365593,7.242173195 26.48365593,7.242173195 L26.48365593,7.242173195 C4.224778652,7.242173195 4.224778652,7.242173195 4.224778652,7.242173195 L4.224778652,7.242173195 C3.091924429,7.242173195 1.961200118,7.544551373 1.281913638,7.921459198 L1.281913638,7.921459198 C0.528097332,8.375026703 0,8.977653503 0,9.582410812 L0,9.582410812 C0,10.940982819 1.886670232,11.997177124 4.150249004,11.997177124 L4.150249004,11.997177124 C26.48365593,11.997177124 26.48365593,11.997177124 26.48365593,11.997177124 L26.48365593,11.997177124 C18.787912369,16.449804306 18.787912369,16.449804306 18.787912369,16.449804306 L18.787912369,16.449804306 C23.76651001,19.316009521 23.76651001,19.316009521 23.76651001,19.316009521 L23.76651001,19.316009521 C35.007740021,12.750993729 35.007740021,12.750993729 35.007740021,12.750993729 L35.007740021,12.750993729 L35.007740021,12.750993729 L35.007740021,12.750993729 L35.007740021,12.750993729 " stroke="none" stroke-width="0" fill="#2A3174"  fill-rule="evenodd"/>
      </g>
      <g transform="matrix(1,0,0,1,71.229256,38.629894)" v:mID="202">
       <title>Sheet.202</title>
       <path d="M0.223589599,7.169772148 C0.677157044,8.074777603 0.977405965,8.979783058 0.977405965,10.11263752 L0.977405965,10.11263752 C0.977405965,11.168831825 0.677157044,12.299555779 0,13.206690788 L0,13.206690788 C11.616010666,20.525522232 11.616010666,20.525522232 11.616010666,20.525522232 L11.616010666,20.525522232 C16.524335861,17.431468964 16.524335861,17.431468964 16.524335861,17.431468964 L16.524335861,17.431468964 C9.05431366,12.678593636 9.05431366,12.678593636 9.05431366,12.678593636 L9.05431366,12.678593636 C31.010812759,12.678593636 31.010812759,12.678593636 31.010812759,12.678593636 L31.010812759,12.678593636 C32.067005157,12.678593636 33.123199463,12.452874184 33.877017975,11.999307632 L33.877017975,11.999307632 C34.554172516,11.547868729 35.007740021,10.943112373 35.007740021,10.263825417 L35.007740021,10.263825417 C35.007740021,8.756193161 33.197731018,7.697869778 31.010812759,7.697869778 L31.010812759,7.697869778 C9.05431366,7.697869778 9.05431366,7.697869778 9.05431366,7.697869778 L9.05431366,7.697869778 C16.598865509,3.019523859 16.598865509,3.019523859 16.598865509,3.019523859 L16.598865509,3.019523859 C11.769330025,0 11.769330025,0 11.769330025,0 L11.769330025,0 C0.223589599,7.169772148 0.223589599,7.169772148 0.223589599,7.169772148 L0.223589599,7.169772148 L0.223589599,7.169772148 L0.223589599,7.169772148 L0.223589599,7.169772148 " stroke="none" stroke-width="0" fill="#2A3174"  fill-rule="evenodd"/>
      </g>
      <g transform="matrix(1,0,0,1,42.252045,21.730778)" v:mID="203">
       <title>Sheet.203</title>
       <path d="M21.053621292,14.563135147 C21.12815094,2.186918974 21.12815094,2.186918974 21.12815094,2.186918974 L21.12815094,2.186918974 C21.12815094,0.981664777 19.31388092,-0 17.052433014,-0 L17.052433014,-0 C15.845048904,-0 14.863384247,0.151189148 14.109567642,0.602627158 L14.109567642,0.602627158 C13.279091835,0.981664777 12.82552433,1.509762049 12.82552433,2.186918974 L12.82552433,2.186918974 C12.82552433,14.563135147 12.82552433,14.563135147 12.82552433,14.563135147 L12.82552433,14.563135147 C5.055254459,10.259567261 5.055254459,10.259567261 5.055254459,10.259567261 L5.055254459,10.259567261 C0,13.053372383 0,13.053372383 0,13.053372383 L0,13.053372383 C10.86432457,19.013631821 10.86432457,19.013631821 10.86432457,19.013631821 L10.86432457,19.013631821 C12.448616982,18.636724472 14.18409729,18.408876419 16.070768356,18.408876419 L16.070768356,18.408876419 C18.334346771,18.408876419 20.448865891,18.71125412 22.407936096,19.31388092 L22.407936096,19.31388092 C33.804615021,13.051243782 33.804615021,13.051243782 33.804615021,13.051243782 L33.804615021,13.051243782 C28.821762085,10.257437706 28.821762085,10.257437706 28.821762085,10.257437706 L28.821762085,10.257437706 C21.053621292,14.563135147 21.053621292,14.563135147 21.053621292,14.563135147 L21.053621292,14.563135147 L21.053621292,14.563135147 L21.053621292,14.563135147 L21.053621292,14.563135147 " stroke="none" stroke-width="0" fill="#2A3174"  fill-rule="evenodd"/>
      </g>
      <g transform="matrix(1,0,0,1,41.042534,56.740646)" v:mID="204">
       <title>Sheet.204</title>
       <path d="M12.829782486,5.206442833 C12.678593636,18.185287476 12.678593636,18.185287476 12.678593636,18.185287476 L12.678593636,18.185287476 C12.678593636,19.392669678 14.565263748,20.523393631 16.828842163,20.523393631 L16.828842163,20.523393631 C18.036226273,20.523393631 19.092420578,20.297674179 19.771705627,19.844108582 L19.771705627,19.844108582 C20.602182388,19.392669678 21.051490784,18.864572525 21.051490784,18.185287476 L21.051490784,18.185287476 C21.130279541,5.206442833 21.130279541,5.206442833 21.130279541,5.206442833 L21.130279541,5.206442833 C28.823890686,9.659070015 28.823890686,9.659070015 28.823890686,9.659070015 L28.823890686,9.659070015 C33.80248642,6.790735245 33.80248642,6.790735245 33.80248642,6.790735245 L33.80248642,6.790735245 C21.956497192,0 21.956497192,0 21.956497192,0 L21.956497192,0 C20.372205734,0.376908183 18.636724472,0.528097332 16.750053406,0.528097332 L16.750053406,0.528097332 C14.940042496,0.528097332 13.430280685,0.376908183 11.845989227,0.076659285 L11.845989227,0.076659285 C0,6.790735245 0,6.790735245 0,6.790735245 L0,6.790735245 C5.055253983,9.659070015 5.055253983,9.659070015 5.055253983,9.659070015 L5.055253983,9.659070015 C12.829782486,5.206442833 12.829782486,5.206442833 12.829782486,5.206442833 L12.829782486,5.206442833 L12.829782486,5.206442833 L12.829782486,5.206442833 L12.829782486,5.206442833 " stroke="none" stroke-width="0" fill="#FFFFFF"  fill-rule="evenodd"/>
      </g>
      <g transform="matrix(1,0,0,1,50.70373,45.874195)" v:mID="205">
       <title>Sheet.205</title>
       <path d="M14.486475945,3.547621727 C14.486475945,1.509762049 11.317892075,0 7.318832397,0 L7.318832397,0 C5.280972958,0 3.470962286,0.302378297 2.189048529,0.981664777 L2.189048529,0.981664777 C0.830475628,1.660951257 0,2.565956593 0,3.547621727 L0,3.547621727 C0,5.58548069 3.243113518,7.24430275 7.24430275,7.24430275 L7.24430275,7.24430275 C9.280032158,7.24430275 11.092172623,6.790735245 12.374087334,6.03691864 L12.374087334,6.03691864 C13.73265934,5.43429184 14.486475945,4.603816032 14.486475945,3.547621727 L14.486475945,3.547621727 L14.486475945,3.547621727 L14.486475945,3.547621727 L14.486475945,3.547621727 " stroke="none" stroke-width="0" fill="#FFFFFF"  fill-rule="evenodd"/>
      </g>
      <g transform="matrix(1,0,0,1,10.866453,39.83941)" v:mID="206">
       <title>Sheet.206</title>
       <path d="M35.007740021,12.82552433 C34.102737427,11.769329071 33.49797821,10.487415314 33.49797821,9.128842354 L33.49797821,9.128842354 C33.49797821,8.072648048 33.874889374,7.090983868 34.554172516,6.111448288 L34.554172516,6.111448288 C23.84103775,-0 23.84103775,-0 23.84103775,-0 L23.84103775,-0 C18.862443924,2.866205215 18.862443924,2.866205215 18.862443924,2.866205215 L18.862443924,2.866205215 C26.48365593,7.318832397 26.48365593,7.318832397 26.48365593,7.318832397 L26.48365593,7.318832397 C4.224778652,7.318832397 4.224778652,7.318832397 4.224778652,7.318832397 L4.224778652,7.318832397 C3.091924429,7.318832397 1.961200118,7.470021248 1.281913638,7.998118401 L1.281913638,7.998118401 C0.528097332,8.375026703 0,8.977653503 0,9.65694046 L0,9.65694046 C0,10.940982819 1.886670232,12.071707726 4.150249004,12.071707726 L4.150249004,12.071707726 C26.48365593,12.071707726 26.48365593,12.071707726 26.48365593,12.071707726 L26.48365593,12.071707726 C18.787912369,16.37314415 18.787912369,16.37314415 18.787912369,16.37314415 L18.787912369,16.37314415 C23.76651001,19.316009521 23.76651001,19.316009521 23.76651001,19.316009521 L23.76651001,19.316009521 C35.007740021,12.82552433 35.007740021,12.82552433 35.007740021,12.82552433 L35.007740021,12.82552433 L35.007740021,12.82552433 L35.007740021,12.82552433 L35.007740021,12.82552433 " stroke="none" stroke-width="0" fill="#FFFFFF"  fill-rule="evenodd"/>
      </g>
      <g transform="matrix(1,0,0,1,71.229256,39.83941)" v:mID="207">
       <title>Sheet.207</title>
       <path d="M0.223589599,6.639545441 C0.677157044,7.544551373 0.977405965,8.526215553 0.977405965,9.505750656 L0.977405965,9.505750656 C0.977405965,10.561945915 0.677157044,11.543610573 0,12.448616028 L0,12.448616028 C11.616010666,19.316009521 11.616010666,19.316009521 11.616010666,19.316009521 L11.616010666,19.316009521 C16.524335861,16.37314415 16.524335861,16.37314415 16.524335861,16.37314415 L16.524335861,16.37314415 C9.05431366,11.997177124 9.05431366,11.997177124 9.05431366,11.997177124 L9.05431366,11.997177124 C31.010812759,11.997177124 31.010812759,11.997177124 31.010812759,11.997177124 L31.010812759,11.997177124 C32.067005157,11.997177124 33.123199463,11.694799423 33.877017975,11.317891121 L33.877017975,11.317891121 C34.554172516,10.866454124 35.007740021,10.261696815 35.007740021,9.582410812 L35.007740021,9.582410812 C35.007740021,8.2983675 33.197731018,7.242173195 31.010812759,7.242173195 L31.010812759,7.242173195 C9.05431366,7.242173195 9.05431366,7.242173195 9.05431366,7.242173195 L9.05431366,7.242173195 C16.598865509,2.791675568 16.598865509,2.791675568 16.598865509,2.791675568 L16.598865509,2.791675568 C11.769330025,0 11.769330025,0 11.769330025,0 L11.769330025,0 C0.223589599,6.639545441 0.223589599,6.639545441 0.223589599,6.639545441 L0.223589599,6.639545441 L0.223589599,6.639545441 L0.223589599,6.639545441 L0.223589599,6.639545441 " stroke="none" stroke-width="0" fill="#FFFFFF"  fill-rule="evenodd"/>
      </g>
      <g transform="matrix(1,0,0,1,42.252045,21.730778)" v:mID="208">
       <title>Sheet.208</title>
       <path d="M21.053621292,15.468140602 C21.12815094,2.414767504 21.12815094,2.414767504 21.12815094,2.414767504 L21.12815094,2.414767504 C21.12815094,1.056194663 19.31388092,0 17.052433014,0 L17.052433014,0 C15.845048904,0 14.863384247,0.22571902 14.109567642,0.753816366 L14.109567642,0.753816366 C13.279091835,1.130724549 12.82552433,1.733351707 12.82552433,2.412638187 L12.82552433,2.412638187 C12.82552433,15.466012001 12.82552433,15.466012001 12.82552433,15.466012001 L12.82552433,15.466012001 C5.055254459,11.013383865 5.055254459,11.013383865 5.055254459,11.013383865 L5.055254459,11.013383865 C0,13.881719589 0,13.881719589 0,13.881719589 L0,13.881719589 C10.86432457,20.221017838 10.86432457,20.221017838 10.86432457,20.221017838 L10.86432457,20.221017838 C12.448616982,19.767448425 14.18409729,19.616260529 16.070768356,19.616260529 L16.070768356,19.616260529 C18.334346771,19.616260529 20.448865891,19.993167877 22.407936096,20.52126503 L22.407936096,20.52126503 C33.804615021,13.881719589 33.804615021,13.881719589 33.804615021,13.881719589 L33.804615021,13.881719589 C28.821762085,11.013383865 28.821762085,11.013383865 28.821762085,11.013383865 L28.821762085,11.013383865 C21.053621292,15.468140602 21.053621292,15.468140602 21.053621292,15.468140602 L21.053621292,15.468140602 L21.053621292,15.468140602 L21.053621292,15.468140602 L21.053621292,15.468140602 " stroke="none" stroke-width="0" fill="#FFFFFF"  fill-rule="evenodd"/>
      </g>
     </g>
     <g transform="matrix(1,0,0,1,121.39775,18.023289)" v:mID="223">
      <title>Sheet.223</title>
      <g transform="matrix(1,0,0,1,22.177895,2.2008705)" v:mID="224">
       <title>Sheet.224</title>
       <path d="M0.126598671,54.142837524 L38.303398132,77.615936279 L38.303398132,77.615936279 L38.179237366,23.459705353 L38.179237366,23.459705353 L0,0 L0,0 L0.126598671,54.142837524 L0.126598671,54.142837524 L0.126598671,54.142837524 L0.126598671,54.142837524 L0.126598671,54.142837524 L0.126598671,54.142837524 L0.126598671,54.142837524 " stroke="none" stroke-width="0" fill="#2A3174"  fill-rule="evenodd"/>
      </g>
      <g transform="matrix(1,0,0,1,2.8131695,56.343704)" v:mID="225">
       <title>Sheet.225</title>
       <path d="M0,11.875928879 L38.252269745,35.269901276 L38.252269745,35.269901276 L57.668125153,23.473096848 L57.668125153,23.473096848 L19.491325378,0 L19.491325378,0 L0,11.875928879 L0,11.875928879 L0,11.875928879 L0,11.875928879 L0,11.875928879 L0,11.875928879 L0,11.875928879 " stroke="none" stroke-width="0" fill="#4F62A5"  fill-rule="evenodd"/>
      </g>
      <g transform="matrix(1,0,0,1,2.687787,2.2008667)" v:mID="226">
       <title>Sheet.226</title>
       <path d="M19.616706848,54.142837524 L19.49010849,-0 L19.49010849,-0 L0,11.875928879 L0,11.875928879 L0.125381365,66.018768311 L0.125381365,66.018768311 L19.616706848,54.142837524 L19.616706848,54.142837524 L19.616706848,54.142837524 L19.616706848,54.142837524 L19.616706848,54.142837524 L19.616706848,54.142837524 L19.616706848,54.142837524 " stroke="none" stroke-width="0" fill="#3B4687"  fill-rule="evenodd"/>
      </g>
      <g transform="matrix(1,0,0,1,5.022558,11.955052)" v:mID="227">
       <title>Sheet.227</title>
       <path d="M0,1.192948937 L1.947671771,2.399287939 L1.947671771,2.399287939 L1.947671771,1.125997663 L1.947671771,1.125997663 L0,0 L0,0 L0,1.192948937 L0,1.192948937 L0,1.192948937 L0,1.192948937 L0,1.192948937 L0,1.192948937 L0,1.192948937 " stroke="none" stroke-width="0" fill="#2A3174"  fill-rule="evenodd"/>
      </g>
      <g transform="matrix(1,0,0,1,5.022558,14.288607)" v:mID="228">
       <title>Sheet.228</title>
       <path d="M0,1.192948937 L1.947671771,2.398070812 L1.947671771,2.398070812 L1.947671771,1.124780416 L1.947671771,1.124780416 L0,0 L0,0 L0,1.192948937 L0,1.192948937 L0,1.192948937 L0,1.192948937 L0,1.192948937 L0,1.192948937 L0,1.192948937 " stroke="none" stroke-width="0" fill="#2A3174"  fill-rule="evenodd"/>
      </g>
      <g transform="matrix(1,0,0,1,5.022558,16.620943)" v:mID="229">
       <title>Sheet.229</title>
       <path d="M0.076689579,1.192948937 L1.947671771,2.399287939 L1.947671771,2.399287939 L1.947671771,1.125997663 L1.947671771,1.125997663 L0,-0 L0,-0 L0.076689579,1.192948937 L0.076689579,1.192948937 L0.076689579,1.192948937 L0.076689579,1.192948937 L0.076689579,1.192948937 L0.076689579,1.192948937 L0.076689579,1.192948937 " stroke="none" stroke-width="0" fill="#2A3174"  fill-rule="evenodd"/>
      </g>
      <g transform="matrix(1,0,0,1,5.099248,18.953281)" v:mID="230">
       <title>Sheet.230</title>
       <path d="M0,1.192948937 L1.87098217,2.399287939 L1.87098217,2.399287939 L1.87098217,1.125997663 L1.87098217,1.125997663 L0,-0 L0,-0 L0,1.192948937 L0,1.192948937 L0,1.192948937 L0,1.192948937 L0,1.192948937 L0,1.192948937 L0,1.192948937 " stroke="none" stroke-width="0" fill="#2A3174"  fill-rule="evenodd"/>
      </g>
      <g transform="matrix(1,0,0,1,5.099248,21.285616)" v:mID="231">
       <title>Sheet.231</title>
       <path d="M0,1.194166183 L1.87098217,2.399287939 L1.87098217,2.399287939 L1.87098217,1.125997663 L1.87098217,1.125997663 L0,0 L0,0 L0,1.194166183 L0,1.194166183 L0,1.194166183 L0,1.194166183 L0,1.194166183 L0,1.194166183 L0,1.194166183 " stroke="none" stroke-width="0" fill="#2A3174"  fill-rule="evenodd"/>
      </g>
      <g transform="matrix(1,0,0,1,5.099248,23.619171)" v:mID="232">
       <title>Sheet.232</title>
       <path d="M0,1.192948937 L1.87098217,2.399287939 L1.87098217,2.399287939 L1.87098217,1.124780416 L1.87098217,1.124780416 L0,-0 L0,-0 L0,1.192948937 L0,1.192948937 L0,1.192948937 L0,1.192948937 L0,1.192948937 L0,1.192948937 L0,1.192948937 " stroke="none" stroke-width="0" fill="#2A3174"  fill-rule="evenodd"/>
      </g>
      <g transform="matrix(1,0,0,1,19.491325,0)" v:mID="233">
       <title>Sheet.233</title>
       <path d="M0,3.115057468 L1.883155107,4.320179462 L1.883155107,4.320179462 L1.883155107,1.139387846 L1.883155107,1.139387846 L0,0 L0,0 L0,3.115057468 L0,3.115057468 L0,3.115057468 L0,3.115057468 L0,3.115057468 L0,3.115057468 L0,3.115057468 " stroke="none" stroke-width="0" fill="#2A3174"  fill-rule="evenodd"/>
      </g>
      <g transform="matrix(1,0,0,1,5.022558,3.115058)" v:mID="234">
       <title>Sheet.234</title>
       <path d="M0,8.839994431 L1.947671771,9.965991974 L1.947671771,9.965991974 L16.351921082,1.205121875 L16.351921082,1.205121875 L14.468765259,0 L14.468765259,0 L0,8.839994431 L0,8.839994431 L0,8.839994431 L0,8.839994431 L0,8.839994431 L0,8.839994431 L0,8.839994431 " stroke="none" stroke-width="0" fill="#4F62A5"  fill-rule="evenodd"/>
      </g>
      <g transform="matrix(1,0,0,1,5.022558,5.4473953)" v:mID="235">
       <title>Sheet.235</title>
       <path d="M0,8.841211319 L1.947671771,9.965991974 L1.947671771,9.965991974 L16.351921082,1.206339121 L16.351921082,1.206339121 L14.468765259,0 L14.468765259,0 L0,8.841211319 L0,8.841211319 L0,8.841211319 L0,8.841211319 L0,8.841211319 L0,8.841211319 L0,8.841211319 " stroke="none" stroke-width="0" fill="#4F62A5"  fill-rule="evenodd"/>
      </g>
      <g transform="matrix(1,0,0,1,19.491325,4.388348)" v:mID="236">
       <title>Sheet.236</title>
       <path d="M0,1.059046507 L1.883155107,2.265385628 L1.883155107,2.265385628 L1.883155107,1.205121875 L1.883155107,1.205121875 L0,0 L0,0 L0,1.059046507 L0,1.059046507 L0,1.059046507 L0,1.059046507 L0,1.059046507 L0,1.059046507 L0,1.059046507 " stroke="none" stroke-width="0" fill="#2A3174"  fill-rule="evenodd"/>
      </g>
      <g transform="matrix(1,0,0,1,5.022558,7.7797313)" v:mID="237">
       <title>Sheet.237</title>
       <path d="M0,8.841212273 L1.947671771,9.967209816 L1.947671771,9.967209816 L16.351921082,1.20633924 L16.351921082,1.20633924 L14.468765259,-0 L14.468765259,-0 L0,8.841212273 L0,8.841212273 L0,8.841212273 L0,8.841212273 L0,8.841212273 L0,8.841212273 L0,8.841212273 " stroke="none" stroke-width="0" fill="#4F62A5"  fill-rule="evenodd"/>
      </g>
      <g transform="matrix(1,0,0,1,19.491325,6.720685)" v:mID="238">
       <title>Sheet.238</title>
       <path d="M0,1.059046507 L1.883155107,2.265385628 L1.883155107,2.265385628 L1.883155107,1.20633924 L1.883155107,1.20633924 L0,0 L0,0 L0,1.059046507 L0,1.059046507 L0,1.059046507 L0,1.059046507 L0,1.059046507 L0,1.059046507 L0,1.059046507 " stroke="none" stroke-width="0" fill="#2A3174"  fill-rule="evenodd"/>
      </g>
      <g transform="matrix(1,0,0,1,19.491325,9.053022)" v:mID="239">
       <title>Sheet.239</title>
       <path d="M0,1.060263872 L1.945237041,2.265385628 L1.945237041,2.265385628 L1.883155107,1.20633924 L1.883155107,1.20633924 L0,-0 L0,-0 L0,1.060263872 L0,1.060263872 L0,1.060263872 L0,1.060263872 L0,1.060263872 L0,1.060263872 L0,1.060263872 " stroke="none" stroke-width="0" fill="#2A3174"  fill-rule="evenodd"/>
      </g>
      <g transform="matrix(1,0,0,1,5.099248,10.113285)" v:mID="240">
       <title>Sheet.240</title>
       <path d="M0,8.839994431 L1.87098217,9.965991974 L1.87098217,9.965991974 L16.337314606,1.205121875 L16.337314606,1.205121875 L14.392076492,0 L14.392076492,0 L0,8.839994431 L0,8.839994431 L0,8.839994431 L0,8.839994431 L0,8.839994431 L0,8.839994431 L0,8.839994431 " stroke="none" stroke-width="0" fill="#4F62A5"  fill-rule="evenodd"/>
      </g>
      <g transform="matrix(1,0,0,1,19.491325,11.386576)" v:mID="241">
       <title>Sheet.241</title>
       <path d="M0,1.059046507 L1.945237041,2.265385628 L1.945237041,2.265385628 L1.945237041,1.205121875 L1.945237041,1.205121875 L0,0 L0,0 L0,1.059046507 L0,1.059046507 L0,1.059046507 L0,1.059046507 L0,1.059046507 L0,1.059046507 L0,1.059046507 " stroke="none" stroke-width="0" fill="#2A3174"  fill-rule="evenodd"/>
      </g>
      <g transform="matrix(1,0,0,1,5.099248,12.445623)" v:mID="242">
       <title>Sheet.242</title>
       <path d="M0,8.839994431 L1.87098217,9.965991974 L1.87098217,9.965991974 L16.337314606,1.206339121 L16.337314606,1.206339121 L14.392076492,0 L14.392076492,0 L0,8.839994431 L0,8.839994431 L0,8.839994431 L0,8.839994431 L0,8.839994431 L0,8.839994431 L0,8.839994431 " stroke="none" stroke-width="0" fill="#4F62A5"  fill-rule="evenodd"/>
      </g>
      <g transform="matrix(1,0,0,1,19.491325,13.718914)" v:mID="243">
       <title>Sheet.243</title>
       <path d="M0,1.059046507 L1.945237041,2.265385628 L1.945237041,2.265385628 L1.945237041,1.20633924 L1.945237041,1.20633924 L0,0 L0,0 L0,1.059046507 L0,1.059046507 L0,1.059046507 L0,1.059046507 L0,1.059046507 L0,1.059046507 L0,1.059046507 " stroke="none" stroke-width="0" fill="#2A3174"  fill-rule="evenodd"/>
      </g>
      <g transform="matrix(1,0,0,1,5.099248,14.77796)" v:mID="244">
       <title>Sheet.244</title>
       <path d="M0,8.841211319 L1.87098217,9.965991974 L1.87098217,9.965991974 L16.337314606,1.206339121 L16.337314606,1.206339121 L14.392076492,0 L14.392076492,0 L0,8.841211319 L0,8.841211319 L0,8.841211319 L0,8.841211319 L0,8.841211319 L0,8.841211319 L0,8.841211319 " stroke="none" stroke-width="0" fill="#4F62A5"  fill-rule="evenodd"/>
      </g>
      <g transform="matrix(1,0,0,1,2.687787,55.137367)" v:mID="245">
       <title>Sheet.245</title>
       <path d="M0,2.054793596 L1.87098217,3.180791378 L1.87098217,3.180791378 L1.87098217,1.20633924 L1.87098217,1.20633924 L0,0 L0,0 L0,2.054793596 L0,2.054793596 L0,2.054793596 L0,2.054793596 L0,2.054793596 L0,2.054793596 L0,2.054793596 " stroke="none" stroke-width="0" fill="#2A3174"  fill-rule="evenodd"/>
      </g>
      <g transform="matrix(1,0,0,1,2.687788,46.376495)" v:mID="246">
       <title>Sheet.246</title>
       <path d="M0,8.760870934 L1.87098217,9.967209816 L1.87098217,9.967209816 L16.275230408,1.20633924 L16.275230408,1.20633924 L14.390859604,0 L14.390859604,0 L0,8.760870934 L0,8.760870934 L0,8.760870934 L0,8.760870934 L0,8.760870934 L0,8.760870934 L0,8.760870934 " stroke="none" stroke-width="0" fill="#4F62A5"  fill-rule="evenodd"/>
      </g>
      <g transform="matrix(1,0,0,1,19.491325,16.05125)" v:mID="247">
       <title>Sheet.247</title>
       <path d="M0.137554318,32.020942688 L2.008536339,33.148155212 L2.008536339,33.148155212 L1.945237041,1.127214909 L1.945237041,1.127214909 L0,0 L0,0 L0.137554318,32.020942688 L0.137554318,32.020942688 L0.137554318,32.020942688 L0.137554318,32.020942688 L0.137554318,32.020942688 L0.137554318,32.020942688 L0.137554318,32.020942688 " stroke="none" stroke-width="0" fill="#2A3174"  fill-rule="evenodd"/>
      </g>
      <g transform="matrix(1,0,0,1,0.13877201,48.07219)" v:mID="248">
       <title>Sheet.248</title>
       <path d="M0,11.810194016 L1.945237041,13.003143311 L1.945237041,13.003143311 L21.361089706,1.127214909 L21.361089706,1.127214909 L19.490106583,0 L19.490106583,0 L0,11.810194016 L0,11.810194016 L0,11.810194016 L0,11.810194016 L0,11.810194016 L0,11.810194016 L0,11.810194016 " stroke="none" stroke-width="0" fill="#4F62A5"  fill-rule="evenodd"/>
      </g>
      <g transform="matrix(1,0,0,1,0,0)" v:mID="249">
       <title>Sheet.249</title>
       <path d="M19.491325378,16.051250458 L5.099248409,24.812120438 L5.099248409,24.812120438 L5.099248409,23.619171143 L5.099248409,23.619171143 L19.491325378,14.77795887 L19.491325378,14.77795887 L19.491325378,13.718913078 L19.491325378,13.718913078 L5.099248409,22.479784012 L5.099248409,22.479784012 L5.099248409,21.285617828 L5.099248409,21.285617828 L19.491325378,12.445622444 L19.491325378,12.445622444 L19.491325378,11.386575699 L19.491325378,11.386575699 L5.099248409,20.14622879 L5.099248409,20.14622879 L5.099248409,18.953281403 L5.099248409,18.953281403 L19.491325378,10.113285065 L19.491325378,10.113285065 L19.491325378,9.053022385 L19.491325378,9.053022385 L5.099248409,17.813892365 L5.099248409,17.813892365 L5.022558689,16.620943069 L5.022558689,16.620943069 L19.49010849,7.779731274 L19.49010849,7.779731274 L19.49010849,6.720684528 L19.49010849,6.720684528 L5.022558689,15.481555939 L5.022558689,15.481555939 L5.022558689,14.288606644 L5.022558689,14.288606644 L19.49010849,5.447394371 L19.49010849,5.447394371 L19.49010849,4.388348103 L19.49010849,4.388348103 L5.022558689,13.148001671 L5.022558689,13.148001671 L5.022558689,11.955053329 L5.022558689,11.955053329 L19.49010849,3.115057468 L19.49010849,3.115057468 L19.49010849,0 L19.49010849,0 L0,11.808977127 L0,11.808977127 L0.138771623,59.882385254 L0.138771623,59.882385254 L19.628879547,48.072189331 L19.628879547,48.072189331 L19.491325378,16.051250458 L19.491325378,16.051250458 L19.491325378,16.051250458 L19.491325378,16.051250458 L19.491325378,16.051250458 L19.491325378,16.051250458 L19.491325378,16.051250458 L19.491325378,16.051250458 L19.491325378,16.051250458 M2.687787294,55.137367249 L17.079864502,46.376495361 L17.079864502,46.376495361 L17.079864502,48.350952148 L17.079864502,48.350952148 L2.687787294,57.19216156 L2.687787294,57.19216156 L2.687787294,55.137367249 L2.687787294,55.137367249 L2.687787294,55.137367249 L2.687787294,55.137367249 L2.687787294,55.137367249 " stroke="none" stroke-width="0" fill="#37468B"  fill-rule="evenodd"/>
      </g>
      <g transform="matrix(1,0,0,1,19.566795,48.708836)" v:mID="250">
       <title>Sheet.250</title>
       <path d="M0,6.085257053 L1.869764805,7.276988506 L1.869764805,7.276988506 L1.869764805,1.127214909 L1.869764805,1.127214909 L0,0 L0,0 L0,6.085257053 L0,6.085257053 L0,6.085257053 L0,6.085257053 L0,6.085257053 L0,6.085257053 L0,6.085257053 " stroke="none" stroke-width="0" fill="#2A3174"  fill-rule="evenodd"/>
      </g>
      <g transform="matrix(1,0,0,1,0.20085335,54.794094)" v:mID="251">
       <title>Sheet.251</title>
       <path d="M0,11.795585632 L1.946454406,12.93497467 L1.946454406,12.93497467 L21.235708237,1.191731572 L21.235708237,1.191731572 L19.365942001,0 L19.365942001,0 L0,11.795585632 L0,11.795585632 L0,11.795585632 L0,11.795585632 L0,11.795585632 L0,11.795585632 L0,11.795585632 " stroke="none" stroke-width="0" fill="#4F62A5"  fill-rule="evenodd"/>
      </g>
      <g transform="matrix(1,0,0,1,0.20085335,48.70883)" v:mID="252">
       <title>Sheet.252</title>
       <path d="M19.365943909,6.085257053 L19.365943909,0 L19.365943909,0 L0,11.731070518 L0,11.731070518 L0,17.880844116 L0,17.880844116 L19.365943909,6.085257053 L19.365943909,6.085257053 L19.365943909,6.085257053 L19.365943909,6.085257053 L19.365943909,6.085257053 L19.365943909,6.085257053 L19.365943909,6.085257053 " stroke="none" stroke-width="0" fill="#37468B"  fill-rule="evenodd"/>
      </g>
     </g>
     <g transform="matrix(1,0,0,1,506.58087,18.023289)" v:mID="253">
      <title>Sheet.253</title>
      <g transform="matrix(1,0,0,1,22.177895,2.2008705)" v:mID="254">
       <title>Sheet.254</title>
       <path d="M0.126598671,54.142837524 L38.303398132,77.615936279 L38.303398132,77.615936279 L38.179237366,23.459705353 L38.179237366,23.459705353 L0,0 L0,0 L0.126598671,54.142837524 L0.126598671,54.142837524 L0.126598671,54.142837524 L0.126598671,54.142837524 L0.126598671,54.142837524 L0.126598671,54.142837524 L0.126598671,54.142837524 " stroke="none" stroke-width="0" fill="#2A3174"  fill-rule="evenodd"/>
      </g>
      <g transform="matrix(1,0,0,1,2.8131695,56.343704)" v:mID="255">
       <title>Sheet.255</title>
       <path d="M0,11.875928879 L38.252269745,35.269901276 L38.252269745,35.269901276 L57.668125153,23.473096848 L57.668125153,23.473096848 L19.491325378,0 L19.491325378,0 L0,11.875928879 L0,11.875928879 L0,11.875928879 L0,11.875928879 L0,11.875928879 L0,11.875928879 L0,11.875928879 " stroke="none" stroke-width="0" fill="#4F62A5"  fill-rule="evenodd"/>
      </g>
      <g transform="matrix(1,0,0,1,2.687787,2.2008667)" v:mID="256">
       <title>Sheet.256</title>
       <path d="M19.616706848,54.142837524 L19.49010849,-0 L19.49010849,-0 L0,11.875928879 L0,11.875928879 L0.125381365,66.018768311 L0.125381365,66.018768311 L19.616706848,54.142837524 L19.616706848,54.142837524 L19.616706848,54.142837524 L19.616706848,54.142837524 L19.616706848,54.142837524 L19.616706848,54.142837524 L19.616706848,54.142837524 " stroke="none" stroke-width="0" fill="#3B4687"  fill-rule="evenodd"/>
      </g>
      <g transform="matrix(1,0,0,1,5.022558,11.955052)" v:mID="257">
       <title>Sheet.257</title>
       <path d="M0,1.192948937 L1.947671771,2.399287939 L1.947671771,2.399287939 L1.947671771,1.125997663 L1.947671771,1.125997663 L0,0 L0,0 L0,1.192948937 L0,1.192948937 L0,1.192948937 L0,1.192948937 L0,1.192948937 L0,1.192948937 L0,1.192948937 " stroke="none" stroke-width="0" fill="#2A3174"  fill-rule="evenodd"/>
      </g>
      <g transform="matrix(1,0,0,1,5.022558,14.288607)" v:mID="258">
       <title>Sheet.258</title>
       <path d="M0,1.192948937 L1.947671771,2.398070812 L1.947671771,2.398070812 L1.947671771,1.124780416 L1.947671771,1.124780416 L0,0 L0,0 L0,1.192948937 L0,1.192948937 L0,1.192948937 L0,1.192948937 L0,1.192948937 L0,1.192948937 L0,1.192948937 " stroke="none" stroke-width="0" fill="#2A3174"  fill-rule="evenodd"/>
      </g>
      <g transform="matrix(1,0,0,1,5.022558,16.620943)" v:mID="259">
       <title>Sheet.259</title>
       <path d="M0.076689579,1.192948937 L1.947671771,2.399287939 L1.947671771,2.399287939 L1.947671771,1.125997663 L1.947671771,1.125997663 L0,-0 L0,-0 L0.076689579,1.192948937 L0.076689579,1.192948937 L0.076689579,1.192948937 L0.076689579,1.192948937 L0.076689579,1.192948937 L0.076689579,1.192948937 L0.076689579,1.192948937 " stroke="none" stroke-width="0" fill="#2A3174"  fill-rule="evenodd"/>
      </g>
      <g transform="matrix(1,0,0,1,5.099248,18.953281)" v:mID="260">
       <title>Sheet.260</title>
       <path d="M0,1.192948937 L1.87098217,2.399287939 L1.87098217,2.399287939 L1.87098217,1.125997663 L1.87098217,1.125997663 L0,-0 L0,-0 L0,1.192948937 L0,1.192948937 L0,1.192948937 L0,1.192948937 L0,1.192948937 L0,1.192948937 L0,1.192948937 " stroke="none" stroke-width="0" fill="#2A3174"  fill-rule="evenodd"/>
      </g>
      <g transform="matrix(1,0,0,1,5.099248,21.285616)" v:mID="261">
       <title>Sheet.261</title>
       <path d="M0,1.194166183 L1.87098217,2.399287939 L1.87098217,2.399287939 L1.87098217,1.125997663 L1.87098217,1.125997663 L0,0 L0,0 L0,1.194166183 L0,1.194166183 L0,1.194166183 L0,1.194166183 L0,1.194166183 L0,1.194166183 L0,1.194166183 " stroke="none" stroke-width="0" fill="#2A3174"  fill-rule="evenodd"/>
      </g>
      <g transform="matrix(1,0,0,1,5.099248,23.619171)" v:mID="262">
       <title>Sheet.262</title>
       <path d="M0,1.192948937 L1.87098217,2.399287939 L1.87098217,2.399287939 L1.87098217,1.124780416 L1.87098217,1.124780416 L0,-0 L0,-0 L0,1.192948937 L0,1.192948937 L0,1.192948937 L0,1.192948937 L0,1.192948937 L0,1.192948937 L0,1.192948937 " stroke="none" stroke-width="0" fill="#2A3174"  fill-rule="evenodd"/>
      </g>
      <g transform="matrix(1,0,0,1,19.491325,0)" v:mID="263">
       <title>Sheet.263</title>
       <path d="M0,3.115057468 L1.883155107,4.320179462 L1.883155107,4.320179462 L1.883155107,1.139387846 L1.883155107,1.139387846 L0,0 L0,0 L0,3.115057468 L0,3.115057468 L0,3.115057468 L0,3.115057468 L0,3.115057468 L0,3.115057468 L0,3.115057468 " stroke="none" stroke-width="0" fill="#2A3174"  fill-rule="evenodd"/>
      </g>
      <g transform="matrix(1,0,0,1,5.022558,3.115058)" v:mID="264">
       <title>Sheet.264</title>
       <path d="M0,8.839994431 L1.947671771,9.965991974 L1.947671771,9.965991974 L16.351921082,1.205121875 L16.351921082,1.205121875 L14.468765259,0 L14.468765259,0 L0,8.839994431 L0,8.839994431 L0,8.839994431 L0,8.839994431 L0,8.839994431 L0,8.839994431 L0,8.839994431 " stroke="none" stroke-width="0" fill="#4F62A5"  fill-rule="evenodd"/>
      </g>
      <g transform="matrix(1,0,0,1,5.022558,5.4473953)" v:mID="265">
       <title>Sheet.265</title>
       <path d="M0,8.841211319 L1.947671771,9.965991974 L1.947671771,9.965991974 L16.351921082,1.206339121 L16.351921082,1.206339121 L14.468765259,0 L14.468765259,0 L0,8.841211319 L0,8.841211319 L0,8.841211319 L0,8.841211319 L0,8.841211319 L0,8.841211319 L0,8.841211319 " stroke="none" stroke-width="0" fill="#4F62A5"  fill-rule="evenodd"/>
      </g>
      <g transform="matrix(1,0,0,1,19.491325,4.388348)" v:mID="266">
       <title>Sheet.266</title>
       <path d="M0,1.059046507 L1.883155107,2.265385628 L1.883155107,2.265385628 L1.883155107,1.205121875 L1.883155107,1.205121875 L0,0 L0,0 L0,1.059046507 L0,1.059046507 L0,1.059046507 L0,1.059046507 L0,1.059046507 L0,1.059046507 L0,1.059046507 " stroke="none" stroke-width="0" fill="#2A3174"  fill-rule="evenodd"/>
      </g>
      <g transform="matrix(1,0,0,1,5.022558,7.7797313)" v:mID="267">
       <title>Sheet.267</title>
       <path d="M0,8.841212273 L1.947671771,9.967209816 L1.947671771,9.967209816 L16.351921082,1.20633924 L16.351921082,1.20633924 L14.468765259,-0 L14.468765259,-0 L0,8.841212273 L0,8.841212273 L0,8.841212273 L0,8.841212273 L0,8.841212273 L0,8.841212273 L0,8.841212273 " stroke="none" stroke-width="0" fill="#4F62A5"  fill-rule="evenodd"/>
      </g>
      <g transform="matrix(1,0,0,1,19.491325,6.720685)" v:mID="268">
       <title>Sheet.268</title>
       <path d="M0,1.059046507 L1.883155107,2.265385628 L1.883155107,2.265385628 L1.883155107,1.20633924 L1.883155107,1.20633924 L0,0 L0,0 L0,1.059046507 L0,1.059046507 L0,1.059046507 L0,1.059046507 L0,1.059046507 L0,1.059046507 L0,1.059046507 " stroke="none" stroke-width="0" fill="#2A3174"  fill-rule="evenodd"/>
      </g>
      <g transform="matrix(1,0,0,1,19.491325,9.053022)" v:mID="269">
       <title>Sheet.269</title>
       <path d="M0,1.060263872 L1.945237041,2.265385628 L1.945237041,2.265385628 L1.883155107,1.20633924 L1.883155107,1.20633924 L0,-0 L0,-0 L0,1.060263872 L0,1.060263872 L0,1.060263872 L0,1.060263872 L0,1.060263872 L0,1.060263872 L0,1.060263872 " stroke="none" stroke-width="0" fill="#2A3174"  fill-rule="evenodd"/>
      </g>
      <g transform="matrix(1,0,0,1,5.099248,10.113285)" v:mID="270">
       <title>Sheet.270</title>
       <path d="M0,8.839994431 L1.87098217,9.965991974 L1.87098217,9.965991974 L16.337314606,1.205121875 L16.337314606,1.205121875 L14.392076492,0 L14.392076492,0 L0,8.839994431 L0,8.839994431 L0,8.839994431 L0,8.839994431 L0,8.839994431 L0,8.839994431 L0,8.839994431 " stroke="none" stroke-width="0" fill="#4F62A5"  fill-rule="evenodd"/>
      </g>
      <g transform="matrix(1,0,0,1,19.491325,11.386576)" v:mID="271">
       <title>Sheet.271</title>
       <path d="M0,1.059046507 L1.945237041,2.265385628 L1.945237041,2.265385628 L1.945237041,1.205121875 L1.945237041,1.205121875 L0,0 L0,0 L0,1.059046507 L0,1.059046507 L0,1.059046507 L0,1.059046507 L0,1.059046507 L0,1.059046507 L0,1.059046507 " stroke="none" stroke-width="0" fill="#2A3174"  fill-rule="evenodd"/>
      </g>
      <g transform="matrix(1,0,0,1,5.099248,12.445623)" v:mID="272">
       <title>Sheet.272</title>
       <path d="M0,8.839994431 L1.87098217,9.965991974 L1.87098217,9.965991974 L16.337314606,1.206339121 L16.337314606,1.206339121 L14.392076492,0 L14.392076492,0 L0,8.839994431 L0,8.839994431 L0,8.839994431 L0,8.839994431 L0,8.839994431 L0,8.839994431 L0,8.839994431 " stroke="none" stroke-width="0" fill="#4F62A5"  fill-rule="evenodd"/>
      </g>
      <g transform="matrix(1,0,0,1,19.491325,13.718914)" v:mID="273">
       <title>Sheet.273</title>
       <path d="M0,1.059046507 L1.945237041,2.265385628 L1.945237041,2.265385628 L1.945237041,1.20633924 L1.945237041,1.20633924 L0,0 L0,0 L0,1.059046507 L0,1.059046507 L0,1.059046507 L0,1.059046507 L0,1.059046507 L0,1.059046507 L0,1.059046507 " stroke="none" stroke-width="0" fill="#2A3174"  fill-rule="evenodd"/>
      </g>
      <g transform="matrix(1,0,0,1,5.099248,14.77796)" v:mID="274">
       <title>Sheet.274</title>
       <path d="M0,8.841211319 L1.87098217,9.965991974 L1.87098217,9.965991974 L16.337314606,1.206339121 L16.337314606,1.206339121 L14.392076492,0 L14.392076492,0 L0,8.841211319 L0,8.841211319 L0,8.841211319 L0,8.841211319 L0,8.841211319 L0,8.841211319 L0,8.841211319 " stroke="none" stroke-width="0" fill="#4F62A5"  fill-rule="evenodd"/>
      </g>
      <g transform="matrix(1,0,0,1,2.687787,55.137367)" v:mID="275">
       <title>Sheet.275</title>
       <path d="M0,2.054793596 L1.87098217,3.180791378 L1.87098217,3.180791378 L1.87098217,1.20633924 L1.87098217,1.20633924 L0,0 L0,0 L0,2.054793596 L0,2.054793596 L0,2.054793596 L0,2.054793596 L0,2.054793596 L0,2.054793596 L0,2.054793596 " stroke="none" stroke-width="0" fill="#2A3174"  fill-rule="evenodd"/>
      </g>
      <g transform="matrix(1,0,0,1,2.687788,46.376495)" v:mID="276">
       <title>Sheet.276</title>
       <path d="M0,8.760870934 L1.87098217,9.967209816 L1.87098217,9.967209816 L16.275230408,1.20633924 L16.275230408,1.20633924 L14.390859604,0 L14.390859604,0 L0,8.760870934 L0,8.760870934 L0,8.760870934 L0,8.760870934 L0,8.760870934 L0,8.760870934 L0,8.760870934 " stroke="none" stroke-width="0" fill="#4F62A5"  fill-rule="evenodd"/>
      </g>
      <g transform="matrix(1,0,0,1,19.491325,16.05125)" v:mID="277">
       <title>Sheet.277</title>
       <path d="M0.137554318,32.020942688 L2.008536339,33.148155212 L2.008536339,33.148155212 L1.945237041,1.127214909 L1.945237041,1.127214909 L0,0 L0,0 L0.137554318,32.020942688 L0.137554318,32.020942688 L0.137554318,32.020942688 L0.137554318,32.020942688 L0.137554318,32.020942688 L0.137554318,32.020942688 L0.137554318,32.020942688 " stroke="none" stroke-width="0" fill="#2A3174"  fill-rule="evenodd"/>
      </g>
      <g transform="matrix(1,0,0,1,0.13877201,48.07219)" v:mID="278">
       <title>Sheet.278</title>
       <path d="M0,11.810194016 L1.945237041,13.003143311 L1.945237041,13.003143311 L21.361089706,1.127214909 L21.361089706,1.127214909 L19.490106583,0 L19.490106583,0 L0,11.810194016 L0,11.810194016 L0,11.810194016 L0,11.810194016 L0,11.810194016 L0,11.810194016 L0,11.810194016 " stroke="none" stroke-width="0" fill="#4F62A5"  fill-rule="evenodd"/>
      </g>
      <g transform="matrix(1,0,0,1,0,0)" v:mID="279">
       <title>Sheet.279</title>
       <path d="M19.491325378,16.051250458 L5.099248409,24.812120438 L5.099248409,24.812120438 L5.099248409,23.619171143 L5.099248409,23.619171143 L19.491325378,14.77795887 L19.491325378,14.77795887 L19.491325378,13.718913078 L19.491325378,13.718913078 L5.099248409,22.479784012 L5.099248409,22.479784012 L5.099248409,21.285617828 L5.099248409,21.285617828 L19.491325378,12.445622444 L19.491325378,12.445622444 L19.491325378,11.386575699 L19.491325378,11.386575699 L5.099248409,20.14622879 L5.099248409,20.14622879 L5.099248409,18.953281403 L5.099248409,18.953281403 L19.491325378,10.113285065 L19.491325378,10.113285065 L19.491325378,9.053022385 L19.491325378,9.053022385 L5.099248409,17.813892365 L5.099248409,17.813892365 L5.022558689,16.620943069 L5.022558689,16.620943069 L19.49010849,7.779731274 L19.49010849,7.779731274 L19.49010849,6.720684528 L19.49010849,6.720684528 L5.022558689,15.481555939 L5.022558689,15.481555939 L5.022558689,14.288606644 L5.022558689,14.288606644 L19.49010849,5.447394371 L19.49010849,5.447394371 L19.49010849,4.388348103 L19.49010849,4.388348103 L5.022558689,13.148001671 L5.022558689,13.148001671 L5.022558689,11.955053329 L5.022558689,11.955053329 L19.49010849,3.115057468 L19.49010849,3.115057468 L19.49010849,0 L19.49010849,0 L0,11.808977127 L0,11.808977127 L0.138771623,59.882385254 L0.138771623,59.882385254 L19.628879547,48.072189331 L19.628879547,48.072189331 L19.491325378,16.051250458 L19.491325378,16.051250458 L19.491325378,16.051250458 L19.491325378,16.051250458 L19.491325378,16.051250458 L19.491325378,16.051250458 L19.491325378,16.051250458 L19.491325378,16.051250458 L19.491325378,16.051250458 M2.687787294,55.137367249 L17.079864502,46.376495361 L17.079864502,46.376495361 L17.079864502,48.350952148 L17.079864502,48.350952148 L2.687787294,57.19216156 L2.687787294,57.19216156 L2.687787294,55.137367249 L2.687787294,55.137367249 L2.687787294,55.137367249 L2.687787294,55.137367249 L2.687787294,55.137367249 " stroke="none" stroke-width="0" fill="#37468B"  fill-rule="evenodd"/>
      </g>
      <g transform="matrix(1,0,0,1,19.566795,48.708836)" v:mID="280">
       <title>Sheet.280</title>
       <path d="M0,6.085257053 L1.869764805,7.276988506 L1.869764805,7.276988506 L1.869764805,1.127214909 L1.869764805,1.127214909 L0,0 L0,0 L0,6.085257053 L0,6.085257053 L0,6.085257053 L0,6.085257053 L0,6.085257053 L0,6.085257053 L0,6.085257053 " stroke="none" stroke-width="0" fill="#2A3174"  fill-rule="evenodd"/>
      </g>
      <g transform="matrix(1,0,0,1,0.20085335,54.794094)" v:mID="281">
       <title>Sheet.281</title>
       <path d="M0,11.795585632 L1.946454406,12.93497467 L1.946454406,12.93497467 L21.235708237,1.191731572 L21.235708237,1.191731572 L19.365942001,0 L19.365942001,0 L0,11.795585632 L0,11.795585632 L0,11.795585632 L0,11.795585632 L0,11.795585632 L0,11.795585632 L0,11.795585632 " stroke="none" stroke-width="0" fill="#4F62A5"  fill-rule="evenodd"/>
      </g>
      <g transform="matrix(1,0,0,1,0.20085335,48.70883)" v:mID="282">
       <title>Sheet.282</title>
       <path d="M19.365943909,6.085257053 L19.365943909,0 L19.365943909,0 L0,11.731070518 L0,11.731070518 L0,17.880844116 L0,17.880844116 L19.365943909,6.085257053 L19.365943909,6.085257053 L19.365943909,6.085257053 L19.365943909,6.085257053 L19.365943909,6.085257053 L19.365943909,6.085257053 L19.365943909,6.085257053 " stroke="none" stroke-width="0" fill="#37468B"  fill-rule="evenodd"/>
      </g>
     </g>
     <g transform="matrix(1,0,0,1,478.87564,264.44833)" v:mID="283">
      <title>Sheet.283</title>
      <g transform="matrix(1,0,0,1,57.94803,0)" v:mID="284">
       <title>Sheet.284</title>
       <path d="M57.943775177,50.703727722 L57.943775177,33.500106812 L57.943775177,33.500106812 L0,0 L0,0 L0,16.90124321 L0,16.90124321 L57.943775177,50.703727722 L57.943775177,50.703727722 L57.943775177,50.703727722 L57.943775177,50.703727722 L57.943775177,50.703727722 L57.943775177,50.703727722 L57.943775177,50.703727722 L57.943775177,50.703727722 L57.943775177,50.703727722 " stroke="none" stroke-width="0" fill="#2A3174"  fill-rule="evenodd"/>
      </g>
      <g transform="matrix(1,0,0,1,0,0)" v:mID="285">
       <title>Sheet.285</title>
       <path d="M57.948032379,16.90124321 L57.948032379,0 L57.948032379,0 L0,33.500106812 L0,33.500106812 L0,50.703727722 L0,50.703727722 L57.948032379,16.90124321 L57.948032379,16.90124321 L57.948032379,16.90124321 L57.948032379,16.90124321 L57.948032379,16.90124321 L57.948032379,16.90124321 L57.948032379,16.90124321 L57.948032379,16.90124321 L57.948032379,16.90124321 " stroke="none" stroke-width="0" fill="#37468B"  fill-rule="evenodd"/>
      </g>
      <g transform="matrix(1,0,0,1,0,16.901241)" v:mID="286">
       <title>Sheet.286</title>
       <path d="M115.891807556,33.199859619 L58.173751831,0 L58.173751831,0 L0,33.199859619 L0,33.199859619 L57.796844482,66.397590637 L57.796844482,66.397590637 L115.891807556,33.199859619 L115.891807556,33.199859619 L115.891807556,33.199859619 L115.891807556,33.199859619 L115.891807556,33.199859619 L115.891807556,33.199859619 L115.891807556,33.199859619 L115.891807556,33.199859619 L115.891807556,33.199859619 " stroke="none" stroke-width="0" fill="#4F62A5"  fill-rule="evenodd"/>
      </g>
      <g transform="matrix(1,0,0,1,41.042534,56.736393)" v:mID="287">
       <title>Sheet.287</title>
       <path d="M12.829782486,5.28523159 C12.678593636,18.036224365 12.678593636,18.036224365 12.678593636,18.036224365 L12.678593636,18.036224365 C12.678593636,19.394798279 14.565263748,20.525522232 16.828842163,20.525522232 L16.828842163,20.525522232 C18.036226273,20.525522232 19.092420578,20.223146439 19.771705627,19.695047379 L19.771705627,19.695047379 C20.602182388,19.318138123 21.051490784,18.715513229 21.051490784,18.034095764 L21.051490784,18.034095764 C21.130279541,5.283102036 21.130279541,5.283102036 21.130279541,5.283102036 L21.130279541,5.283102036 C28.823890686,9.659069061 28.823890686,9.659069061 28.823890686,9.659069061 L28.823890686,9.659069061 C33.80248642,6.865264893 33.80248642,6.865264893 33.80248642,6.865264893 L33.80248642,6.865264893 C21.956497192,0 21.956497192,0 21.956497192,0 L21.956497192,0 C20.372205734,0.376908123 18.636724472,0.528097272 16.750053406,0.528097272 L16.750053406,0.528097272 C14.940042496,0.528097272 13.430280685,0.376908123 11.845989227,0.076659285 L11.845989227,0.076659285 C0,6.865264893 0,6.865264893 0,6.865264893 L0,6.865264893 C5.055253983,9.659069061 5.055253983,9.659069061 5.055253983,9.659069061 L5.055253983,9.659069061 C12.829782486,5.28523159 12.829782486,5.28523159 12.829782486,5.28523159 L12.829782486,5.28523159 L12.829782486,5.28523159 L12.829782486,5.28523159 L12.829782486,5.28523159 " stroke="none" stroke-width="0" fill="#2A3174"  fill-rule="evenodd"/>
      </g>
      <g transform="matrix(1,0,0,1,50.70373,44.66894)" v:mID="288">
       <title>Sheet.288</title>
       <path d="M14.486475945,4.224778652 C14.486475945,1.884540796 11.317892075,0 7.318832397,0 L7.318832397,0 C5.280972958,0 3.470962286,0.453567445 2.189048529,1.207383752 L2.189048529,1.207383752 C0.830475628,2.03785944 0,3.019524097 0,4.224778652 L0,4.224778652 C0,6.488357067 3.243113518,8.449557304 7.24430275,8.449557304 L7.24430275,8.449557304 C9.280032158,8.449557304 11.092172623,7.921459675 12.374087334,7.165513992 L12.374087334,7.165513992 C13.73265934,6.411697865 14.486475945,5.355503082 14.486475945,4.224778652 L14.486475945,4.224778652 L14.486475945,4.224778652 L14.486475945,4.224778652 L14.486475945,4.224778652 " stroke="none" stroke-width="0" fill="#2A3174"  fill-rule="evenodd"/>
      </g>
      <g transform="matrix(1,0,0,1,10.866453,39.83941)" v:mID="289">
       <title>Sheet.289</title>
       <path d="M35.007740021,12.750993729 C34.102737427,11.694799423 33.49797821,10.410756111 33.49797821,9.203372955 L33.49797821,9.203372955 C33.49797821,8.14717865 33.874889374,7.016453743 34.554172516,6.185977936 L34.554172516,6.185977936 C23.84103775,-0 23.84103775,-0 23.84103775,-0 L23.84103775,-0 C18.862443924,2.866205215 18.862443924,2.866205215 18.862443924,2.866205215 L18.862443924,2.866205215 C26.48365593,7.242173195 26.48365593,7.242173195 26.48365593,7.242173195 L26.48365593,7.242173195 C4.224778652,7.242173195 4.224778652,7.242173195 4.224778652,7.242173195 L4.224778652,7.242173195 C3.091924429,7.242173195 1.961200118,7.544551373 1.281913638,7.921459198 L1.281913638,7.921459198 C0.528097332,8.375026703 0,8.977653503 0,9.582410812 L0,9.582410812 C0,10.940982819 1.886670232,11.997177124 4.150249004,11.997177124 L4.150249004,11.997177124 C26.48365593,11.997177124 26.48365593,11.997177124 26.48365593,11.997177124 L26.48365593,11.997177124 C18.787912369,16.449804306 18.787912369,16.449804306 18.787912369,16.449804306 L18.787912369,16.449804306 C23.76651001,19.316009521 23.76651001,19.316009521 23.76651001,19.316009521 L23.76651001,19.316009521 C35.007740021,12.750993729 35.007740021,12.750993729 35.007740021,12.750993729 L35.007740021,12.750993729 L35.007740021,12.750993729 L35.007740021,12.750993729 L35.007740021,12.750993729 " stroke="none" stroke-width="0" fill="#2A3174"  fill-rule="evenodd"/>
      </g>
      <g transform="matrix(1,0,0,1,71.229256,38.629894)" v:mID="290">
       <title>Sheet.290</title>
       <path d="M0.223589599,7.169772148 C0.677157044,8.074777603 0.977405965,8.979783058 0.977405965,10.11263752 L0.977405965,10.11263752 C0.977405965,11.168831825 0.677157044,12.299555779 0,13.206690788 L0,13.206690788 C11.616010666,20.525522232 11.616010666,20.525522232 11.616010666,20.525522232 L11.616010666,20.525522232 C16.524335861,17.431468964 16.524335861,17.431468964 16.524335861,17.431468964 L16.524335861,17.431468964 C9.05431366,12.678593636 9.05431366,12.678593636 9.05431366,12.678593636 L9.05431366,12.678593636 C31.010812759,12.678593636 31.010812759,12.678593636 31.010812759,12.678593636 L31.010812759,12.678593636 C32.067005157,12.678593636 33.123199463,12.452874184 33.877017975,11.999307632 L33.877017975,11.999307632 C34.554172516,11.547868729 35.007740021,10.943112373 35.007740021,10.263825417 L35.007740021,10.263825417 C35.007740021,8.756193161 33.197731018,7.697869778 31.010812759,7.697869778 L31.010812759,7.697869778 C9.05431366,7.697869778 9.05431366,7.697869778 9.05431366,7.697869778 L9.05431366,7.697869778 C16.598865509,3.019523859 16.598865509,3.019523859 16.598865509,3.019523859 L16.598865509,3.019523859 C11.769330025,0 11.769330025,0 11.769330025,0 L11.769330025,0 C0.223589599,7.169772148 0.223589599,7.169772148 0.223589599,7.169772148 L0.223589599,7.169772148 L0.223589599,7.169772148 L0.223589599,7.169772148 L0.223589599,7.169772148 " stroke="none" stroke-width="0" fill="#2A3174"  fill-rule="evenodd"/>
      </g>
      <g transform="matrix(1,0,0,1,42.252045,21.730778)" v:mID="291">
       <title>Sheet.291</title>
       <path d="M21.053621292,14.563135147 C21.12815094,2.186918974 21.12815094,2.186918974 21.12815094,2.186918974 L21.12815094,2.186918974 C21.12815094,0.981664777 19.31388092,-0 17.052433014,-0 L17.052433014,-0 C15.845048904,-0 14.863384247,0.151189148 14.109567642,0.602627158 L14.109567642,0.602627158 C13.279091835,0.981664777 12.82552433,1.509762049 12.82552433,2.186918974 L12.82552433,2.186918974 C12.82552433,14.563135147 12.82552433,14.563135147 12.82552433,14.563135147 L12.82552433,14.563135147 C5.055254459,10.259567261 5.055254459,10.259567261 5.055254459,10.259567261 L5.055254459,10.259567261 C0,13.053372383 0,13.053372383 0,13.053372383 L0,13.053372383 C10.86432457,19.013631821 10.86432457,19.013631821 10.86432457,19.013631821 L10.86432457,19.013631821 C12.448616982,18.636724472 14.18409729,18.408876419 16.070768356,18.408876419 L16.070768356,18.408876419 C18.334346771,18.408876419 20.448865891,18.71125412 22.407936096,19.31388092 L22.407936096,19.31388092 C33.804615021,13.051243782 33.804615021,13.051243782 33.804615021,13.051243782 L33.804615021,13.051243782 C28.821762085,10.257437706 28.821762085,10.257437706 28.821762085,10.257437706 L28.821762085,10.257437706 C21.053621292,14.563135147 21.053621292,14.563135147 21.053621292,14.563135147 L21.053621292,14.563135147 L21.053621292,14.563135147 L21.053621292,14.563135147 L21.053621292,14.563135147 " stroke="none" stroke-width="0" fill="#2A3174"  fill-rule="evenodd"/>
      </g>
      <g transform="matrix(1,0,0,1,41.042534,56.740646)" v:mID="292">
       <title>Sheet.292</title>
       <path d="M12.829782486,5.206442833 C12.678593636,18.185287476 12.678593636,18.185287476 12.678593636,18.185287476 L12.678593636,18.185287476 C12.678593636,19.392669678 14.565263748,20.523393631 16.828842163,20.523393631 L16.828842163,20.523393631 C18.036226273,20.523393631 19.092420578,20.297674179 19.771705627,19.844108582 L19.771705627,19.844108582 C20.602182388,19.392669678 21.051490784,18.864572525 21.051490784,18.185287476 L21.051490784,18.185287476 C21.130279541,5.206442833 21.130279541,5.206442833 21.130279541,5.206442833 L21.130279541,5.206442833 C28.823890686,9.659070015 28.823890686,9.659070015 28.823890686,9.659070015 L28.823890686,9.659070015 C33.80248642,6.790735245 33.80248642,6.790735245 33.80248642,6.790735245 L33.80248642,6.790735245 C21.956497192,0 21.956497192,0 21.956497192,0 L21.956497192,0 C20.372205734,0.376908183 18.636724472,0.528097332 16.750053406,0.528097332 L16.750053406,0.528097332 C14.940042496,0.528097332 13.430280685,0.376908183 11.845989227,0.076659285 L11.845989227,0.076659285 C0,6.790735245 0,6.790735245 0,6.790735245 L0,6.790735245 C5.055253983,9.659070015 5.055253983,9.659070015 5.055253983,9.659070015 L5.055253983,9.659070015 C12.829782486,5.206442833 12.829782486,5.206442833 12.829782486,5.206442833 L12.829782486,5.206442833 L12.829782486,5.206442833 L12.829782486,5.206442833 L12.829782486,5.206442833 " stroke="none" stroke-width="0" fill="#FFFFFF"  fill-rule="evenodd"/>
      </g>
      <g transform="matrix(1,0,0,1,50.70373,45.874195)" v:mID="293">
       <title>Sheet.293</title>
       <path d="M14.486475945,3.547621727 C14.486475945,1.509762049 11.317892075,0 7.318832397,0 L7.318832397,0 C5.280972958,0 3.470962286,0.302378297 2.189048529,0.981664777 L2.189048529,0.981664777 C0.830475628,1.660951257 0,2.565956593 0,3.547621727 L0,3.547621727 C0,5.58548069 3.243113518,7.24430275 7.24430275,7.24430275 L7.24430275,7.24430275 C9.280032158,7.24430275 11.092172623,6.790735245 12.374087334,6.03691864 L12.374087334,6.03691864 C13.73265934,5.43429184 14.486475945,4.603816032 14.486475945,3.547621727 L14.486475945,3.547621727 L14.486475945,3.547621727 L14.486475945,3.547621727 L14.486475945,3.547621727 " stroke="none" stroke-width="0" fill="#FFFFFF"  fill-rule="evenodd"/>
      </g>
      <g transform="matrix(1,0,0,1,10.866453,39.83941)" v:mID="294">
       <title>Sheet.294</title>
       <path d="M35.007740021,12.82552433 C34.102737427,11.769329071 33.49797821,10.487415314 33.49797821,9.128842354 L33.49797821,9.128842354 C33.49797821,8.072648048 33.874889374,7.090983868 34.554172516,6.111448288 L34.554172516,6.111448288 C23.84103775,-0 23.84103775,-0 23.84103775,-0 L23.84103775,-0 C18.862443924,2.866205215 18.862443924,2.866205215 18.862443924,2.866205215 L18.862443924,2.866205215 C26.48365593,7.318832397 26.48365593,7.318832397 26.48365593,7.318832397 L26.48365593,7.318832397 C4.224778652,7.318832397 4.224778652,7.318832397 4.224778652,7.318832397 L4.224778652,7.318832397 C3.091924429,7.318832397 1.961200118,7.470021248 1.281913638,7.998118401 L1.281913638,7.998118401 C0.528097332,8.375026703 0,8.977653503 0,9.65694046 L0,9.65694046 C0,10.940982819 1.886670232,12.071707726 4.150249004,12.071707726 L4.150249004,12.071707726 C26.48365593,12.071707726 26.48365593,12.071707726 26.48365593,12.071707726 L26.48365593,12.071707726 C18.787912369,16.37314415 18.787912369,16.37314415 18.787912369,16.37314415 L18.787912369,16.37314415 C23.76651001,19.316009521 23.76651001,19.316009521 23.76651001,19.316009521 L23.76651001,19.316009521 C35.007740021,12.82552433 35.007740021,12.82552433 35.007740021,12.82552433 L35.007740021,12.82552433 L35.007740021,12.82552433 L35.007740021,12.82552433 L35.007740021,12.82552433 " stroke="none" stroke-width="0" fill="#FFFFFF"  fill-rule="evenodd"/>
      </g>
      <g transform="matrix(1,0,0,1,71.229256,39.83941)" v:mID="295">
       <title>Sheet.295</title>
       <path d="M0.223589599,6.639545441 C0.677157044,7.544551373 0.977405965,8.526215553 0.977405965,9.505750656 L0.977405965,9.505750656 C0.977405965,10.561945915 0.677157044,11.543610573 0,12.448616028 L0,12.448616028 C11.616010666,19.316009521 11.616010666,19.316009521 11.616010666,19.316009521 L11.616010666,19.316009521 C16.524335861,16.37314415 16.524335861,16.37314415 16.524335861,16.37314415 L16.524335861,16.37314415 C9.05431366,11.997177124 9.05431366,11.997177124 9.05431366,11.997177124 L9.05431366,11.997177124 C31.010812759,11.997177124 31.010812759,11.997177124 31.010812759,11.997177124 L31.010812759,11.997177124 C32.067005157,11.997177124 33.123199463,11.694799423 33.877017975,11.317891121 L33.877017975,11.317891121 C34.554172516,10.866454124 35.007740021,10.261696815 35.007740021,9.582410812 L35.007740021,9.582410812 C35.007740021,8.2983675 33.197731018,7.242173195 31.010812759,7.242173195 L31.010812759,7.242173195 C9.05431366,7.242173195 9.05431366,7.242173195 9.05431366,7.242173195 L9.05431366,7.242173195 C16.598865509,2.791675568 16.598865509,2.791675568 16.598865509,2.791675568 L16.598865509,2.791675568 C11.769330025,0 11.769330025,0 11.769330025,0 L11.769330025,0 C0.223589599,6.639545441 0.223589599,6.639545441 0.223589599,6.639545441 L0.223589599,6.639545441 L0.223589599,6.639545441 L0.223589599,6.639545441 L0.223589599,6.639545441 " stroke="none" stroke-width="0" fill="#FFFFFF"  fill-rule="evenodd"/>
      </g>
      <g transform="matrix(1,0,0,1,42.252045,21.730778)" v:mID="296">
       <title>Sheet.296</title>
       <path d="M21.053621292,15.468140602 C21.12815094,2.414767504 21.12815094,2.414767504 21.12815094,2.414767504 L21.12815094,2.414767504 C21.12815094,1.056194663 19.31388092,0 17.052433014,0 L17.052433014,0 C15.845048904,0 14.863384247,0.22571902 14.109567642,0.753816366 L14.109567642,0.753816366 C13.279091835,1.130724549 12.82552433,1.733351707 12.82552433,2.412638187 L12.82552433,2.412638187 C12.82552433,15.466012001 12.82552433,15.466012001 12.82552433,15.466012001 L12.82552433,15.466012001 C5.055254459,11.013383865 5.055254459,11.013383865 5.055254459,11.013383865 L5.055254459,11.013383865 C0,13.881719589 0,13.881719589 0,13.881719589 L0,13.881719589 C10.86432457,20.221017838 10.86432457,20.221017838 10.86432457,20.221017838 L10.86432457,20.221017838 C12.448616982,19.767448425 14.18409729,19.616260529 16.070768356,19.616260529 L16.070768356,19.616260529 C18.334346771,19.616260529 20.448865891,19.993167877 22.407936096,20.52126503 L22.407936096,20.52126503 C33.804615021,13.881719589 33.804615021,13.881719589 33.804615021,13.881719589 L33.804615021,13.881719589 C28.821762085,11.013383865 28.821762085,11.013383865 28.821762085,11.013383865 L28.821762085,11.013383865 C21.053621292,15.468140602 21.053621292,15.468140602 21.053621292,15.468140602 L21.053621292,15.468140602 L21.053621292,15.468140602 L21.053621292,15.468140602 L21.053621292,15.468140602 " stroke="none" stroke-width="0" fill="#FFFFFF"  fill-rule="evenodd"/>
      </g>
     </g>
     <g transform="matrix(1,0,0,1,0,264.4483)" v:mID="297">
      <title>Sheet.297</title>
      <g transform="matrix(1,0,0,1,0,0)">
       <text x="8.381855" y="14.400001" class="TextStyle1" fill="#000000" opacity="1" transform="matrix(1,0,0,-1,0,10.605513)">Reg3-ASW1</text>
      </g>
     </g>
     <g transform="matrix(1,0,0,1,77.76081,0)" v:mID="298">
      <title>Sheet.298</title>
      <g transform="matrix(1,0,0,1,0,0)">
       <text x="12.366231" y="14.400001" class="TextStyle1" fill="#000000" opacity="1" transform="matrix(1,0,0,-1,0,10.605513)">Reg3-VPC1</text>
      </g>
     </g>
     <g transform="matrix(1,0,0,1,85.11396,610.3672)" v:mID="299">
      <title>Sheet.299</title>
      <g transform="matrix(1,0,0,1,0,0)">
       <text x="8.088889" y="14.400001" class="TextStyle1" fill="#000000" opacity="1" transform="matrix(1,0,0,-1,0,28.395952)">Reg3-DSW1</text>
      </g>
     </g>
     <g transform="matrix(1,0,0,1,470.2971,610.3672)" v:mID="300">
      <title>Sheet.300</title>
      <g transform="matrix(1,0,0,1,0,0)">
       <text x="8.088889" y="14.400001" class="TextStyle1" fill="#000000" opacity="1" transform="matrix(1,0,0,-1,0,28.395952)">Reg3-DSW2</text>
      </g>
     </g>
     <g transform="matrix(1,0,0,1,558.42523,258.74603)" v:mID="301">
      <title>Sheet.301</title>
      <g transform="matrix(1,0,0,1,0,0)">
       <text x="8.381855" y="14.400001" class="TextStyle1" fill="#000000" opacity="1" transform="matrix(1,0,0,-1,0,16.307793)">Reg3-ASW2</text>
      </g>
     </g>
     <g transform="matrix(1,0,0,1,470.2971,0)" v:mID="302">
      <title>Sheet.302</title>
      <g transform="matrix(1,0,0,1,0,0)">
       <text x="12.366231" y="14.400001" class="TextStyle1" fill="#000000" opacity="1" transform="matrix(1,0,0,-1,0,10.605513)">Reg3-VPC2</text>
      </g>
     </g>
     <g transform="matrix(-0.00085354305,-0.99999964,0.99999964,-0.00085354305,151.64053,524.8752)" v:mID="303">
      <title>Sheet.303</title>
      <path d="M0,0 L177.128143311,0 " stroke="#000000" stroke-width="2.25" stroke-linecap="round" fill="none"/>
     </g>
     <g transform="matrix(-0.00085354305,-0.99999964,0.99999964,-0.00085354305,536.8237,524.8752)" v:mID="304">
      <title>Sheet.304</title>
      <path d="M0,0 L177.128143311,0 " stroke="#000000" stroke-width="2.25" stroke-linecap="round" fill="none"/>
     </g>
     <g transform="matrix(1,0,0,1,209.43526,558.45197)" v:mID="305">
      <title>Sheet.305</title>
      <path d="M0,0 L269.44039917,0 " stroke="#000000" stroke-width="2.25" stroke-linecap="round" fill="none"/>
     </g>
     <g transform="matrix(1,0,0,1,209.52252,575.93616)" v:mID="306">
      <title>Sheet.306</title>
      <path d="M0,0 L269.485290527,0 " stroke="#000000" stroke-width="2.25" stroke-linecap="round" fill="none"/>
     </g>
     <g transform="matrix(1,0,0,1,172.71783,597.196)" v:mID="307">
      <title>Sheet.307</title>
      <path d="M0,0 L342.644226074,0 " stroke="#000000" stroke-width="2.25" stroke-linecap="round" stroke-dasharray="4 3" fill="none"/>
     </g>
     <g transform="matrix(0.8388077,0.5444278,-0.5444278,0.8388077,179.65407,331.65274)" v:mID="308">
      <title>Sheet.308</title>
      <path d="M0,0 L388.348876953,0 " stroke="#000000" stroke-width="2.25" stroke-linecap="round" fill="none"/>
     </g>
     <g transform="matrix(0.8422072,-0.539154,0.539154,0.8422072,183.77045,543.5416)" v:mID="309">
      <title>Sheet.309</title>
      <path d="M0,0 L389.572937012,0 " stroke="#000000" stroke-width="2.25" stroke-linecap="round" fill="none"/>
     </g>
     <g transform="matrix(-0,-1,1,0,151.64053,264.4483)" v:mID="310">
      <title>Sheet.310</title>
      <path d="M0,0 L161.430236816,0 " stroke="#000000" stroke-width="2.25" stroke-linecap="round" fill="none"/>
     </g>
     <g transform="matrix(-0,-1,1,0,536.82367,264.44833)" v:mID="311">
      <title>Sheet.311</title>
      <path d="M0,0 L161.430236816,0 " stroke="#000000" stroke-width="2.25" stroke-linecap="round" fill="none"/>
     </g>
     <g transform="matrix(1,0,0,1,153.7271,264.4483)" v:mID="312">
      <title>Sheet.312</title>
      <g transform="matrix(1,0,0,1,0,0)">
       <text x="21.752806" y="8.4" class="TextStyle0" fill="#000000" opacity="1" transform="matrix(1,0,0,-1,0,7.605512)">GE1/0/1</text>
      </g>
     </g>
     <g transform="matrix(1,0,0,1,256.39114,605.129)" v:mID="313">
      <title>Sheet.313</title>
      <g transform="matrix(1,0,0,1,0,0)">
       <text x="41.206047" y="9.6" class="TextStyle2" fill="#FF0000" opacity="1" transform="matrix(1,0,0,-1,0,8.205512)">keep-alive link</text>
      </g>
     </g>
     <g transform="matrix(1,0,0,1,268.2738,538.80225)" v:mID="314">
      <title>Sheet.314</title>
      <g transform="matrix(1,0,0,1,0,0)">
       <text x="7.8038754" y="9.6" class="TextStyle3" fill="#0070C0" opacity="1" transform="matrix(1,0,0,-1,0,10.458171)">peer-link (BAGG100)</text>
      </g>
     </g>
     <g transform="matrix(1,0,0,1,336.57504,551.8416)" v:mID="315">
      <title>Sheet.315</title>
      <ellipse cx="7.690134943444594" cy="17.302803622750154" rx="7.6901350021362305" ry="17.30280303955078" stroke="#000000" stroke-width="1" stroke-linecap="round" stroke-dasharray="2 1.5" fill="none"/>
     </g>
     <g transform="matrix(0.64278764,-0.76604444,-0.76604444,-0.64278764,536.72906,412.91992)" v:mID="316">
      <title>Sheet.316</title>
      <ellipse cx="9.309247669181268" cy="45.26497799986638" rx="9.309247970581055" ry="45.264976501464844" stroke="#000000" stroke-width="1" stroke-linecap="round" stroke-dasharray="2 1.5" fill="none"/>
     </g>
     <g transform="matrix(0.70710677,0.70710677,0.70710677,-0.70710677,464.70242,366.8525)" v:mID="317">
      <title>Sheet.317</title>
      <g transform="matrix(1,0,0,-1,0,6.8110237)">
       <text x="13.834042" y="7.2000003" class="TextStyle4" fill="#000000" opacity="1" transform="matrix(1,0,0,-1,0,7.0055113)">BAGG102</text>
      </g>
     </g>
     <g transform="matrix(-0.64278764,-0.76604444,0.76604444,-0.64278764,152.10649,412.91986)" v:mID="318">
      <title>Sheet.318</title>
      <ellipse cx="9.309247669181268" cy="45.26497799986638" rx="9.309247970581055" ry="45.264976501464844" stroke="#000000" stroke-width="1" stroke-linecap="round" stroke-dasharray="2 1.5" fill="none"/>
     </g>
     <g transform="matrix(0.70710677,-0.70710677,0.70710677,0.70710677,165.7633,415.2145)" v:mID="319">
      <title>Sheet.319</title>
      <g transform="matrix(1,0,0,1,0,0)">
       <text x="13.834042" y="7.2000003" class="TextStyle4" fill="#000000" opacity="1" transform="matrix(1,0,0,-1,0,7.0055113)">BAGG101</text>
      </g>
     </g>
    </g>
   </g>
  </g>
 </g>
 <style type="text/css"><![CDATA[ .TextStyle3 {font-family:Calibri;font-size:16px;font-weight:bold;}.TextStyle0 {font-family:Calibri;font-size:14px;}.TextStyle1 {font-family:Calibri;font-size:24px;font-weight:bold;}.TextStyle4 {font-family:Calibri;font-size:12px;font-weight:bold;}.TextStyle2 {font-family:Calibri;font-size:16px;} ]]></style>
</svg>
