<?xml version="1.0" encoding="UTF-8" standalone="no"?>
<!DOCTYPE svg PUBLIC "-//W3C//DTD SVG 1.1//EN" "http://www.w3.org/Graphics/SVG/1.1/DTD/svg11.dtd">
<!-- Создано Microsoft Visio, экспорт SVG CE.svg Страница-1 -->
<svg xmlns="http://www.w3.org/2000/svg" xmlns:xlink="http://www.w3.org/1999/xlink" xmlns:ev="http://www.w3.org/2001/xml-events"
		xmlns:v="http://schemas.microsoft.com/visio/2003/SVGExtensions/" width="1.60961in" height="1.12676in"
		viewBox="0 0 115.892 81.1267" xml:space="preserve" color-interpolation-filters="sRGB" class="st5">
	<v:documentProperties v:langID="1049" v:metric="true" v:viewMarkup="false"/>

	<style type="text/css">
	<![CDATA[
		.st1 {fill:#233b75;stroke:none;stroke-linecap:butt;stroke-width:0.75}
		.st2 {fill:#4c68b1;stroke:none;stroke-linecap:butt;stroke-width:0.75}
		.st3 {fill:#ffffff;stroke:none;stroke-linecap:butt;stroke-width:0.75}
		.st4 {fill:#2a347a;stroke:none;stroke-linecap:butt;stroke-width:0.75}
		.st5 {fill:none;fill-rule:evenodd;font-size:12px;overflow:visible;stroke-linecap:square;stroke-miterlimit:3}
	]]>
	</style>

	<g v:mID="0" v:index="1" v:groupContext="foregroundPage">
		<title>Страница-1</title>
		<v:pageProperties v:drawingScale="0.0393701" v:pageScale="0.0393701" v:drawingUnits="24" v:shadowOffsetX="9"
				v:shadowOffsetY="-9"/>
		<g id="group1-1" v:mID="1" v:groupContext="group">
			<title>Лист.1</title>
			<g id="shape2-2" v:mID="2" v:groupContext="shape" transform="translate(5.26671,0)">
				<title>Лист.2</title>
				<path d="M90.21 51.76 C69.67 62.95 36.22 62.95 15.74 51.76 C4.61 45.77 0.26 39.51 0.26 31.87 C0 31.87 0 31.87 0 31.87
							 C0 50.77 0 50.77 0 50.77 C0.26 50.77 0.26 50.77 0.26 50.77 C0.79 57.68 5.86 64.66 15.74 69.93 C36.22
							 81.13 69.67 81.13 90.21 69.93 C99.83 64.66 104.9 57.68 105.36 50.77 C105.36 31.61 105.36 31.61 105.36
							 31.61 C105.36 39.05 100.35 46.23 90.21 51.76 Z" class="st1"/>
			</g>
			<g id="shape3-4" v:mID="3" v:groupContext="shape" transform="translate(0,-16.8557)">
				<title>Лист.3</title>
				<path d="M95.15 28.31 C115.7 39.77 115.89 58.28 95.41 69.73 C74.87 81.13 41.35 81.13 20.81 69.73 C0 58.28 0 39.77
							 20.54 28.31 C41.09 16.86 74.34 16.86 95.15 28.31 Z" class="st2"/>
			</g>
			<g id="shape4-6" v:mID="4" v:groupContext="shape" transform="translate(37.9281,-8.42785)">
				<title>Лист.4</title>
				<path d="M1.84 74.01 C1.84 76.32 1.84 76.32 1.84 76.32 C2.63 76.32 2.63 76.32 2.63 76.32 C2.9 76.32 3.16 76.32 3.42
							 76.06 C3.69 75.79 3.69 75.53 3.69 75.27 C3.69 74.54 3.42 74.01 2.63 74.01 C1.84 74.01 1.84 74.01 1.84
							 74.01 ZM0 81.13 C0 72.7 0 72.7 0 72.7 C3.16 72.7 3.16 72.7 3.16 72.7 C3.95 72.7 4.48 72.7 5 73.22 C5.53
							 73.49 5.79 74.01 5.79 74.74 C5.79 76.06 5.27 76.85 3.95 77.04 C4.48 77.04 4.74 77.04 5 77.57 C5 77.57
							 5.27 77.83 5.27 78.36 C6.32 81.12 6.32 81.12 6.32 81.12 C3.95 81.12 3.95 81.12 3.95 81.12 C3.43 78.89
							 3.43 78.89 3.43 78.89 C3.16 78.36 2.9 78.1 2.9 77.83 C2.63 77.83 2.37 77.83 1.84 77.83 C1.84 81.12 1.84
							 81.12 1.84 81.12 C0 81.13 0 81.13 0 81.13 Z" class="st3"/>
			</g>
			<g id="shape5-8" v:mID="5" v:groupContext="shape" transform="translate(45.3041,-8.42785)">
				<title>Лист.5</title>
				<path d="M2.04 76.85 C2.04 78.76 2.57 79.74 3.62 79.74 C4.61 79.74 5.14 78.76 5.14 76.85 C5.14 75.13 4.61 74.15 3.62
							 74.15 C2.57 74.15 2.04 75.13 2.04 76.85 ZM0 76.85 C0 75.59 0.26 74.67 0.79 73.95 C1.58 73.22 2.57 72.7
							 3.62 72.7 C4.87 72.7 5.86 73.22 6.39 73.95 C6.91 74.67 7.37 75.59 7.37 76.85 C7.37 78.03 6.91 79.02
							 6.39 79.94 C5.86 80.67 4.87 81.13 3.62 81.13 C2.57 81.13 1.58 80.67 0.79 79.74 C0.26 79.02 0 78.03 0
							 76.85 Z" class="st3"/>
			</g>
			<g id="shape6-10" v:mID="6" v:groupContext="shape" transform="translate(53.732,-8.42971)">
				<title>Лист.6</title>
				<path d="M0 77.97 C0 72.7 0 72.7 0 72.7 C1.84 72.7 1.84 72.7 1.84 72.7 C1.84 78.16 1.84 78.16 1.84 78.16 C1.84 79.15
							 2.37 79.68 3.16 79.68 C3.95 79.68 4.21 79.15 4.21 78.16 C4.21 72.7 4.21 72.7 4.21 72.7 C6.32 72.7 6.32
							 72.7 6.32 72.7 C6.32 77.97 6.32 77.97 6.32 77.97 C6.32 78.95 6.06 79.68 5.53 80.14 C5 80.93 4.21 81.13
							 3.16 81.13 C2.11 81.13 1.32 80.93 0.79 80.14 C0.26 79.68 0 78.96 0 77.97 Z" class="st3"/>
			</g>
			<g id="shape7-12" v:mID="7" v:groupContext="shape" transform="translate(61.1061,-8.42785)">
				<title>Лист.7</title>
				<path d="M1.78 81.13 L1.78 74.15 L0 74.15 L0 72.7 L5.27 72.7 L5.27 74.15 L3.69 74.15 L3.69 81.13 L1.78 81.13 Z"
						class="st3"/>
			</g>
			<g id="shape8-14" v:mID="8" v:groupContext="shape" transform="translate(67.4284,-8.42785)">
				<title>Лист.8</title>
				<path d="M0 81.13 L0 72.7 L5.27 72.7 L5.27 74.15 L2.17 74.15 L2.17 76.06 L5.14 76.06 L5.14 77.64 L2.17 77.64 L2.17
							 79.74 L5.27 79.74 L5.27 81.13 L0 81.13 Z" class="st3"/>
			</g>
			<g id="shape9-16" v:mID="9" v:groupContext="shape" transform="translate(73.7507,-8.42785)">
				<title>Лист.9</title>
				<path d="M2.11 74.01 C2.11 76.32 2.11 76.32 2.11 76.32 C2.63 76.32 2.63 76.32 2.63 76.32 C2.9 76.32 3.42 76.32 3.42
							 76.06 C3.69 75.79 3.95 75.53 3.95 75.27 C3.95 74.54 3.42 74.01 2.63 74.01 C2.11 74.01 2.11 74.01 2.11
							 74.01 ZM0 81.13 C0 72.7 0 72.7 0 72.7 C3.16 72.7 3.16 72.7 3.16 72.7 C3.95 72.7 4.74 72.7 5.27 73.22
							 C5.79 73.49 6.06 74.01 6.06 74.74 C6.06 76.06 5.27 76.85 4.21 77.04 C4.48 77.04 4.74 77.04 5 77.57 C5.27
							 77.57 5.27 77.83 5.53 78.36 C6.32 81.12 6.32 81.12 6.32 81.12 C4.21 81.12 4.21 81.12 4.21 81.12 C3.42
							 78.89 3.42 78.89 3.42 78.89 C3.42 78.36 3.16 78.1 2.9 77.83 C2.9 77.83 2.63 77.83 2.11 77.83 C2.11 81.12
							 2.11 81.12 2.11 81.12 C0 81.13 0 81.13 0 81.13 Z" class="st3"/>
			</g>
			<g id="shape10-18" v:mID="10" v:groupContext="shape" transform="translate(53.732,-52.6783)">
				<title>Лист.10</title>
				<path d="M7.64 79.41 L7.37 79.22 C0 75 0 75 0 75 C5.6 71.84 5.6 71.84 5.6 71.84 C13.24 76.25 13.24 76.25 13.24 76.25
							 C14.75 76.98 16.79 76.71 18.83 75.72 C28.45 70.33 28.45 70.33 28.45 70.33 C17.78 70.33 17.78 70.33 17.78
							 70.33 C17.78 66.37 17.78 66.37 17.78 66.37 C41.09 66.37 41.09 66.37 41.09 66.37 C41.09 79.41 41.09 79.41
							 41.09 79.41 C34.24 79.41 34.24 79.41 34.24 79.41 C34.05 73.55 34.05 73.55 34.05 73.55 C24.63 78.95 24.63
							 78.95 24.63 78.95 C21.07 80.93 17.52 81.12 15.28 81.12 C11.2 81.13 8.43 79.68 7.64 79.41 Z"
						class="st4"/>
			</g>
			<g id="shape11-20" v:mID="11" v:groupContext="shape" transform="translate(25.2817,-45.3041)">
				<title>Лист.11</title>
				<path d="M9.81 78.1 C17.32 74.01 17.32 74.01 17.32 74.01 C18.83 73.29 18.57 72.11 16.6 70.92 C7.05 65.92 7.05 65.92
							 7.05 65.92 C7.05 71.65 7.05 71.65 7.05 71.65 C0 71.65 0 71.65 0 71.65 C0 59 0 59 0 59 C23.11 59 23.11
							 59 23.11 59 C23.11 62.62 23.11 62.62 23.11 62.62 C12.58 62.62 12.58 62.62 12.58 62.62 C22.13 67.83 22.13
							 67.83 22.13 67.83 C25.62 69.73 26.34 71.65 26.34 72.83 C26.14 75.2 23.64 76.85 22.85 77.11 C15.61 81.13
							 15.61 81.13 15.61 81.13 C9.81 78.1 9.81 78.1 9.81 78.1 Z" class="st4"/>
			</g>
			<g id="shape12-22" v:mID="12" v:groupContext="shape" transform="translate(24.2317,-29.5021)">
				<title>Лист.12</title>
				<path d="M33.52 68.35 C41.09 72.57 41.09 72.57 41.09 72.57 C35.29 75.73 35.29 75.73 35.29 75.73 C27.66 71.58 27.66
							 71.58 27.66 71.58 C26.14 70.59 24.37 70.86 22.32 72.04 C12.71 77.44 12.71 77.44 12.71 77.44 C23.38 77.44
							 23.38 77.44 23.38 77.44 C23.38 81.13 23.38 81.13 23.38 81.13 C0 81.13 0 81.13 0 81.13 C0 68.16 0 68.16
							 0 68.16 C6.85 68.16 6.85 68.16 6.85 68.16 C6.85 74.01 6.85 74.01 6.85 74.01 C16.53 68.88 16.53 68.88
							 16.53 68.88 C20.08 66.9 23.38 66.38 25.68 66.38 C29.96 66.38 32.73 67.89 33.52 68.35 Z" class="st4"/>
			</g>
			<g id="shape13-24" v:mID="13" v:groupContext="shape" transform="translate(66.3747,-29.5021)">
				<title>Лист.13</title>
				<path d="M27.39 68.42 C27.39 81.13 27.39 81.13 27.39 81.13 C3.43 81.13 3.43 81.13 3.43 81.13 C3.16 77.37 3.16 77.37
							 3.16 77.37 C14.22 77.37 14.22 77.37 14.22 77.37 C4.21 72.24 4.21 72.24 4.21 72.24 C0.79 70.33 0 68.42
							 0 67.3 C0 64.93 2.9 63.28 3.42 63.02 C11.33 59 11.33 59 11.33 59 C17.12 62.1 17.12 62.1 17.12 62.1 C9.48
							 66.11 9.48 66.11 9.48 66.11 C7.9 67.03 8.16 67.96 10.27 69.14 C20.28 74.34 20.28 74.34 20.28 74.34 C20.28
							 68.42 20.28 68.42 20.28 68.42 C27.39 68.42 27.39 68.42 27.39 68.42 Z" class="st4"/>
			</g>
			<g id="shape14-26" v:mID="14" v:groupContext="shape" transform="translate(52.6783,-53.7338)">
				<title>Лист.14</title>
				<path d="M7.64 79.22 C0 75.14 0 75.14 0 75.14 C5.86 71.97 5.86 71.97 5.86 71.97 C13.5 76.06 13.5 76.06 13.5 76.06
							 C15.01 76.78 16.79 76.78 18.83 75.6 C28.45 70.26 28.45 70.26 28.45 70.26 C17.78 70.26 17.78 70.26 17.78
							 70.26 C17.78 66.38 17.78 66.38 17.78 66.38 C41.09 66.38 41.09 66.38 41.09 66.38 C41.09 79.48 41.09 79.48
							 41.09 79.48 C34.24 79.48 34.24 79.48 34.24 79.48 C34.24 73.42 34.24 73.42 34.24 73.42 C24.63 78.76 24.63
							 78.76 24.63 78.76 C21.07 80.67 17.78 81.13 15.47 81.13 C11.19 80.93 8.43 79.68 7.64 79.22 Z"
						class="st3"/>
			</g>
			<g id="shape15-28" v:mID="15" v:groupContext="shape" transform="translate(24.2298,-46.356)">
				<title>Лист.15</title>
				<path d="M10.08 78.1 C17.32 73.88 17.32 73.88 17.32 73.88 C18.83 73.16 18.57 72.23 16.59 71.05 C7.05 65.85 7.05 65.85
							 7.05 65.85 C7.05 71.51 7.05 71.51 7.05 71.51 C0.26 71.51 0.26 71.51 0.26 71.51 C0 59 0 59 0 59 C23.11
							 59 23.11 59 23.11 59 C23.38 62.82 23.38 62.82 23.38 62.82 C12.84 62.82 12.84 62.82 12.84 62.82 C22.39
							 67.96 22.39 67.96 22.39 67.96 C25.62 69.86 26.34 71.71 26.34 72.9 C26.34 75.27 23.64 76.71 23.11 77.18
							 C15.61 81.13 15.61 81.13 15.61 81.13 C10.08 78.1 10.08 78.1 10.08 78.1 Z" class="st3"/>
			</g>
			<g id="shape16-30" v:mID="16" v:groupContext="shape" transform="translate(23.178,-30.5521)">
				<title>Лист.16</title>
				<path d="M33.52 68.35 C41.09 72.43 41.09 72.43 41.09 72.43 C35.56 75.59 35.56 75.59 35.56 75.59 C27.92 71.51 27.92
							 71.51 27.92 71.51 C26.41 70.79 24.36 70.79 22.32 71.97 C12.71 77.31 12.71 77.31 12.71 77.31 C23.38 77.31
							 23.38 77.31 23.38 77.31 C23.38 81.13 23.38 81.13 23.38 81.13 C0 81.13 0 81.13 0 81.13 C0 68.09 0 68.09
							 0 68.09 C6.85 68.09 6.85 68.09 6.85 68.09 C7.11 74.14 7.11 74.14 7.11 74.14 C16.53 68.81 16.53 68.81
							 16.53 68.81 C20.09 66.9 23.64 66.37 25.68 66.37 C29.96 66.64 32.99 68.09 33.52 68.35 Z" class="st3"/>
			</g>
			<g id="shape17-32" v:mID="17" v:groupContext="shape" transform="translate(66.3747,-29.5003)">
				<title>Лист.17</title>
				<path d="M26.34 68.09 C26.34 81.13 26.34 81.13 26.34 81.13 C3.29 81.13 3.29 81.13 3.29 81.13 C3.29 77.24 3.29 77.24
							 3.29 77.24 C13.83 77.24 13.83 77.24 13.83 77.24 C4.28 71.78 4.28 71.78 4.28 71.78 C0.79 69.8 0 67.83
							 0 66.64 C0.26 64.14 2.77 62.69 3.55 62.16 C10.8 57.95 10.8 57.95 10.8 57.95 C16.59 61.17 16.59 61.17
							 16.59 61.17 C9.08 65.65 9.08 65.65 9.08 65.65 C7.57 66.37 7.84 67.36 9.81 68.55 C19.36 74.01 19.36 74.01
							 19.36 74.01 C19.36 68.09 19.36 68.09 19.36 68.09 C26.34 68.09 26.34 68.09 26.34 68.09 Z" class="st3"/>
			</g>
		</g>
	</g>
</svg>
