<?xml version="1.0" encoding="UTF-8" standalone="no"?>
<!DOCTYPE svg PUBLIC "-//W3C//DTD SVG 1.1//EN" "http://www.w3.org/Graphics/SVG/1.1/DTD/svg11.dtd">
<!-- Создано Microsoft Visio, экспорт SVG PE.svg Страница-1 -->
<svg xmlns="http://www.w3.org/2000/svg" xmlns:xlink="http://www.w3.org/1999/xlink" xmlns:ev="http://www.w3.org/2001/xml-events"
		xmlns:v="http://schemas.microsoft.com/visio/2003/SVGExtensions/" width="1.60961in" height="1.48693in"
		viewBox="0 0 115.892 107.059" xml:space="preserve" color-interpolation-filters="sRGB" class="st5">
	<v:documentProperties v:langID="1049" v:metric="true" v:viewMarkup="false"/>

	<style type="text/css">
	<![CDATA[
		.st1 {fill:#243b7c;stroke:none;stroke-linecap:butt;stroke-width:0.75}
		.st2 {fill:#4b68af;stroke:none;stroke-linecap:butt;stroke-width:0.75}
		.st3 {fill:#2a3479;stroke:none;stroke-linecap:butt;stroke-width:0.75}
		.st4 {fill:#ffffff;stroke:none;stroke-linecap:butt;stroke-width:0.75}
		.st5 {fill:none;fill-rule:evenodd;font-size:12px;overflow:visible;stroke-linecap:square;stroke-miterlimit:3}
	]]>
	</style>

	<g v:mID="0" v:index="1" v:groupContext="foregroundPage">
		<title>Страница-1</title>
		<v:pageProperties v:drawingScale="0.0393701" v:pageScale="0.0393701" v:drawingUnits="24" v:shadowOffsetX="9"
				v:shadowOffsetY="-9"/>
		<g id="group1-1" v:mID="1" v:groupContext="group">
			<title>Лист.1</title>
			<g id="shape2-2" v:mID="2" v:groupContext="shape" transform="translate(4.41537,0)">
				<title>Лист.2</title>
				<path d="M91.54 75.54 C70.57 87.81 36.84 87.81 15.87 75.54 C4.48 69.19 0.28 62.57 0.28 54.36 C0 54.36 0 54.36 0 54.36
							 C0 74.57 0 74.57 0 74.57 C0.28 74.57 0.28 74.57 0.28 74.57 C0.76 81.88 5.93 89.4 15.87 95.06 C36.84
							 107.06 70.57 107.06 91.54 95.06 C101.2 89.4 106.37 81.88 106.85 74.57 C107.06 74.57 107.06 74.57 107.06
							 74.57 C106.85 54.08 106.85 54.08 106.85 54.08 C106.85 62.15 101.89 69.67 91.54 75.54 Z" class="st1"/>
			</g>
			<g id="shape3-4" v:mID="3" v:groupContext="shape" transform="translate(0,-17.6576)">
				<title>Лист.3</title>
				<path d="M95.2 51.67 C115.68 63.87 115.89 83.26 95.47 95.19 C74.71 107.06 41.46 107.06 20.76 95.19 C0 83.26 0 63.87
							 20.49 51.67 C40.98 39.73 74.5 39.73 95.2 51.67 Z" class="st2"/>
			</g>
			<g id="shape4-6" v:mID="4" v:groupContext="shape" transform="translate(4.41537,-22.073)">
				<title>Лист.4</title>
				<path d="M91.54 76.43 C70.57 88.16 36.84 88.16 15.87 76.43 C4.48 69.95 0.28 63.53 0.28 55.46 C0 55.46 0 55.46 0 55.46
							 C0 75.26 0 75.26 0 75.26 C0.28 75.26 0.28 75.26 0.28 75.26 C0.76 82.64 5.93 89.81 15.87 95.33 C36.84
							 107.06 70.57 107.06 91.54 95.33 C101.2 89.81 106.37 82.64 106.85 75.26 C107.06 75.26 107.06 75.26 107.06
							 75.26 C106.85 55.18 106.85 55.18 106.85 55.18 C106.85 63.05 101.89 70.43 91.54 76.43 Z" class="st1"/>
			</g>
			<g id="shape5-8" v:mID="5" v:groupContext="shape" transform="translate(0.00194681,-39.7325)">
				<title>Лист.5</title>
				<path d="M95.19 51.67 C115.68 63.87 115.89 83.26 95.47 95.19 C74.71 107.06 41.46 107.06 20.76 95.19 C0 83.26 0 63.88
							 20.49 51.67 C40.97 39.73 74.5 39.73 95.19 51.67 Z" class="st2"/>
			</g>
			<g id="shape6-10" v:mID="6" v:groupContext="shape" transform="translate(51.8767,-78.365)">
				<title>Лист.6</title>
				<path d="M7.59 104.99 C0 100.65 0 100.65 0 100.65 C5.73 97.4 5.73 97.4 5.73 97.4 C13.52 101.82 13.52 101.82 13.52
							 101.82 C15.18 102.72 17.11 102.51 19.25 101.34 C28.97 95.82 28.97 95.82 28.97 95.82 C18.07 95.82 18.07
							 95.82 18.07 95.82 C18.07 91.61 18.07 91.61 18.07 91.61 C41.94 91.61 41.94 91.61 41.94 91.61 C41.94 105.27
							 41.94 105.27 41.94 105.27 C34.84 105.27 34.84 105.27 34.84 105.27 C34.84 98.99 34.84 98.99 34.84 98.99
							 C24.9 104.58 24.9 104.58 24.9 104.58 C21.38 106.65 18.07 107.06 15.66 106.85 C11.38 106.85 8.35 105.47
							 7.59 104.99 Z" class="st3"/>
			</g>
			<g id="shape7-12" v:mID="7" v:groupContext="shape" transform="translate(23.1807,-70.6381)">
				<title>Лист.7</title>
				<path d="M10.35 103.89 C18.28 99.61 18.28 99.61 18.28 99.61 C19.73 98.71 19.45 97.75 17.31 96.44 C7.45 91.19 7.45
							 91.19 7.45 91.19 C7.45 97.13 7.45 97.13 7.45 97.13 C0.28 97.13 0.28 97.13 0.28 97.13 C0 83.88 0 83.88
							 0 83.88 C24.28 83.88 24.28 83.88 24.28 83.88 C24.28 87.74 24.28 87.74 24.28 87.74 C13.24 87.74 13.24
							 87.74 13.24 87.74 C23.32 93.26 23.32 93.26 23.32 93.26 C26.9 95.26 27.59 97.12 27.59 98.44 C27.59 100.99
							 24.76 102.58 24.01 102.99 C16.35 107.06 16.35 107.06 16.35 107.06 C10.35 103.89 10.35 103.89 10.35 103.89
							 Z" class="st3"/>
			</g>
			<g id="shape8-14" v:mID="8" v:groupContext="shape" transform="translate(22.0769,-54.0825)">
				<title>Лист.8</title>
				<path d="M34.42 93.75 C41.94 98.09 41.94 98.09 41.94 98.09 C36.08 101.34 36.08 101.34 36.08 101.34 C28.49 96.92 28.49
							 96.92 28.49 96.92 C26.83 96.02 24.9 96.23 22.76 97.4 C13.04 102.92 13.04 102.92 13.04 102.92 C23.94
							 102.92 23.94 102.92 23.94 102.92 C23.94 107.06 23.94 107.06 23.94 107.06 C0 107.06 0 107.06 0 107.06
							 C0 93.47 0 93.47 0 93.47 C7.17 93.47 7.17 93.47 7.17 93.47 C7.17 99.68 7.17 99.68 7.17 99.68 C16.83
							 94.16 16.83 94.16 16.83 94.16 C20.42 92.09 23.93 91.61 26.35 91.61 C30.63 91.88 33.66 93.26 34.42 93.75
							 Z" class="st3"/>
			</g>
			<g id="shape9-16" v:mID="9" v:groupContext="shape" transform="translate(66.2247,-52.9767)">
				<title>Лист.9</title>
				<path d="M26.49 93.4 C26.49 107.06 26.49 107.06 26.49 107.06 C3.04 107.06 3.04 107.06 3.04 107.06 C3.04 103.06 3.04
							 103.06 3.04 103.06 C13.73 103.06 13.73 103.06 13.73 103.06 C4.21 97.4 4.21 97.4 4.21 97.4 C0.76 95.33
							 0 93.19 0 92.02 C0 89.4 2.82 87.54 3.31 87.26 C10.97 82.78 10.97 82.78 10.97 82.78 C16.56 86.36 16.56
							 86.36 16.56 86.36 C9.1 90.85 9.1 90.85 9.1 90.85 C7.45 91.54 7.73 92.71 9.79 93.88 C19.52 99.54 19.52
							 99.54 19.52 99.54 C19.52 93.4 19.52 93.4 19.52 93.4 C26.49 93.4 26.49 93.4 26.49 93.4 Z" class="st3"/>
			</g>
			<g id="shape10-18" v:mID="10" v:groupContext="shape" transform="translate(50.7709,-79.4689)">
				<title>Лист.10</title>
				<path d="M7.59 104.99 C0 100.65 0 100.65 0 100.65 C5.73 97.4 5.73 97.4 5.73 97.4 C13.52 101.82 13.52 101.82 13.52
							 101.82 C15.18 102.72 17.11 102.51 19.24 101.34 C28.97 95.82 28.97 95.82 28.97 95.82 C18.07 95.82 18.07
							 95.82 18.07 95.82 C18.07 91.61 18.07 91.61 18.07 91.61 C41.94 91.61 41.94 91.61 41.94 91.61 C41.94 105.27
							 41.94 105.27 41.94 105.27 C34.83 105.27 34.83 105.27 34.83 105.27 C34.83 98.99 34.83 98.99 34.83 98.99
							 C24.9 104.58 24.9 104.58 24.9 104.58 C21.38 106.65 18.07 107.06 15.66 106.85 C11.38 106.85 8.35 105.47
							 7.59 104.99 Z" class="st4"/>
			</g>
			<g id="shape11-20" v:mID="11" v:groupContext="shape" transform="translate(22.0769,-71.742)">
				<title>Лист.11</title>
				<path d="M10.35 103.89 C18.28 99.61 18.28 99.61 18.28 99.61 C19.73 98.71 19.45 97.75 17.31 96.44 C7.45 91.19 7.45
							 91.19 7.45 91.19 C7.45 97.13 7.45 97.13 7.45 97.13 C0.28 97.13 0.28 97.13 0.28 97.13 C0 83.88 0 83.88
							 0 83.88 C24.28 83.88 24.28 83.88 24.28 83.88 C24.28 87.74 24.28 87.74 24.28 87.74 C13.24 87.74 13.24
							 87.74 13.24 87.74 C23.32 93.26 23.32 93.26 23.32 93.26 C26.9 95.26 27.59 97.12 27.59 98.44 C27.59 100.99
							 24.76 102.58 24.01 102.99 C16.35 107.06 16.35 107.06 16.35 107.06 C10.35 103.89 10.35 103.89 10.35 103.89
							 Z" class="st4"/>
			</g>
			<g id="shape12-22" v:mID="12" v:groupContext="shape" transform="translate(22.0788,-54.0825)">
				<title>Лист.12</title>
				<path d="M33.45 92.78 C40.84 97.47 40.84 97.47 40.84 97.47 C35.11 100.92 35.11 100.92 35.11 100.92 C27.73 96.23 27.73
							 96.23 27.73 96.23 C26.07 95.26 24.28 95.47 22.21 96.71 C12.69 102.64 12.69 102.64 12.69 102.64 C23.32
							 102.64 23.32 102.64 23.32 102.64 C23.32 107.06 23.32 107.06 23.32 107.06 C0 107.06 0 107.06 0 107.06
							 C0 92.5 0 92.5 0 92.5 C6.97 92.5 6.97 92.5 6.97 92.5 C6.97 99.19 6.97 99.19 6.97 99.19 C16.42 93.26
							 16.42 93.26 16.42 93.26 C19.87 91.05 23.32 90.5 25.66 90.5 C29.8 90.78 32.76 92.3 33.45 92.78 Z"
						class="st4"/>
			</g>
			<g id="shape13-24" v:mID="13" v:groupContext="shape" transform="translate(65.1189,-54.0805)">
				<title>Лист.13</title>
				<path d="M26.49 93.4 C26.49 107.06 26.49 107.06 26.49 107.06 C3.04 107.06 3.04 107.06 3.04 107.06 C3.04 103.06 3.04
							 103.06 3.04 103.06 C13.73 103.06 13.73 103.06 13.73 103.06 C4.21 97.4 4.21 97.4 4.21 97.4 C0.76 95.33
							 0 93.19 0 92.02 C0 89.4 2.83 87.54 3.31 87.26 C10.97 82.78 10.97 82.78 10.97 82.78 C16.56 86.37 16.56
							 86.37 16.56 86.37 C9.11 90.85 9.11 90.85 9.11 90.85 C7.45 91.54 7.73 92.71 9.8 93.89 C19.52 99.54 19.52
							 99.54 19.52 99.54 C19.52 93.4 19.52 93.4 19.52 93.4 C26.49 93.4 26.49 93.4 26.49 93.4 Z" class="st4"/>
			</g>
		</g>
	</g>
</svg>
